%TF.GenerationSoftware,KiCad,Pcbnew,8.0.9*%
%TF.CreationDate,2025-07-03T09:04:04+02:00*%
%TF.ProjectId,Project,50726f6a-6563-4742-9e6b-696361645f70,rev?*%
%TF.SameCoordinates,Original*%
%TF.FileFunction,Paste,Bot*%
%TF.FilePolarity,Positive*%
%FSLAX46Y46*%
G04 Gerber Fmt 4.6, Leading zero omitted, Abs format (unit mm)*
G04 Created by KiCad (PCBNEW 8.0.9) date 2025-07-03 09:04:04*
%MOMM*%
%LPD*%
G01*
G04 APERTURE LIST*
G04 Aperture macros list*
%AMRoundRect*
0 Rectangle with rounded corners*
0 $1 Rounding radius*
0 $2 $3 $4 $5 $6 $7 $8 $9 X,Y pos of 4 corners*
0 Add a 4 corners polygon primitive as box body*
4,1,4,$2,$3,$4,$5,$6,$7,$8,$9,$2,$3,0*
0 Add four circle primitives for the rounded corners*
1,1,$1+$1,$2,$3*
1,1,$1+$1,$4,$5*
1,1,$1+$1,$6,$7*
1,1,$1+$1,$8,$9*
0 Add four rect primitives between the rounded corners*
20,1,$1+$1,$2,$3,$4,$5,0*
20,1,$1+$1,$4,$5,$6,$7,0*
20,1,$1+$1,$6,$7,$8,$9,0*
20,1,$1+$1,$8,$9,$2,$3,0*%
G04 Aperture macros list end*
%ADD10RoundRect,0.200000X-0.200000X-0.275000X0.200000X-0.275000X0.200000X0.275000X-0.200000X0.275000X0*%
%ADD11RoundRect,0.375000X0.625000X0.375000X-0.625000X0.375000X-0.625000X-0.375000X0.625000X-0.375000X0*%
%ADD12RoundRect,0.500000X0.500000X1.400000X-0.500000X1.400000X-0.500000X-1.400000X0.500000X-1.400000X0*%
%ADD13RoundRect,0.150000X-0.150000X-0.200000X0.150000X-0.200000X0.150000X0.200000X-0.150000X0.200000X0*%
%ADD14RoundRect,0.225000X0.225000X0.250000X-0.225000X0.250000X-0.225000X-0.250000X0.225000X-0.250000X0*%
%ADD15RoundRect,0.225000X0.250000X-0.225000X0.250000X0.225000X-0.250000X0.225000X-0.250000X-0.225000X0*%
%ADD16RoundRect,0.150000X0.150000X0.200000X-0.150000X0.200000X-0.150000X-0.200000X0.150000X-0.200000X0*%
%ADD17RoundRect,0.150000X-0.200000X0.150000X-0.200000X-0.150000X0.200000X-0.150000X0.200000X0.150000X0*%
%ADD18R,0.900000X0.900000*%
%ADD19R,0.900000X1.500000*%
%ADD20R,1.500000X0.900000*%
%ADD21RoundRect,0.250000X-1.450000X0.312500X-1.450000X-0.312500X1.450000X-0.312500X1.450000X0.312500X0*%
%ADD22RoundRect,0.200000X0.200000X0.275000X-0.200000X0.275000X-0.200000X-0.275000X0.200000X-0.275000X0*%
G04 APERTURE END LIST*
D10*
%TO.C,R1*%
X258072800Y-326115737D03*
X259722800Y-326115737D03*
%TD*%
D11*
%TO.C,U2*%
X249880800Y-321992800D03*
D12*
X243580800Y-319692800D03*
D11*
X249880800Y-319692800D03*
X249880800Y-317392800D03*
%TD*%
D13*
%TO.C,D176*%
X259369200Y-324617137D03*
X257969200Y-324617137D03*
%TD*%
D14*
%TO.C,C1*%
X235377400Y-290913600D03*
X233827400Y-290913600D03*
%TD*%
D15*
%TO.C,C4*%
X251963600Y-316795600D03*
X251963600Y-318345600D03*
%TD*%
D16*
%TO.C,D175*%
X250755600Y-324591737D03*
X252155600Y-324591737D03*
%TD*%
D15*
%TO.C,C3*%
X251938200Y-321037400D03*
X251938200Y-322587400D03*
%TD*%
D14*
%TO.C,C2*%
X235377400Y-289364200D03*
X233827400Y-289364200D03*
%TD*%
D17*
%TO.C,D180*%
X244953200Y-325621937D03*
X244953200Y-324221937D03*
%TD*%
D18*
%TO.C,IC1*%
X240422000Y-302091200D03*
X241822000Y-302091200D03*
X243222000Y-302091200D03*
X243222000Y-300691200D03*
X243222000Y-299291200D03*
X241822000Y-299291200D03*
X240422000Y-299291200D03*
X240422000Y-300691200D03*
X241822000Y-300691200D03*
D19*
X234102000Y-310941200D03*
X235372000Y-310941200D03*
X236642000Y-310941200D03*
X237912000Y-310941200D03*
X239182000Y-310941200D03*
X240452000Y-310941200D03*
X241722000Y-310941200D03*
X242992000Y-310941200D03*
X244262000Y-310941200D03*
X245532000Y-310941200D03*
X246802000Y-310941200D03*
X248072000Y-310941200D03*
X249342000Y-310941200D03*
X250612000Y-310941200D03*
D20*
X251862000Y-309176200D03*
X251862000Y-307906200D03*
X251862000Y-306636200D03*
X251862000Y-305366200D03*
X251862000Y-304096200D03*
X251862000Y-302826200D03*
X251862000Y-301556200D03*
X251862000Y-300286200D03*
X251862000Y-299016200D03*
X251862000Y-297746200D03*
X251862000Y-296476200D03*
X251862000Y-295206200D03*
D19*
X250612000Y-293441200D03*
X249342000Y-293441200D03*
X248072000Y-293441200D03*
X246802000Y-293441200D03*
X245532000Y-293441200D03*
X244262000Y-293441200D03*
X242992000Y-293441200D03*
X241722000Y-293441200D03*
X240452000Y-293441200D03*
X239182000Y-293441200D03*
X237912000Y-293441200D03*
X236642000Y-293441200D03*
X235372000Y-293441200D03*
X234102000Y-293441200D03*
%TD*%
D21*
%TO.C,F3*%
X247671000Y-324202937D03*
X247671000Y-328477937D03*
%TD*%
D22*
%TO.C,R2*%
X252052000Y-326090337D03*
X250402000Y-326090337D03*
%TD*%
M02*
