%TF.GenerationSoftware,KiCad,Pcbnew,8.0.9*%
%TF.CreationDate,2025-07-03T09:04:04+02:00*%
%TF.ProjectId,Project,50726f6a-6563-4742-9e6b-696361645f70,rev?*%
%TF.SameCoordinates,Original*%
%TF.FileFunction,Soldermask,Top*%
%TF.FilePolarity,Negative*%
%FSLAX46Y46*%
G04 Gerber Fmt 4.6, Leading zero omitted, Abs format (unit mm)*
G04 Created by KiCad (PCBNEW 8.0.9) date 2025-07-03 09:04:04*
%MOMM*%
%LPD*%
G01*
G04 APERTURE LIST*
G04 Aperture macros list*
%AMRoundRect*
0 Rectangle with rounded corners*
0 $1 Rounding radius*
0 $2 $3 $4 $5 $6 $7 $8 $9 X,Y pos of 4 corners*
0 Add a 4 corners polygon primitive as box body*
4,1,4,$2,$3,$4,$5,$6,$7,$8,$9,$2,$3,0*
0 Add four circle primitives for the rounded corners*
1,1,$1+$1,$2,$3*
1,1,$1+$1,$4,$5*
1,1,$1+$1,$6,$7*
1,1,$1+$1,$8,$9*
0 Add four rect primitives between the rounded corners*
20,1,$1+$1,$2,$3,$4,$5,0*
20,1,$1+$1,$4,$5,$6,$7,0*
20,1,$1+$1,$6,$7,$8,$9,0*
20,1,$1+$1,$8,$9,$2,$3,0*%
%AMRotRect*
0 Rectangle, with rotation*
0 The origin of the aperture is its center*
0 $1 length*
0 $2 width*
0 $3 Rotation angle, in degrees counterclockwise*
0 Add horizontal line*
21,1,$1,$2,0,0,$3*%
G04 Aperture macros list end*
%ADD10RoundRect,0.200000X0.650000X-0.200000X0.650000X0.200000X-0.650000X0.200000X-0.650000X-0.200000X0*%
%ADD11RoundRect,0.144750X-0.144750X-0.255549X0.144750X-0.255549X0.144750X0.255549X-0.144750X0.255549X0*%
%ADD12RoundRect,0.147950X-0.147950X-0.277748X0.147950X-0.277748X0.147950X0.277748X-0.147950X0.277748X0*%
%ADD13RoundRect,0.075000X-0.075000X-0.401500X0.075000X-0.401500X0.075000X0.401500X-0.075000X0.401500X0*%
%ADD14RoundRect,0.148100X-0.148100X-0.277598X0.148100X-0.277598X0.148100X0.277598X-0.148100X0.277598X0*%
%ADD15RoundRect,0.151300X-0.151300X-0.236300X0.151300X-0.236300X0.151300X0.236300X-0.151300X0.236300X0*%
%ADD16O,1.000000X1.800000*%
%ADD17O,1.000000X2.200000*%
%ADD18R,1.000000X1.500000*%
%ADD19R,1.500000X1.000000*%
%ADD20RotRect,1.500000X1.000000X57.966200*%
%ADD21C,3.200000*%
%ADD22RotRect,1.500000X1.000000X277.627330*%
%ADD23RotRect,1.500000X1.000000X253.220570*%
%ADD24RotRect,1.500000X1.000000X155.593240*%
%ADD25RotRect,1.500000X1.000000X82.372960*%
%ADD26RotRect,1.500000X1.000000X94.576340*%
%ADD27RotRect,1.500000X1.000000X125.084790*%
%ADD28RotRect,1.500000X1.000000X173.898310*%
%ADD29RotRect,1.500000X1.000000X198.305360*%
%ADD30RotRect,1.500000X1.000000X112.881410*%
%ADD31RotRect,1.500000X1.000000X192.203670*%
%ADD32RotRect,1.500000X1.000000X320.339160*%
%ADD33RotRect,1.500000X1.000000X350.847610*%
%ADD34RotRect,1.500000X1.000000X234.915500*%
%ADD35RotRect,1.500000X1.000000X70.169580*%
%ADD36RotRect,1.500000X1.000000X39.661130*%
%ADD37RotRect,1.500000X1.000000X314.237470*%
%ADD38RotRect,1.500000X1.000000X33.559440*%
%ADD39RotRect,1.500000X1.000000X338.644230*%
%ADD40RotRect,1.500000X1.000000X283.729020*%
%ADD41RotRect,1.500000X1.000000X88.474650*%
%ADD42RotRect,1.500000X1.000000X265.423950*%
%ADD43RotRect,1.500000X1.000000X247.118880*%
%ADD44RotRect,1.500000X1.000000X21.356060*%
%ADD45RotRect,1.500000X1.000000X51.864510*%
%ADD46RotRect,1.500000X1.000000X222.712120*%
%ADD47RotRect,1.500000X1.000000X100.678030*%
%ADD48RotRect,1.500000X1.000000X186.101980*%
%ADD49RotRect,1.500000X1.000000X332.542540*%
%ADD50RotRect,1.500000X1.000000X45.762820*%
%ADD51RotRect,1.500000X1.000000X295.932400*%
%ADD52RotRect,1.500000X1.000000X3.050990*%
%ADD53RotRect,1.500000X1.000000X228.813810*%
%ADD54RotRect,1.500000X1.000000X289.830710*%
%ADD55RotRect,1.500000X1.000000X143.389860*%
%ADD56RotRect,1.500000X1.000000X9.152680*%
%ADD57RotRect,1.500000X1.000000X302.034090*%
%ADD58RotRect,1.500000X1.000000X76.271270*%
%ADD59RotRect,1.500000X1.000000X137.288170*%
%ADD60RotRect,1.500000X1.000000X64.067890*%
%ADD61RotRect,1.500000X1.000000X241.017190*%
%ADD62RotRect,1.500000X1.000000X326.440850*%
%ADD63RotRect,1.500000X1.000000X259.322260*%
%ADD64RotRect,1.500000X1.000000X27.457750*%
%ADD65RotRect,1.500000X1.000000X356.949300*%
%ADD66RotRect,1.500000X1.000000X344.745920*%
%ADD67RotRect,1.500000X1.000000X210.508740*%
%ADD68RotRect,1.500000X1.000000X149.491550*%
%ADD69RotRect,1.500000X1.000000X216.610430*%
%ADD70RotRect,1.500000X1.000000X204.407050*%
%ADD71RotRect,1.500000X1.000000X308.135780*%
%ADD72RotRect,1.500000X1.000000X118.983100*%
%ADD73RotRect,1.500000X1.000000X161.694930*%
%ADD74RotRect,1.500000X1.000000X15.254370*%
%ADD75RotRect,1.500000X1.000000X271.525640*%
%ADD76RotRect,1.500000X1.000000X131.186480*%
%ADD77RoundRect,0.200000X0.275000X-0.200000X0.275000X0.200000X-0.275000X0.200000X-0.275000X-0.200000X0*%
%ADD78RotRect,1.500000X1.000000X167.796620*%
%ADD79RotRect,1.500000X1.000000X106.779720*%
G04 APERTURE END LIST*
D10*
%TO.C,SW1*%
X247444100Y-333734737D03*
X247444100Y-330334737D03*
%TD*%
%TO.C,SW2*%
X262733200Y-333684937D03*
X262733200Y-330284937D03*
%TD*%
D11*
%TO.C,J1*%
X251853900Y-327817438D03*
D12*
X252660300Y-327842839D03*
D13*
X253818300Y-327893637D03*
X254814400Y-327893637D03*
X255314400Y-327893637D03*
X256314400Y-327893637D03*
D14*
X257460600Y-327842839D03*
D15*
X258267000Y-327804737D03*
D13*
X256814400Y-327893637D03*
X255814400Y-327893637D03*
X254314400Y-327893637D03*
X253314400Y-327893637D03*
D16*
X250744400Y-328412737D03*
D17*
X250744400Y-332592737D03*
D16*
X259384400Y-328412737D03*
D17*
X259384400Y-332592737D03*
%TD*%
D18*
%TO.C,D113*%
X308400000Y-217750000D03*
X306800000Y-217750000D03*
X305200000Y-217750000D03*
X305200000Y-222650000D03*
X306800000Y-222650000D03*
X308400000Y-222650000D03*
%TD*%
D19*
%TO.C,D68*%
X280950000Y-223200000D03*
X280950000Y-224800000D03*
X280950000Y-226400000D03*
X285850000Y-226400000D03*
X285850000Y-224800000D03*
X285850000Y-223200000D03*
%TD*%
%TO.C,D95*%
X328050000Y-217000000D03*
X328050000Y-215400000D03*
X328050000Y-213800000D03*
X323150000Y-213800000D03*
X323150000Y-215400000D03*
X323150000Y-217000000D03*
%TD*%
%TO.C,D165*%
X393950001Y-223200000D03*
X393950001Y-224800000D03*
X393950001Y-226400000D03*
X398850001Y-226400000D03*
X398850001Y-224800000D03*
X398850001Y-223200000D03*
%TD*%
D18*
%TO.C,D159*%
X413400000Y-247850000D03*
X415000000Y-247850000D03*
X416600000Y-247850000D03*
X416600000Y-242950000D03*
X415000000Y-242950000D03*
X413400000Y-242950000D03*
%TD*%
%TO.C,D60*%
X257000000Y-197050000D03*
X258600000Y-197050000D03*
X260200000Y-197050000D03*
X260200000Y-192150000D03*
X258600000Y-192150000D03*
X257000000Y-192150000D03*
%TD*%
D20*
%TO.C,D21*%
X429307748Y-278438184D03*
X430664124Y-279286856D03*
X432020501Y-280135527D03*
X434619556Y-275981624D03*
X433263180Y-275132952D03*
X431906803Y-274284281D03*
%TD*%
D19*
%TO.C,D136*%
X356650001Y-232400000D03*
X356650001Y-230800000D03*
X356650001Y-229200000D03*
X351750001Y-229200000D03*
X351750001Y-230800000D03*
X351750001Y-232400000D03*
%TD*%
%TO.C,D135*%
X351750001Y-235200000D03*
X351750001Y-236800000D03*
X351750001Y-238400000D03*
X356650001Y-238400000D03*
X356650001Y-236800000D03*
X356650001Y-235200000D03*
%TD*%
%TO.C,D137*%
X351750001Y-223200000D03*
X351750001Y-224800000D03*
X351750001Y-226400000D03*
X356650001Y-226400000D03*
X356650001Y-224800000D03*
X356650001Y-223200000D03*
%TD*%
D18*
%TO.C,D61*%
X266400000Y-192150000D03*
X264800000Y-192150000D03*
X263200000Y-192150000D03*
X263200000Y-197050000D03*
X264800000Y-197050000D03*
X266400000Y-197050000D03*
%TD*%
%TO.C,D161*%
X401400000Y-247850000D03*
X403000000Y-247850000D03*
X404600000Y-247850000D03*
X404600000Y-242950000D03*
X403000000Y-242950000D03*
X401400000Y-242950000D03*
%TD*%
D19*
%TO.C,D70*%
X280950000Y-235200000D03*
X280950000Y-236800000D03*
X280950000Y-238400000D03*
X285850000Y-238400000D03*
X285850000Y-236800000D03*
X285850000Y-235200000D03*
%TD*%
D18*
%TO.C,D145*%
X380400000Y-217750000D03*
X378800000Y-217750000D03*
X377200000Y-217750000D03*
X377200000Y-222650000D03*
X378800000Y-222650000D03*
X380400000Y-222650000D03*
%TD*%
%TO.C,D142*%
X359200000Y-222650000D03*
X360800000Y-222650000D03*
X362400000Y-222650000D03*
X362400000Y-217750000D03*
X360800000Y-217750000D03*
X359200000Y-217750000D03*
%TD*%
D19*
%TO.C,D82*%
X254450000Y-205000000D03*
X254450000Y-203400000D03*
X254450000Y-201800000D03*
X249550000Y-201800000D03*
X249550000Y-203400000D03*
X249550000Y-205000000D03*
%TD*%
D21*
%TO.C,H3*%
X445000000Y-325200000D03*
%TD*%
D19*
%TO.C,D134*%
X356650001Y-244400000D03*
X356650001Y-242800000D03*
X356650001Y-241200000D03*
X351750001Y-241200000D03*
X351750001Y-242800000D03*
X351750001Y-244400000D03*
%TD*%
%TO.C,D169*%
X393950000Y-195800000D03*
X393950000Y-197400000D03*
X393950000Y-199000000D03*
X398850000Y-199000000D03*
X398850000Y-197400000D03*
X398850000Y-195800000D03*
%TD*%
D18*
%TO.C,D90*%
X311200000Y-197050000D03*
X312800000Y-197050000D03*
X314400000Y-197050000D03*
X314400000Y-192150000D03*
X312800000Y-192150000D03*
X311200000Y-192150000D03*
%TD*%
D19*
%TO.C,D67*%
X285850000Y-217000000D03*
X285850000Y-215400000D03*
X285850000Y-213800000D03*
X280950000Y-213800000D03*
X280950000Y-215400000D03*
X280950000Y-217000000D03*
%TD*%
%TO.C,D155*%
X430250000Y-232400000D03*
X430250000Y-230800000D03*
X430250000Y-229200000D03*
X425350000Y-229200000D03*
X425350000Y-230800000D03*
X425350000Y-232400000D03*
%TD*%
%TO.C,D153*%
X430250000Y-217000000D03*
X430250000Y-215400000D03*
X430250000Y-213800000D03*
X425350000Y-213800000D03*
X425350000Y-215400000D03*
X425350000Y-217000000D03*
%TD*%
%TO.C,D122*%
X383150000Y-195799999D03*
X383150000Y-197399999D03*
X383150000Y-198999999D03*
X388050000Y-198999999D03*
X388050000Y-197399999D03*
X388050000Y-195799999D03*
%TD*%
D22*
%TO.C,D44*%
X234077702Y-232366626D03*
X232491859Y-232578993D03*
X230906015Y-232791359D03*
X231556388Y-237648006D03*
X233142231Y-237435639D03*
X234728075Y-237223273D03*
%TD*%
D23*
%TO.C,D48*%
X238516063Y-187511003D03*
X236984186Y-187049102D03*
X235452309Y-186587201D03*
X234037737Y-191278575D03*
X235569614Y-191740476D03*
X237101491Y-192202377D03*
%TD*%
D24*
%TO.C,D5*%
X385869656Y-123952742D03*
X386530795Y-122495726D03*
X387191934Y-121038710D03*
X382729822Y-119013972D03*
X382068683Y-120470988D03*
X381407544Y-121928004D03*
%TD*%
D18*
%TO.C,D103*%
X299200000Y-247850000D03*
X300800000Y-247850000D03*
X302400000Y-247850000D03*
X302400000Y-242950000D03*
X300800000Y-242950000D03*
X299200000Y-242950000D03*
%TD*%
D25*
%TO.C,D17*%
X445391463Y-236330702D03*
X446977308Y-236543061D03*
X448563153Y-236755420D03*
X449213501Y-231898770D03*
X447627656Y-231686411D03*
X446041811Y-231474052D03*
%TD*%
D19*
%TO.C,D168*%
X398850001Y-205000000D03*
X398850001Y-203400000D03*
X398850001Y-201800000D03*
X393950001Y-201800000D03*
X393950001Y-203400000D03*
X393950001Y-205000000D03*
%TD*%
D18*
%TO.C,D131*%
X371200000Y-247850000D03*
X372800000Y-247850000D03*
X374400000Y-247850000D03*
X374400000Y-242950000D03*
X372800000Y-242950000D03*
X371200000Y-242950000D03*
%TD*%
%TO.C,D160*%
X410600000Y-242950000D03*
X409000000Y-242950000D03*
X407400000Y-242950000D03*
X407400000Y-247850000D03*
X409000000Y-247850000D03*
X410600000Y-247850000D03*
%TD*%
D26*
%TO.C,D15*%
X446419725Y-213688297D03*
X448014624Y-213560637D03*
X449609523Y-213432977D03*
X449218565Y-208548599D03*
X447623666Y-208676259D03*
X446028767Y-208803919D03*
%TD*%
D19*
%TO.C,D78*%
X254450000Y-232400000D03*
X254450000Y-230800000D03*
X254450000Y-229200000D03*
X249550000Y-229200000D03*
X249550000Y-230800000D03*
X249550000Y-232400000D03*
%TD*%
%TO.C,D164*%
X398850001Y-232400000D03*
X398850001Y-230800000D03*
X398850001Y-229200000D03*
X393950001Y-229200000D03*
X393950001Y-230800000D03*
X393950001Y-232400000D03*
%TD*%
%TO.C,D151*%
X430250000Y-204999999D03*
X430250000Y-203399999D03*
X430250000Y-201799999D03*
X425350000Y-201799999D03*
X425350000Y-203399999D03*
X425350000Y-204999999D03*
%TD*%
D27*
%TO.C,D10*%
X428380605Y-160564200D03*
X429689889Y-159644539D03*
X430999172Y-158724878D03*
X428182711Y-154715196D03*
X426873427Y-155634857D03*
X425564144Y-156554518D03*
%TD*%
D18*
%TO.C,D75*%
X257000000Y-247850000D03*
X258600000Y-247850000D03*
X260200000Y-247850000D03*
X260200000Y-242950000D03*
X258600000Y-242950000D03*
X257000000Y-242950000D03*
%TD*%
D19*
%TO.C,D162*%
X398850001Y-244400000D03*
X398850001Y-242800000D03*
X398850001Y-241200000D03*
X393950001Y-241200000D03*
X393950001Y-242800000D03*
X393950001Y-244400000D03*
%TD*%
D18*
%TO.C,D74*%
X266200000Y-242950000D03*
X264600000Y-242950000D03*
X263000000Y-242950000D03*
X263000000Y-247850000D03*
X264600000Y-247850000D03*
X266200000Y-247850000D03*
%TD*%
%TO.C,D149*%
X422600000Y-192150000D03*
X421000000Y-192150000D03*
X419400000Y-192150000D03*
X419400000Y-197050000D03*
X421000000Y-197050000D03*
X422600000Y-197050000D03*
%TD*%
%TO.C,D72*%
X278200000Y-242950000D03*
X276600000Y-242950000D03*
X275000000Y-242950000D03*
X275000000Y-247850000D03*
X276600000Y-247850000D03*
X278200000Y-247850000D03*
%TD*%
D19*
%TO.C,D126*%
X383150000Y-223200000D03*
X383150000Y-224800000D03*
X383150000Y-226400000D03*
X388050000Y-226400000D03*
X388050000Y-224800000D03*
X388050000Y-223200000D03*
%TD*%
D18*
%TO.C,D63*%
X278200000Y-192150000D03*
X276600000Y-192150000D03*
X275000000Y-192150000D03*
X275000000Y-197050000D03*
X276600000Y-197050000D03*
X278200000Y-197050000D03*
%TD*%
D19*
%TO.C,D99*%
X328050000Y-244400000D03*
X328050000Y-242800000D03*
X328050000Y-241200000D03*
X323150000Y-241200000D03*
X323150000Y-242800000D03*
X323150000Y-244400000D03*
%TD*%
D18*
%TO.C,D120*%
X371200000Y-197050000D03*
X372800000Y-197050000D03*
X374400000Y-197050000D03*
X374400000Y-192150000D03*
X372800000Y-192150000D03*
X371200000Y-192150000D03*
%TD*%
%TO.C,D121*%
X380400000Y-192150000D03*
X378800000Y-192150000D03*
X377200000Y-192150000D03*
X377200000Y-197050000D03*
X378800000Y-197050000D03*
X380400000Y-197050000D03*
%TD*%
%TO.C,D158*%
X422600000Y-242950000D03*
X421000000Y-242950000D03*
X419400000Y-242950000D03*
X419400000Y-247850000D03*
X421000000Y-247850000D03*
X422600000Y-247850000D03*
%TD*%
%TO.C,D148*%
X413400000Y-197050000D03*
X415000000Y-197050000D03*
X416600000Y-197050000D03*
X416600000Y-192150000D03*
X415000000Y-192150000D03*
X413400000Y-192150000D03*
%TD*%
D28*
%TO.C,D2*%
X353319546Y-114416497D03*
X353489615Y-112825561D03*
X353659685Y-111234625D03*
X348787444Y-110713787D03*
X348617375Y-112304723D03*
X348447305Y-113895659D03*
%TD*%
D19*
%TO.C,D71*%
X285850000Y-244400000D03*
X285850000Y-242800000D03*
X285850000Y-241200000D03*
X280950000Y-241200000D03*
X280950000Y-242800000D03*
X280950000Y-244400000D03*
%TD*%
%TO.C,D107*%
X291750001Y-223200000D03*
X291750001Y-224800000D03*
X291750001Y-226400000D03*
X296650001Y-226400000D03*
X296650001Y-224800000D03*
X296650001Y-223200000D03*
%TD*%
%TO.C,D150*%
X425350000Y-195799999D03*
X425350000Y-197399999D03*
X425350000Y-198999999D03*
X430250000Y-198999999D03*
X430250000Y-197399999D03*
X430250000Y-195799999D03*
%TD*%
D29*
%TO.C,D57*%
X308417728Y-118366214D03*
X307915198Y-116847180D03*
X307412668Y-115328146D03*
X302760628Y-116867144D03*
X303263158Y-118386178D03*
X303765688Y-119905212D03*
%TD*%
D19*
%TO.C,D104*%
X296650001Y-244400000D03*
X296650001Y-242800000D03*
X296650001Y-241200000D03*
X291750001Y-241200000D03*
X291750001Y-242800000D03*
X291750001Y-244400000D03*
%TD*%
D18*
%TO.C,D146*%
X401400000Y-197050000D03*
X403000000Y-197050000D03*
X404600000Y-197050000D03*
X404600000Y-192150000D03*
X403000000Y-192150000D03*
X401400000Y-192150000D03*
%TD*%
D30*
%TO.C,D12*%
X438989468Y-180593874D03*
X440463566Y-179971753D03*
X441937665Y-179349633D03*
X440032422Y-174835206D03*
X438558324Y-175457327D03*
X437084225Y-176079447D03*
%TD*%
D31*
%TO.C,D58*%
X319420908Y-115586134D03*
X319082688Y-114022290D03*
X318744468Y-112458446D03*
X313955196Y-113494244D03*
X314293416Y-115058088D03*
X314631636Y-116621932D03*
%TD*%
D18*
%TO.C,D147*%
X410800000Y-192150000D03*
X409200000Y-192150000D03*
X407600000Y-192150000D03*
X407600000Y-197050000D03*
X409200000Y-197050000D03*
X410800000Y-197050000D03*
%TD*%
%TO.C,D112*%
X299200000Y-222650000D03*
X300800000Y-222650000D03*
X302400000Y-222650000D03*
X302400000Y-217750000D03*
X300800000Y-217750000D03*
X299200000Y-217750000D03*
%TD*%
D32*
%TO.C,D37*%
X270423752Y-300988029D03*
X269402565Y-302219767D03*
X268381378Y-303451504D03*
X272153574Y-306578889D03*
X273174761Y-305347151D03*
X274195948Y-304115414D03*
%TD*%
D33*
%TO.C,D32*%
X321069574Y-325124730D03*
X320815076Y-326704360D03*
X320560579Y-328283990D03*
X325398196Y-329063388D03*
X325652694Y-327483758D03*
X325907191Y-325904128D03*
%TD*%
D34*
%TO.C,D51*%
X253918229Y-157291425D03*
X252608941Y-156371771D03*
X251299652Y-155452117D03*
X248483211Y-159461813D03*
X249792499Y-160381467D03*
X251101788Y-161301121D03*
%TD*%
D19*
%TO.C,D140*%
X356650001Y-205000000D03*
X356650001Y-203400000D03*
X356650001Y-201800000D03*
X351750001Y-201800000D03*
X351750001Y-203400000D03*
X351750001Y-205000000D03*
%TD*%
D18*
%TO.C,D144*%
X371200000Y-222650000D03*
X372800000Y-222650000D03*
X374400000Y-222650000D03*
X374400000Y-217750000D03*
X372800000Y-217750000D03*
X371200000Y-217750000D03*
%TD*%
D19*
%TO.C,D77*%
X249550000Y-235200000D03*
X249550000Y-236800000D03*
X249550000Y-238400000D03*
X254450000Y-238400000D03*
X254450000Y-236800000D03*
X254450000Y-235200000D03*
%TD*%
D35*
%TO.C,D19*%
X439600229Y-258244110D03*
X441105350Y-258786890D03*
X442610472Y-259329670D03*
X444272735Y-254720236D03*
X442767614Y-254177456D03*
X441262492Y-253634676D03*
%TD*%
D36*
%TO.C,D24*%
X406497327Y-303540660D03*
X407518520Y-304772392D03*
X408539713Y-306004124D03*
X412311893Y-302876720D03*
X411290700Y-301644988D03*
X410269507Y-300413256D03*
%TD*%
D18*
%TO.C,D91*%
X320400000Y-192150000D03*
X318800000Y-192150000D03*
X317200000Y-192150000D03*
X317200000Y-197050000D03*
X318800000Y-197050000D03*
X320400000Y-197050000D03*
%TD*%
%TO.C,D84*%
X257000000Y-222650000D03*
X258600000Y-222650000D03*
X260200000Y-222650000D03*
X260200000Y-217750000D03*
X258600000Y-217750000D03*
X257000000Y-217750000D03*
%TD*%
D19*
%TO.C,D80*%
X254450000Y-217000000D03*
X254450000Y-215400000D03*
X254450000Y-213800000D03*
X249550000Y-213800000D03*
X249550000Y-215400000D03*
X249550000Y-217000000D03*
%TD*%
D37*
%TO.C,D38*%
X262230680Y-293134853D03*
X261084353Y-294251067D03*
X259938026Y-295367281D03*
X263356432Y-298877909D03*
X264502759Y-297761695D03*
X265649086Y-296645481D03*
%TD*%
D19*
%TO.C,D92*%
X323150000Y-195799999D03*
X323150000Y-197399999D03*
X323150000Y-198999999D03*
X328050000Y-198999999D03*
X328050000Y-197399999D03*
X328050000Y-195799999D03*
%TD*%
D18*
%TO.C,D101*%
X311200000Y-247850000D03*
X312800000Y-247850000D03*
X314400000Y-247850000D03*
X314400000Y-242950000D03*
X312800000Y-242950000D03*
X311200000Y-242950000D03*
%TD*%
D38*
%TO.C,D25*%
X397262044Y-310136746D03*
X398146527Y-311470046D03*
X399031010Y-312803347D03*
X403114242Y-310094618D03*
X402229759Y-308761318D03*
X401345276Y-307428017D03*
%TD*%
D39*
%TO.C,D34*%
X299318090Y-318752231D03*
X298735437Y-320242370D03*
X298152784Y-321732510D03*
X302716336Y-323516883D03*
X303298989Y-322026744D03*
X303881642Y-320536604D03*
%TD*%
D19*
%TO.C,D69*%
X285850000Y-232400000D03*
X285850000Y-230800000D03*
X285850000Y-229200000D03*
X280950000Y-229200000D03*
X280950000Y-230800000D03*
X280950000Y-232400000D03*
%TD*%
%TO.C,D123*%
X388050000Y-204999999D03*
X388050000Y-203399999D03*
X388050000Y-201799999D03*
X383150000Y-201799999D03*
X383150000Y-203399999D03*
X383150000Y-204999999D03*
%TD*%
%TO.C,D97*%
X328050000Y-232400000D03*
X328050000Y-230800000D03*
X328050000Y-229200000D03*
X323150000Y-229200000D03*
X323150000Y-230800000D03*
X323150000Y-232400000D03*
%TD*%
D40*
%TO.C,D43*%
X235971003Y-243556542D03*
X234416718Y-243936270D03*
X232862432Y-244315998D03*
X234025351Y-249076000D03*
X235579636Y-248696272D03*
X237133922Y-248316544D03*
%TD*%
D18*
%TO.C,D115*%
X320400000Y-217750000D03*
X318800000Y-217750000D03*
X317200000Y-217750000D03*
X317200000Y-222650000D03*
X318800000Y-222650000D03*
X320400000Y-222650000D03*
%TD*%
D41*
%TO.C,D16*%
X446508987Y-225036902D03*
X448108420Y-225079493D03*
X449707853Y-225122084D03*
X449838287Y-220223820D03*
X448238854Y-220181229D03*
X446639421Y-220138638D03*
%TD*%
D42*
%TO.C,D46*%
X233899371Y-209701586D03*
X232304472Y-209573935D03*
X230709572Y-209446283D03*
X230318639Y-214330664D03*
X231913538Y-214458315D03*
X233508438Y-214585967D03*
%TD*%
D19*
%TO.C,D129*%
X388050000Y-244400000D03*
X388050000Y-242800000D03*
X388050000Y-241200000D03*
X383150000Y-241200000D03*
X383150000Y-242800000D03*
X383150000Y-244400000D03*
%TD*%
%TO.C,D117*%
X337500000Y-226150000D03*
X337500000Y-227750000D03*
X337500000Y-229350000D03*
X342400000Y-229350000D03*
X342400000Y-227750000D03*
X342400000Y-226150000D03*
%TD*%
%TO.C,D64*%
X280950000Y-195800000D03*
X280950000Y-197400000D03*
X280950000Y-199000000D03*
X285850000Y-199000000D03*
X285850000Y-197400000D03*
X285850000Y-195800000D03*
%TD*%
%TO.C,D110*%
X296650001Y-205000000D03*
X296650001Y-203400000D03*
X296650001Y-201800000D03*
X291750001Y-201800000D03*
X291750001Y-203400000D03*
X291750001Y-205000000D03*
%TD*%
D43*
%TO.C,D49*%
X242565614Y-176909120D03*
X241091512Y-176287008D03*
X239617410Y-175664895D03*
X237712190Y-180179332D03*
X239186292Y-180801444D03*
X240660394Y-181423557D03*
%TD*%
D18*
%TO.C,D143*%
X368400000Y-217750000D03*
X366800000Y-217750000D03*
X365200000Y-217750000D03*
X365200000Y-222650000D03*
X366800000Y-222650000D03*
X368400000Y-222650000D03*
%TD*%
D44*
%TO.C,D27*%
X376957068Y-320208675D03*
X377539728Y-321698811D03*
X378122389Y-323188948D03*
X382685932Y-321404551D03*
X382103272Y-319914415D03*
X381520611Y-318424278D03*
%TD*%
D45*
%TO.C,D22*%
X422611468Y-287601078D03*
X423869952Y-288589115D03*
X425128436Y-289577152D03*
X428154300Y-285723044D03*
X426895816Y-284735007D03*
X425637332Y-283746970D03*
%TD*%
D19*
%TO.C,D166*%
X398850001Y-217000000D03*
X398850001Y-215400000D03*
X398850001Y-213800000D03*
X393950001Y-213800000D03*
X393950001Y-215400000D03*
X393950001Y-217000000D03*
%TD*%
D18*
%TO.C,D62*%
X269000000Y-197050000D03*
X270600000Y-197050000D03*
X272200000Y-197050000D03*
X272200000Y-192150000D03*
X270600000Y-192150000D03*
X269000000Y-192150000D03*
%TD*%
D46*
%TO.C,D53*%
X269161151Y-140516768D03*
X268075847Y-139341134D03*
X266990543Y-138165500D03*
X263390165Y-141489244D03*
X264475469Y-142664878D03*
X265560773Y-143840512D03*
%TD*%
D18*
%TO.C,D100*%
X320400000Y-242950000D03*
X318800000Y-242950000D03*
X317200000Y-242950000D03*
X317200000Y-247850000D03*
X318800000Y-247850000D03*
X320400000Y-247850000D03*
%TD*%
D19*
%TO.C,D111*%
X291750000Y-195800000D03*
X291750000Y-197400000D03*
X291750000Y-199000000D03*
X296650000Y-199000000D03*
X296650000Y-197400000D03*
X296650000Y-195800000D03*
%TD*%
D47*
%TO.C,D14*%
X445124686Y-202413473D03*
X446696980Y-202117010D03*
X448269274Y-201820546D03*
X447361354Y-197005395D03*
X445789060Y-197301858D03*
X444216766Y-197598322D03*
%TD*%
D19*
%TO.C,D94*%
X323150000Y-207799999D03*
X323150000Y-209399999D03*
X323150000Y-210999999D03*
X328050000Y-210999999D03*
X328050000Y-209399999D03*
X328050000Y-207799999D03*
%TD*%
D18*
%TO.C,D130*%
X380400000Y-242950000D03*
X378800000Y-242950000D03*
X377200000Y-242950000D03*
X377200000Y-247850000D03*
X378800000Y-247850000D03*
X380400000Y-247850000D03*
%TD*%
D19*
%TO.C,D65*%
X285850000Y-205000000D03*
X285850000Y-203400000D03*
X285850000Y-201800000D03*
X280950000Y-201800000D03*
X280950000Y-203400000D03*
X280950000Y-205000000D03*
%TD*%
D48*
%TO.C,D59*%
X330657255Y-113991370D03*
X330487178Y-112400435D03*
X330317100Y-110809500D03*
X325444863Y-111330362D03*
X325614940Y-112921297D03*
X325785018Y-114512232D03*
%TD*%
D49*
%TO.C,D35*%
X289073108Y-313869694D03*
X288335364Y-315289460D03*
X287597620Y-316709225D03*
X291945652Y-318968566D03*
X292683396Y-317548800D03*
X293421140Y-316129035D03*
%TD*%
D50*
%TO.C,D23*%
X414979168Y-296000292D03*
X416125501Y-297116500D03*
X417271834Y-298232709D03*
X420690222Y-294722064D03*
X419543889Y-293605856D03*
X418397556Y-292489647D03*
%TD*%
D19*
%TO.C,D141*%
X351750000Y-195800000D03*
X351750000Y-197400000D03*
X351750000Y-199000000D03*
X356650000Y-199000000D03*
X356650000Y-197400000D03*
X356650000Y-195800000D03*
%TD*%
D51*
%TO.C,D41*%
X243258867Y-265018668D03*
X241819970Y-265718365D03*
X240381072Y-266418062D03*
X242523893Y-270824684D03*
X243962790Y-270124987D03*
X245401688Y-269425290D03*
%TD*%
D18*
%TO.C,D86*%
X269000000Y-222650000D03*
X270600000Y-222650000D03*
X272200000Y-222650000D03*
X272200000Y-217750000D03*
X270600000Y-217750000D03*
X269000000Y-217750000D03*
%TD*%
D52*
%TO.C,D30*%
X343676583Y-326755350D03*
X343761743Y-328353082D03*
X343846902Y-329950815D03*
X348739957Y-329690014D03*
X348654797Y-328092282D03*
X348569638Y-326494549D03*
%TD*%
D19*
%TO.C,D152*%
X425350000Y-207799999D03*
X425350000Y-209399999D03*
X425350000Y-210999999D03*
X430250000Y-210999999D03*
X430250000Y-209399999D03*
X430250000Y-207799999D03*
%TD*%
D18*
%TO.C,D102*%
X308400000Y-242950000D03*
X306800000Y-242950000D03*
X305200000Y-242950000D03*
X305200000Y-247850000D03*
X306800000Y-247850000D03*
X308400000Y-247850000D03*
%TD*%
D19*
%TO.C,D163*%
X393950001Y-235200000D03*
X393950001Y-236800000D03*
X393950001Y-238400000D03*
X398850001Y-238400000D03*
X398850001Y-236800000D03*
X398850001Y-235200000D03*
%TD*%
D18*
%TO.C,D114*%
X311200000Y-222650000D03*
X312800000Y-222650000D03*
X314400000Y-222650000D03*
X314400000Y-217750000D03*
X312800000Y-217750000D03*
X311200000Y-217750000D03*
%TD*%
%TO.C,D87*%
X278200000Y-217750000D03*
X276600000Y-217750000D03*
X275000000Y-217750000D03*
X275000000Y-222650000D03*
X276600000Y-222650000D03*
X278200000Y-222650000D03*
%TD*%
D21*
%TO.C,H2*%
X445000000Y-115200000D03*
%TD*%
D53*
%TO.C,D52*%
X261092665Y-148497890D03*
X259888547Y-147444278D03*
X258684429Y-146390665D03*
X255457739Y-150078276D03*
X256661857Y-151131888D03*
X257865975Y-152185501D03*
%TD*%
D18*
%TO.C,D133*%
X359200000Y-247850000D03*
X360800000Y-247850000D03*
X362400000Y-247850000D03*
X362400000Y-242950000D03*
X360800000Y-242950000D03*
X359200000Y-242950000D03*
%TD*%
%TO.C,D73*%
X269000000Y-247850000D03*
X270600000Y-247850000D03*
X272200000Y-247850000D03*
X272200000Y-242950000D03*
X270600000Y-242950000D03*
X269000000Y-242950000D03*
%TD*%
D54*
%TO.C,D42*%
X239042994Y-254481818D03*
X237537876Y-255024605D03*
X236032757Y-255567393D03*
X237695044Y-260176818D03*
X239200162Y-259634031D03*
X240705281Y-259091243D03*
%TD*%
D18*
%TO.C,D118*%
X359200000Y-197050000D03*
X360800000Y-197050000D03*
X362400000Y-197050000D03*
X362400000Y-192150000D03*
X360800000Y-192150000D03*
X359200000Y-192150000D03*
%TD*%
D55*
%TO.C,D7*%
X405178140Y-135823640D03*
X406132327Y-134539301D03*
X407086514Y-133254962D03*
X403153226Y-130332764D03*
X402199039Y-131617103D03*
X401244852Y-132901442D03*
%TD*%
D56*
%TO.C,D29*%
X354981885Y-325760898D03*
X355236390Y-327340526D03*
X355490896Y-328920155D03*
X360328509Y-328140732D03*
X360074004Y-326561104D03*
X359819498Y-324981475D03*
%TD*%
D18*
%TO.C,D89*%
X308600000Y-192150000D03*
X307000000Y-192150000D03*
X305400000Y-192150000D03*
X305400000Y-197050000D03*
X307000000Y-197050000D03*
X308600000Y-197050000D03*
%TD*%
D21*
%TO.C,H1*%
X235000000Y-115200000D03*
%TD*%
D57*
%TO.C,D40*%
X248570852Y-275047706D03*
X247214480Y-275896384D03*
X245858108Y-276745062D03*
X248457184Y-280898952D03*
X249813556Y-280050274D03*
X251169928Y-279201596D03*
%TD*%
D19*
%TO.C,D127*%
X388050000Y-232400000D03*
X388050000Y-230800000D03*
X388050000Y-229200000D03*
X383150000Y-229200000D03*
X383150000Y-230800000D03*
X383150000Y-232400000D03*
%TD*%
%TO.C,D157*%
X430250000Y-244400000D03*
X430250000Y-242800000D03*
X430250000Y-241200000D03*
X425350000Y-241200000D03*
X425350000Y-242800000D03*
X425350000Y-244400000D03*
%TD*%
D18*
%TO.C,D132*%
X368400000Y-242950000D03*
X366800000Y-242950000D03*
X365200000Y-242950000D03*
X365200000Y-247850000D03*
X366800000Y-247850000D03*
X368400000Y-247850000D03*
%TD*%
D58*
%TO.C,D18*%
X443079813Y-247441736D03*
X444634101Y-247821456D03*
X446188389Y-248201178D03*
X447351283Y-243441168D03*
X445796995Y-243061448D03*
X444242707Y-242681726D03*
%TD*%
D59*
%TO.C,D8*%
X413777543Y-143229655D03*
X414862842Y-142054016D03*
X415948140Y-140878377D03*
X412347745Y-137554651D03*
X411262446Y-138730290D03*
X410177148Y-139905929D03*
%TD*%
D60*
%TO.C,D20*%
X434992137Y-268615430D03*
X436431038Y-269315119D03*
X437869938Y-270014809D03*
X440012737Y-265608176D03*
X438573836Y-264908487D03*
X437134936Y-264208797D03*
%TD*%
D19*
%TO.C,D66*%
X280950000Y-207800000D03*
X280950000Y-209400000D03*
X280950000Y-211000000D03*
X285850000Y-211000000D03*
X285850000Y-209400000D03*
X285850000Y-207800000D03*
%TD*%
D21*
%TO.C,H4*%
X235000000Y-325200000D03*
%TD*%
D61*
%TO.C,D50*%
X247719133Y-166797739D03*
X246319509Y-166022463D03*
X244919884Y-165247188D03*
X242545603Y-169533537D03*
X243945227Y-170308813D03*
X245344852Y-171084088D03*
%TD*%
D62*
%TO.C,D36*%
X279405149Y-307925846D03*
X278520673Y-309259151D03*
X277636197Y-310592456D03*
X281719443Y-313301164D03*
X282603919Y-311967859D03*
X283488395Y-310634554D03*
%TD*%
D19*
%TO.C,D93*%
X328050000Y-204999999D03*
X328050000Y-203399999D03*
X328050000Y-201799999D03*
X323150000Y-201799999D03*
X323150000Y-203399999D03*
X323150000Y-204999999D03*
%TD*%
%TO.C,D109*%
X291750001Y-207800000D03*
X291750001Y-209400000D03*
X291750001Y-211000000D03*
X296650001Y-211000000D03*
X296650001Y-209400000D03*
X296650001Y-207800000D03*
%TD*%
D18*
%TO.C,D173*%
X422600000Y-217750000D03*
X421000000Y-217750000D03*
X419400000Y-217750000D03*
X419400000Y-222650000D03*
X421000000Y-222650000D03*
X422600000Y-222650000D03*
%TD*%
D19*
%TO.C,D76*%
X254450000Y-244400000D03*
X254450000Y-242800000D03*
X254450000Y-241200000D03*
X249550000Y-241200000D03*
X249550000Y-242800000D03*
X249550000Y-244400000D03*
%TD*%
%TO.C,D125*%
X388050000Y-217000000D03*
X388050000Y-215400000D03*
X388050000Y-213800000D03*
X383150000Y-213800000D03*
X383150000Y-215400000D03*
X383150000Y-217000000D03*
%TD*%
%TO.C,D139*%
X351750001Y-207800000D03*
X351750001Y-209400000D03*
X351750001Y-211000000D03*
X356650001Y-211000000D03*
X356650001Y-209400000D03*
X356650001Y-207800000D03*
%TD*%
%TO.C,D98*%
X323150000Y-235200000D03*
X323150000Y-236800000D03*
X323150000Y-238400000D03*
X328050000Y-238400000D03*
X328050000Y-236800000D03*
X328050000Y-235200000D03*
%TD*%
D63*
%TO.C,D47*%
X235616364Y-198483266D03*
X234044068Y-198186810D03*
X232471772Y-197890354D03*
X231563876Y-202705510D03*
X233136172Y-203001966D03*
X234708468Y-203298422D03*
%TD*%
D64*
%TO.C,D26*%
X387377962Y-315713815D03*
X388115713Y-317133576D03*
X388853464Y-318553338D03*
X393201484Y-316293975D03*
X392463733Y-314874214D03*
X391725982Y-313454452D03*
%TD*%
D19*
%TO.C,D106*%
X296650001Y-232400000D03*
X296650001Y-230800000D03*
X296650001Y-229200000D03*
X291750001Y-229200000D03*
X291750001Y-230800000D03*
X291750001Y-232400000D03*
%TD*%
D18*
%TO.C,D88*%
X299200000Y-197050000D03*
X300800000Y-197050000D03*
X302400000Y-197050000D03*
X302400000Y-192150000D03*
X300800000Y-192150000D03*
X299200000Y-192150000D03*
%TD*%
D19*
%TO.C,D83*%
X249550000Y-195800000D03*
X249550000Y-197400000D03*
X249550000Y-199000000D03*
X254450000Y-199000000D03*
X254450000Y-197400000D03*
X254450000Y-195800000D03*
%TD*%
D65*
%TO.C,D31*%
X332329624Y-326542490D03*
X332244473Y-328140223D03*
X332159322Y-329737956D03*
X337052378Y-329998732D03*
X337137529Y-328400999D03*
X337222680Y-326803266D03*
%TD*%
D66*
%TO.C,D33*%
X310024012Y-322518132D03*
X309603052Y-324061762D03*
X309182092Y-325605392D03*
X313909458Y-326894582D03*
X314330418Y-325350952D03*
X314751378Y-323807322D03*
%TD*%
D67*
%TO.C,D55*%
X287605503Y-127343246D03*
X286793232Y-125964763D03*
X285980960Y-124586280D03*
X281759357Y-127073862D03*
X282571628Y-128452345D03*
X283383900Y-129830828D03*
%TD*%
D68*
%TO.C,D6*%
X395840243Y-129373642D03*
X396652508Y-127995155D03*
X397464773Y-126616668D03*
X393243157Y-124129108D03*
X392430892Y-125507595D03*
X391618627Y-126886082D03*
%TD*%
D19*
%TO.C,D96*%
X323150000Y-223200000D03*
X323150000Y-224800000D03*
X323150000Y-226400000D03*
X328050000Y-226400000D03*
X328050000Y-224800000D03*
X328050000Y-223200000D03*
%TD*%
%TO.C,D108*%
X296650001Y-217000000D03*
X296650001Y-215400000D03*
X296650001Y-213800000D03*
X291750001Y-213800000D03*
X291750001Y-215400000D03*
X291750001Y-217000000D03*
%TD*%
D69*
%TO.C,D54*%
X278032268Y-133438486D03*
X277078075Y-132154152D03*
X276123881Y-130869818D03*
X272190608Y-133792036D03*
X273144801Y-135076370D03*
X274098995Y-136360704D03*
%TD*%
D19*
%TO.C,D156*%
X425350000Y-235200000D03*
X425350000Y-236800000D03*
X425350000Y-238400000D03*
X430250000Y-238400000D03*
X430250000Y-236800000D03*
X430250000Y-235200000D03*
%TD*%
D70*
%TO.C,D56*%
X297772389Y-122300108D03*
X297111242Y-120843096D03*
X296450096Y-119386083D03*
X291987995Y-121410844D03*
X292649142Y-122867856D03*
X293310288Y-124324869D03*
%TD*%
D71*
%TO.C,D39*%
X254918765Y-284455298D03*
X253660285Y-285443342D03*
X252401806Y-286431385D03*
X255427689Y-290285478D03*
X256686169Y-289297434D03*
X257944648Y-288309391D03*
%TD*%
D19*
%TO.C,D167*%
X393950001Y-207800000D03*
X393950001Y-209400000D03*
X393950001Y-211000000D03*
X398850001Y-211000000D03*
X398850001Y-209400000D03*
X398850001Y-207800000D03*
%TD*%
D18*
%TO.C,D170*%
X401400000Y-222650000D03*
X403000000Y-222650000D03*
X404600000Y-222650000D03*
X404600000Y-217750000D03*
X403000000Y-217750000D03*
X401400000Y-217750000D03*
%TD*%
D19*
%TO.C,D1*%
X342000000Y-113600000D03*
X342000000Y-112000000D03*
X342000000Y-110400000D03*
X337100000Y-110400000D03*
X337100000Y-112000000D03*
X337100000Y-113600000D03*
%TD*%
%TO.C,D79*%
X249550000Y-223200000D03*
X249550000Y-224800000D03*
X249550000Y-226400000D03*
X254450000Y-226400000D03*
X254450000Y-224800000D03*
X254450000Y-223200000D03*
%TD*%
D18*
%TO.C,D119*%
X368600000Y-192150000D03*
X367000000Y-192150000D03*
X365400000Y-192150000D03*
X365400000Y-197050000D03*
X367000000Y-197050000D03*
X368600000Y-197050000D03*
%TD*%
D72*
%TO.C,D11*%
X434218804Y-170296322D03*
X435618424Y-169521040D03*
X437018045Y-168745757D03*
X434643742Y-164459420D03*
X433244122Y-165234702D03*
X431844501Y-166009985D03*
%TD*%
D19*
%TO.C,D105*%
X291750001Y-235200000D03*
X291750001Y-236800000D03*
X291750001Y-238400000D03*
X296650001Y-238400000D03*
X296650001Y-236800000D03*
X296650001Y-235200000D03*
%TD*%
D73*
%TO.C,D4*%
X375379347Y-119622360D03*
X375881869Y-118103323D03*
X376384392Y-116584287D03*
X371732343Y-115045312D03*
X371229821Y-116564349D03*
X370727298Y-118083385D03*
%TD*%
D19*
%TO.C,D124*%
X383150000Y-207799999D03*
X383150000Y-209399999D03*
X383150000Y-210999999D03*
X388050000Y-210999999D03*
X388050000Y-209399999D03*
X388050000Y-207799999D03*
%TD*%
%TO.C,D154*%
X425350000Y-223200000D03*
X425350000Y-224800000D03*
X425350000Y-226400000D03*
X430250000Y-226400000D03*
X430250000Y-224800000D03*
X430250000Y-223200000D03*
%TD*%
D74*
%TO.C,D28*%
X366117438Y-323570399D03*
X366538405Y-325114027D03*
X366959373Y-326657654D03*
X371686732Y-325368441D03*
X371265765Y-323824813D03*
X370844797Y-322281186D03*
%TD*%
D19*
%TO.C,D116*%
X342400000Y-214000000D03*
X342400000Y-212400000D03*
X342400000Y-210800000D03*
X337500000Y-210800000D03*
X337500000Y-212400000D03*
X337500000Y-214000000D03*
%TD*%
D75*
%TO.C,D45*%
X233384540Y-221038859D03*
X231785107Y-221081455D03*
X230185675Y-221124056D03*
X230316134Y-226022319D03*
X231915567Y-225979723D03*
X233514999Y-225937122D03*
%TD*%
D18*
%TO.C,D171*%
X410600000Y-217750000D03*
X409000000Y-217750000D03*
X407400000Y-217750000D03*
X407400000Y-222650000D03*
X409000000Y-222650000D03*
X410600000Y-222650000D03*
%TD*%
D19*
%TO.C,D128*%
X383150000Y-235200000D03*
X383150000Y-236800000D03*
X383150000Y-238400000D03*
X388050000Y-238400000D03*
X388050000Y-236800000D03*
X388050000Y-235200000D03*
%TD*%
D18*
%TO.C,D172*%
X413400000Y-222650000D03*
X415000000Y-222650000D03*
X416600000Y-222650000D03*
X416600000Y-217750000D03*
X415000000Y-217750000D03*
X413400000Y-217750000D03*
%TD*%
%TO.C,D85*%
X266200000Y-217750000D03*
X264600000Y-217750000D03*
X263000000Y-217750000D03*
X263000000Y-222650000D03*
X264600000Y-222650000D03*
X266200000Y-222650000D03*
%TD*%
D76*
%TO.C,D9*%
X421541020Y-151507772D03*
X422745132Y-150454153D03*
X423949245Y-149400534D03*
X420722536Y-145712940D03*
X419518424Y-146766559D03*
X418314311Y-147820178D03*
%TD*%
D19*
%TO.C,D138*%
X356650001Y-217000000D03*
X356650001Y-215400000D03*
X356650001Y-213800000D03*
X351750001Y-213800000D03*
X351750001Y-215400000D03*
X351750001Y-217000000D03*
%TD*%
D77*
%TO.C,R5*%
X265298600Y-329650937D03*
X265298600Y-331300937D03*
%TD*%
%TO.C,R3*%
X244851600Y-331261000D03*
X244851600Y-329611000D03*
%TD*%
%TO.C,R6*%
X265294000Y-332698937D03*
X265294000Y-334348937D03*
%TD*%
%TO.C,R4*%
X244847000Y-334295800D03*
X244847000Y-332645800D03*
%TD*%
D78*
%TO.C,D3*%
X364488175Y-116431559D03*
X364826388Y-114867714D03*
X365164600Y-113303870D03*
X360375325Y-112268095D03*
X360037112Y-113831940D03*
X359698900Y-115395784D03*
%TD*%
D79*
%TO.C,D13*%
X442638544Y-191340177D03*
X444170419Y-190878268D03*
X445702293Y-190416360D03*
X444287698Y-185724993D03*
X442755823Y-186186902D03*
X441223949Y-186648810D03*
%TD*%
D19*
%TO.C,D81*%
X249550000Y-207800000D03*
X249550000Y-209400000D03*
X249550000Y-211000000D03*
X254450000Y-211000000D03*
X254450000Y-209400000D03*
X254450000Y-207800000D03*
%TD*%
M02*
