%TF.GenerationSoftware,KiCad,Pcbnew,8.0.9*%
%TF.CreationDate,2025-07-03T09:04:01+02:00*%
%TF.ProjectId,Project,50726f6a-6563-4742-9e6b-696361645f70,rev?*%
%TF.SameCoordinates,Original*%
%TF.FileFunction,Drillmap*%
%TF.FilePolarity,Positive*%
%FSLAX45Y45*%
G04 Gerber Fmt 4.5, Leading zero omitted, Abs format (unit mm)*
G04 Created by KiCad (PCBNEW 8.0.9) date 2025-07-03 09:04:01*
%MOMM*%
%LPD*%
G01*
G04 APERTURE LIST*
%ADD10C,0.300000*%
%ADD11C,0.100000*%
%ADD12C,0.200000*%
G04 APERTURE END LIST*
D10*
X22457940Y-10530160D02*
X45457940Y-10530160D01*
X45457940Y-33530160D01*
X22457940Y-33530160D01*
X22457940Y-10530160D01*
D11*
X25249940Y-32906714D02*
G75*
G02*
X25184940Y-32906714I-32500J0D01*
G01*
X25184940Y-32906714D02*
G75*
G02*
X25249940Y-32906714I32500J0D01*
G01*
X25827940Y-32906714D02*
G75*
G02*
X25762940Y-32906714I-32500J0D01*
G01*
X25762940Y-32906714D02*
G75*
G02*
X25827940Y-32906714I32500J0D01*
G01*
D12*
D11*
X23163511Y-22093146D02*
X23193511Y-22123146D01*
X23193511Y-22093146D02*
X23163511Y-22123146D01*
X23176354Y-21430832D02*
X23206354Y-21460832D01*
X23206354Y-21430832D02*
X23176354Y-21460832D01*
X23176557Y-22582972D02*
X23206557Y-22612972D01*
X23206557Y-22582972D02*
X23176557Y-22612972D01*
X23215447Y-20942394D02*
X23245447Y-20972394D01*
X23245447Y-20942394D02*
X23215447Y-20972394D01*
X23234186Y-23242899D02*
X23264186Y-23272899D01*
X23264186Y-23242899D02*
X23234186Y-23272899D01*
X23298617Y-20285197D02*
X23328617Y-20315197D01*
X23328617Y-20285197D02*
X23298617Y-20315197D01*
X23299223Y-23728564D02*
X23329223Y-23758564D01*
X23329223Y-23728564D02*
X23299223Y-23758564D01*
X23389407Y-19803681D02*
X23419407Y-19833681D01*
X23419407Y-19803681D02*
X23389407Y-19833681D01*
X23395200Y-29329120D02*
X23425200Y-29359120D01*
X23425200Y-29329120D02*
X23395200Y-29359120D01*
X23395200Y-31079120D02*
X23425200Y-31109120D01*
X23425200Y-31079120D02*
X23395200Y-31109120D01*
X23426672Y-24378627D02*
X23456672Y-24408627D01*
X23456672Y-24378627D02*
X23426672Y-24408627D01*
X23522740Y-28921420D02*
X23552740Y-28951420D01*
X23552740Y-28921420D02*
X23522740Y-28951420D01*
X23541961Y-19159048D02*
X23571961Y-19189048D01*
X23571961Y-19159048D02*
X23541961Y-19189048D01*
X23542964Y-24854627D02*
X23572964Y-24884627D01*
X23572964Y-24854627D02*
X23542964Y-24884627D01*
X23649200Y-29329120D02*
X23679200Y-29359120D01*
X23679200Y-29329120D02*
X23649200Y-29359120D01*
X23683419Y-18689910D02*
X23713419Y-18719910D01*
X23713419Y-18689910D02*
X23683419Y-18719910D01*
X23738788Y-25487460D02*
X23768788Y-25517460D01*
X23768788Y-25487460D02*
X23738788Y-25517460D01*
X23903629Y-18065144D02*
X23933629Y-18095144D01*
X23933629Y-18065144D02*
X23903629Y-18095144D01*
X23905016Y-25948403D02*
X23935016Y-25978403D01*
X23935016Y-25948403D02*
X23905016Y-25978403D01*
X24027200Y-29914120D02*
X24057200Y-29944120D01*
X24057200Y-29914120D02*
X24027200Y-29944120D01*
X24027200Y-30054120D02*
X24057200Y-30084120D01*
X24057200Y-30054120D02*
X24027200Y-30084120D01*
X24027200Y-30194120D02*
X24057200Y-30224120D01*
X24057200Y-30194120D02*
X24027200Y-30224120D01*
X24094151Y-17613701D02*
X24124151Y-17643701D01*
X24124151Y-17613701D02*
X24094151Y-17643701D01*
X24166997Y-26556836D02*
X24196997Y-26586836D01*
X24196997Y-26556836D02*
X24166997Y-26586836D01*
X24167200Y-29914120D02*
X24197200Y-29944120D01*
X24197200Y-29914120D02*
X24167200Y-29944120D01*
X24167200Y-30054120D02*
X24197200Y-30084120D01*
X24197200Y-30054120D02*
X24167200Y-30084120D01*
X24167200Y-30194120D02*
X24197200Y-30224120D01*
X24197200Y-30194120D02*
X24167200Y-30224120D01*
X24307200Y-29914120D02*
X24337200Y-29944120D01*
X24337200Y-29914120D02*
X24307200Y-29944120D01*
X24307200Y-30054120D02*
X24337200Y-30084120D01*
X24337200Y-30054120D02*
X24307200Y-30084120D01*
X24307200Y-30194120D02*
X24337200Y-30224120D01*
X24337200Y-30194120D02*
X24307200Y-30224120D01*
X24343080Y-31954280D02*
X24373080Y-31984280D01*
X24373080Y-31954280D02*
X24343080Y-31984280D01*
X24379523Y-17015881D02*
X24409523Y-17045881D01*
X24409523Y-17015881D02*
X24379523Y-17045881D01*
X24381279Y-26997499D02*
X24411279Y-27027499D01*
X24411279Y-26997499D02*
X24381279Y-27027499D01*
X24426980Y-32406074D02*
X24456980Y-32436074D01*
X24456980Y-32406074D02*
X24426980Y-32436074D01*
X24476360Y-32613234D02*
X24506360Y-32643234D01*
X24506360Y-32613234D02*
X24476360Y-32643234D01*
X24616951Y-16587246D02*
X24646951Y-16617246D01*
X24646951Y-16587246D02*
X24616951Y-16617246D01*
X24706448Y-27574638D02*
X24736448Y-27604638D01*
X24736448Y-27574638D02*
X24706448Y-27604638D01*
X24729410Y-33018474D02*
X24759410Y-33048474D01*
X24759410Y-33018474D02*
X24729410Y-33048474D01*
X24752100Y-32832794D02*
X24782100Y-32862794D01*
X24782100Y-32832794D02*
X24752100Y-32862794D01*
X24940000Y-19725000D02*
X24970000Y-19755000D01*
X24970000Y-19725000D02*
X24940000Y-19755000D01*
X24940000Y-20325000D02*
X24970000Y-20355000D01*
X24970000Y-20325000D02*
X24940000Y-20355000D01*
X24940000Y-20925000D02*
X24970000Y-20955000D01*
X24970000Y-20925000D02*
X24940000Y-20955000D01*
X24940000Y-21525000D02*
X24970000Y-21555000D01*
X24970000Y-21525000D02*
X24940000Y-21555000D01*
X24940000Y-22465000D02*
X24970000Y-22495000D01*
X24970000Y-22465000D02*
X24940000Y-22495000D01*
X24940000Y-23065000D02*
X24970000Y-23095000D01*
X24970000Y-23065000D02*
X24940000Y-23095000D01*
X24940000Y-23665000D02*
X24970000Y-23695000D01*
X24970000Y-23665000D02*
X24940000Y-23695000D01*
X24940000Y-24265000D02*
X24970000Y-24295000D01*
X24970000Y-24265000D02*
X24940000Y-24295000D01*
X24964250Y-16023147D02*
X24994250Y-16053147D01*
X24994250Y-16023147D02*
X24964250Y-16053147D01*
X24966356Y-27990027D02*
X24996356Y-28020027D01*
X24996356Y-27990027D02*
X24966356Y-28020027D01*
X24973080Y-32184280D02*
X25003080Y-32214280D01*
X25003080Y-32184280D02*
X24973080Y-32214280D01*
X25025200Y-32594034D02*
X25055200Y-32624034D01*
X25055200Y-32594034D02*
X25025200Y-32624034D01*
X25046200Y-31079120D02*
X25076200Y-31109120D01*
X25076200Y-31079120D02*
X25046200Y-31109120D01*
X25061980Y-32380674D02*
X25091980Y-32410674D01*
X25091980Y-32380674D02*
X25061980Y-32410674D01*
X25245894Y-15622177D02*
X25275894Y-15652177D01*
X25275894Y-15622177D02*
X25245894Y-15652177D01*
X25249940Y-32444174D02*
X25279940Y-32474174D01*
X25279940Y-32444174D02*
X25249940Y-32474174D01*
X25351028Y-28529334D02*
X25381028Y-28559334D01*
X25381028Y-28529334D02*
X25351028Y-28559334D01*
X25355350Y-32600384D02*
X25385350Y-32630384D01*
X25385350Y-32600384D02*
X25355350Y-32630384D01*
X25430000Y-19725000D02*
X25460000Y-19755000D01*
X25460000Y-19725000D02*
X25430000Y-19755000D01*
X25430000Y-20325000D02*
X25460000Y-20355000D01*
X25460000Y-20325000D02*
X25430000Y-20355000D01*
X25430000Y-20925000D02*
X25460000Y-20955000D01*
X25460000Y-20925000D02*
X25430000Y-20955000D01*
X25430000Y-21525000D02*
X25460000Y-21555000D01*
X25460000Y-21525000D02*
X25430000Y-21555000D01*
X25430000Y-22465000D02*
X25460000Y-22495000D01*
X25460000Y-22465000D02*
X25430000Y-22495000D01*
X25430000Y-23065000D02*
X25460000Y-23095000D01*
X25460000Y-23065000D02*
X25430000Y-23095000D01*
X25430000Y-23665000D02*
X25460000Y-23695000D01*
X25460000Y-23665000D02*
X25430000Y-23695000D01*
X25430000Y-24265000D02*
X25460000Y-24295000D01*
X25460000Y-24265000D02*
X25430000Y-24295000D01*
X25517692Y-32566807D02*
X25547692Y-32596807D01*
X25547692Y-32566807D02*
X25517692Y-32596807D01*
X25517692Y-32651807D02*
X25547692Y-32681807D01*
X25547692Y-32651807D02*
X25517692Y-32681807D01*
X25651186Y-15098189D02*
X25681186Y-15128189D01*
X25681186Y-15098189D02*
X25651186Y-15128189D01*
X25653617Y-28914743D02*
X25683617Y-28944743D01*
X25683617Y-28914743D02*
X25653617Y-28944743D01*
X25675390Y-32605464D02*
X25705390Y-32635464D01*
X25705390Y-32605464D02*
X25675390Y-32635464D01*
X25685000Y-19200000D02*
X25715000Y-19230000D01*
X25715000Y-19200000D02*
X25685000Y-19230000D01*
X25747780Y-32446714D02*
X25777780Y-32476714D01*
X25777780Y-32446714D02*
X25747780Y-32476714D01*
X25845000Y-19188140D02*
X25875000Y-19218140D01*
X25875000Y-19188140D02*
X25845000Y-19218140D01*
X25845000Y-19690000D02*
X25875000Y-19720000D01*
X25875000Y-19690000D02*
X25845000Y-19720000D01*
X25845000Y-21760000D02*
X25875000Y-21790000D01*
X25875000Y-21760000D02*
X25845000Y-21790000D01*
X25845000Y-22250000D02*
X25875000Y-22280000D01*
X25875000Y-22250000D02*
X25845000Y-22280000D01*
X25845000Y-24280000D02*
X25875000Y-24310000D01*
X25875000Y-24280000D02*
X25845000Y-24310000D01*
X25845000Y-24770000D02*
X25875000Y-24800000D01*
X25875000Y-24770000D02*
X25845000Y-24800000D01*
X25924460Y-32384334D02*
X25954460Y-32414334D01*
X25954460Y-32384334D02*
X25924460Y-32414334D01*
X25957280Y-32596574D02*
X25987280Y-32626574D01*
X25987280Y-32596574D02*
X25957280Y-32626574D01*
X25973855Y-14729428D02*
X26003855Y-14759428D01*
X26003855Y-14729428D02*
X25973855Y-14759428D01*
X26093435Y-29410107D02*
X26123435Y-29440107D01*
X26123435Y-29410107D02*
X26093435Y-29440107D01*
X26258320Y-33013494D02*
X26288320Y-33043494D01*
X26288320Y-33013494D02*
X26258320Y-33043494D01*
X26432547Y-14251488D02*
X26462547Y-14281488D01*
X26462547Y-14251488D02*
X26432547Y-14281488D01*
X26435276Y-29761169D02*
X26465276Y-29791169D01*
X26465276Y-29761169D02*
X26435276Y-29791169D01*
X26445000Y-21760000D02*
X26475000Y-21790000D01*
X26475000Y-21760000D02*
X26445000Y-21790000D01*
X26445000Y-22250000D02*
X26475000Y-22280000D01*
X26475000Y-22250000D02*
X26445000Y-22280000D01*
X26445000Y-24280000D02*
X26475000Y-24310000D01*
X26475000Y-24280000D02*
X26445000Y-24310000D01*
X26445000Y-24770000D02*
X26475000Y-24800000D01*
X26475000Y-24770000D02*
X26445000Y-24800000D01*
X26465000Y-19200000D02*
X26495000Y-19230000D01*
X26495000Y-19200000D02*
X26465000Y-19230000D01*
X26465000Y-19696140D02*
X26495000Y-19726140D01*
X26495000Y-19696140D02*
X26465000Y-19726140D01*
X26792585Y-13919113D02*
X26822585Y-13949113D01*
X26822585Y-13919113D02*
X26792585Y-13949113D01*
X26925256Y-30206977D02*
X26955256Y-30236977D01*
X26955256Y-30206977D02*
X26925256Y-30236977D01*
X27045000Y-19200000D02*
X27075000Y-19230000D01*
X27075000Y-19200000D02*
X27045000Y-19230000D01*
X27045000Y-19690000D02*
X27075000Y-19720000D01*
X27075000Y-19690000D02*
X27045000Y-19720000D01*
X27045000Y-21760000D02*
X27075000Y-21790000D01*
X27075000Y-21760000D02*
X27045000Y-21790000D01*
X27045000Y-22250000D02*
X27075000Y-22280000D01*
X27075000Y-22250000D02*
X27045000Y-22280000D01*
X27045000Y-24280000D02*
X27075000Y-24310000D01*
X27075000Y-24280000D02*
X27045000Y-24310000D01*
X27045000Y-24770000D02*
X27075000Y-24800000D01*
X27075000Y-24770000D02*
X27045000Y-24800000D01*
X27299480Y-13492637D02*
X27329480Y-13522637D01*
X27329480Y-13492637D02*
X27299480Y-13522637D01*
X27302476Y-30519715D02*
X27332476Y-30549715D01*
X27332476Y-30519715D02*
X27302476Y-30549715D01*
X27645000Y-19200000D02*
X27675000Y-19230000D01*
X27675000Y-19200000D02*
X27645000Y-19230000D01*
X27645000Y-19690000D02*
X27675000Y-19720000D01*
X27675000Y-19690000D02*
X27645000Y-19720000D01*
X27645000Y-21760000D02*
X27675000Y-21790000D01*
X27675000Y-21760000D02*
X27645000Y-21790000D01*
X27645000Y-22250000D02*
X27675000Y-22280000D01*
X27675000Y-22250000D02*
X27645000Y-22280000D01*
X27645000Y-24280000D02*
X27675000Y-24310000D01*
X27675000Y-24280000D02*
X27645000Y-24310000D01*
X27645000Y-24770000D02*
X27675000Y-24800000D01*
X27675000Y-24770000D02*
X27645000Y-24800000D01*
X27692807Y-13200415D02*
X27722807Y-13230415D01*
X27722807Y-13200415D02*
X27692807Y-13230415D01*
X27837067Y-30910915D02*
X27867067Y-30940915D01*
X27867067Y-30910915D02*
X27837067Y-30940915D01*
X28080000Y-19725000D02*
X28110000Y-19755000D01*
X28110000Y-19725000D02*
X28080000Y-19755000D01*
X28080000Y-20325000D02*
X28110000Y-20355000D01*
X28110000Y-20325000D02*
X28080000Y-20355000D01*
X28080000Y-20925000D02*
X28110000Y-20955000D01*
X28110000Y-20925000D02*
X28080000Y-20955000D01*
X28080000Y-21525000D02*
X28110000Y-21555000D01*
X28110000Y-21525000D02*
X28080000Y-21555000D01*
X28080000Y-22465000D02*
X28110000Y-22495000D01*
X28110000Y-22465000D02*
X28080000Y-22495000D01*
X28080000Y-23065000D02*
X28110000Y-23095000D01*
X28110000Y-23065000D02*
X28080000Y-23095000D01*
X28080000Y-23665000D02*
X28110000Y-23695000D01*
X28110000Y-23665000D02*
X28080000Y-23695000D01*
X28080000Y-24265000D02*
X28110000Y-24295000D01*
X28110000Y-24265000D02*
X28080000Y-24295000D01*
X28185000Y-22025000D02*
X28215000Y-22055000D01*
X28215000Y-22025000D02*
X28185000Y-22055000D01*
X28242163Y-12830234D02*
X28272163Y-12860234D01*
X28272163Y-12830234D02*
X28242163Y-12860234D01*
X28245392Y-31181786D02*
X28275392Y-31211786D01*
X28275392Y-31181786D02*
X28245392Y-31211786D01*
X28570000Y-19725000D02*
X28600000Y-19755000D01*
X28600000Y-19725000D02*
X28570000Y-19755000D01*
X28570000Y-20325000D02*
X28600000Y-20355000D01*
X28600000Y-20325000D02*
X28570000Y-20355000D01*
X28570000Y-20925000D02*
X28600000Y-20955000D01*
X28600000Y-20925000D02*
X28570000Y-20955000D01*
X28570000Y-21525000D02*
X28600000Y-21555000D01*
X28600000Y-21525000D02*
X28570000Y-21555000D01*
X28570000Y-22465000D02*
X28600000Y-22495000D01*
X28600000Y-22465000D02*
X28570000Y-22495000D01*
X28570000Y-23065000D02*
X28600000Y-23095000D01*
X28600000Y-23065000D02*
X28570000Y-23095000D01*
X28570000Y-23665000D02*
X28600000Y-23695000D01*
X28600000Y-23665000D02*
X28570000Y-23695000D01*
X28570000Y-24265000D02*
X28600000Y-24295000D01*
X28600000Y-24265000D02*
X28570000Y-24295000D01*
X28664323Y-12581476D02*
X28694323Y-12611476D01*
X28694323Y-12581476D02*
X28664323Y-12611476D01*
X28818536Y-31513946D02*
X28848536Y-31543946D01*
X28848536Y-31513946D02*
X28818536Y-31543946D01*
X29160000Y-19725000D02*
X29190000Y-19755000D01*
X29190000Y-19725000D02*
X29160000Y-19755000D01*
X29160000Y-20325000D02*
X29190000Y-20355000D01*
X29190000Y-20325000D02*
X29160000Y-20355000D01*
X29160000Y-20925000D02*
X29190000Y-20955000D01*
X29190000Y-20925000D02*
X29160000Y-20955000D01*
X29160000Y-21525000D02*
X29190000Y-21555000D01*
X29190000Y-21525000D02*
X29160000Y-21555000D01*
X29160000Y-22465000D02*
X29190000Y-22495000D01*
X29190000Y-22465000D02*
X29160000Y-22495000D01*
X29160000Y-23065000D02*
X29190000Y-23095000D01*
X29190000Y-23065000D02*
X29160000Y-23095000D01*
X29160000Y-23665000D02*
X29190000Y-23695000D01*
X29190000Y-23665000D02*
X29160000Y-23695000D01*
X29160000Y-24265000D02*
X29190000Y-24295000D01*
X29190000Y-24265000D02*
X29160000Y-24295000D01*
X29249914Y-12271786D02*
X29279914Y-12301786D01*
X29279914Y-12271786D02*
X29249914Y-12301786D01*
X29253340Y-31739880D02*
X29283340Y-31769880D01*
X29283340Y-31739880D02*
X29253340Y-31769880D01*
X29650000Y-19725000D02*
X29680000Y-19755000D01*
X29680000Y-19725000D02*
X29650000Y-19755000D01*
X29650000Y-20325000D02*
X29680000Y-20355000D01*
X29680000Y-20325000D02*
X29650000Y-20355000D01*
X29650000Y-20925000D02*
X29680000Y-20955000D01*
X29680000Y-20925000D02*
X29650000Y-20955000D01*
X29650000Y-21525000D02*
X29680000Y-21555000D01*
X29680000Y-21525000D02*
X29650000Y-21555000D01*
X29650000Y-22465000D02*
X29680000Y-22495000D01*
X29680000Y-22465000D02*
X29650000Y-22495000D01*
X29650000Y-23065000D02*
X29680000Y-23095000D01*
X29680000Y-23065000D02*
X29650000Y-23095000D01*
X29650000Y-23665000D02*
X29680000Y-23695000D01*
X29680000Y-23665000D02*
X29650000Y-23695000D01*
X29650000Y-24265000D02*
X29680000Y-24295000D01*
X29680000Y-24265000D02*
X29650000Y-24295000D01*
X29696124Y-12069310D02*
X29726124Y-12099310D01*
X29726124Y-12069310D02*
X29696124Y-12099310D01*
X29858544Y-32009237D02*
X29888544Y-32039237D01*
X29888544Y-32009237D02*
X29858544Y-32039237D01*
X29905000Y-19305000D02*
X29935000Y-19335000D01*
X29935000Y-19305000D02*
X29905000Y-19335000D01*
X30065000Y-19200000D02*
X30095000Y-19230000D01*
X30095000Y-19200000D02*
X30065000Y-19230000D01*
X30065000Y-19690000D02*
X30095000Y-19720000D01*
X30095000Y-19690000D02*
X30065000Y-19720000D01*
X30065000Y-21760000D02*
X30095000Y-21790000D01*
X30095000Y-21760000D02*
X30065000Y-21790000D01*
X30065000Y-22250000D02*
X30095000Y-22280000D01*
X30095000Y-22250000D02*
X30065000Y-22280000D01*
X30065000Y-24280000D02*
X30095000Y-24310000D01*
X30095000Y-24280000D02*
X30065000Y-24310000D01*
X30065000Y-24770000D02*
X30095000Y-24800000D01*
X30095000Y-24770000D02*
X30065000Y-24800000D01*
X30311316Y-11823618D02*
X30341316Y-11853618D01*
X30341316Y-11823618D02*
X30311316Y-11853618D01*
X30314899Y-32187674D02*
X30344899Y-32217674D01*
X30344899Y-32187674D02*
X30314899Y-32217674D01*
X30665000Y-21760000D02*
X30695000Y-21790000D01*
X30695000Y-21760000D02*
X30665000Y-21790000D01*
X30665000Y-22250000D02*
X30695000Y-22280000D01*
X30695000Y-22250000D02*
X30665000Y-22280000D01*
X30665000Y-24280000D02*
X30695000Y-24310000D01*
X30695000Y-24280000D02*
X30665000Y-24310000D01*
X30665000Y-24770000D02*
X30695000Y-24800000D01*
X30695000Y-24770000D02*
X30665000Y-24800000D01*
X30685000Y-19200000D02*
X30715000Y-19230000D01*
X30715000Y-19200000D02*
X30685000Y-19230000D01*
X30685000Y-19690000D02*
X30715000Y-19720000D01*
X30715000Y-19690000D02*
X30685000Y-19720000D01*
X30776520Y-11669718D02*
X30806520Y-11699718D01*
X30806520Y-11669718D02*
X30776520Y-11699718D01*
X30945305Y-32391176D02*
X30975305Y-32421176D01*
X30975305Y-32391176D02*
X30945305Y-32421176D01*
X31265000Y-19690000D02*
X31295000Y-19720000D01*
X31295000Y-19690000D02*
X31265000Y-19720000D01*
X31265000Y-21760000D02*
X31295000Y-21790000D01*
X31295000Y-21760000D02*
X31265000Y-21790000D01*
X31265000Y-22250000D02*
X31295000Y-22280000D01*
X31295000Y-22250000D02*
X31265000Y-22280000D01*
X31265000Y-24280000D02*
X31295000Y-24310000D01*
X31295000Y-24280000D02*
X31265000Y-24310000D01*
X31265000Y-24770000D02*
X31295000Y-24800000D01*
X31295000Y-24770000D02*
X31265000Y-24800000D01*
X31414342Y-11490809D02*
X31444342Y-11520809D01*
X31444342Y-11490809D02*
X31414342Y-11520809D01*
X31418042Y-32520095D02*
X31448042Y-32550095D01*
X31448042Y-32520095D02*
X31418042Y-32550095D01*
X31705000Y-21845000D02*
X31735000Y-21875000D01*
X31735000Y-21845000D02*
X31705000Y-21875000D01*
X31865000Y-19200000D02*
X31895000Y-19230000D01*
X31895000Y-19200000D02*
X31865000Y-19230000D01*
X31865000Y-19690000D02*
X31895000Y-19720000D01*
X31895000Y-19690000D02*
X31865000Y-19720000D01*
X31865000Y-21760000D02*
X31895000Y-21790000D01*
X31895000Y-21760000D02*
X31865000Y-21790000D01*
X31865000Y-22250000D02*
X31895000Y-22280000D01*
X31895000Y-22250000D02*
X31865000Y-22280000D01*
X31865000Y-24280000D02*
X31895000Y-24310000D01*
X31895000Y-24280000D02*
X31865000Y-24310000D01*
X31865000Y-24770000D02*
X31895000Y-24800000D01*
X31895000Y-24770000D02*
X31865000Y-24800000D01*
X31893269Y-11387229D02*
X31923269Y-11417229D01*
X31923269Y-11387229D02*
X31893269Y-11417229D01*
X32066508Y-32655436D02*
X32096508Y-32685436D01*
X32096508Y-32655436D02*
X32066508Y-32685436D01*
X32300000Y-19725000D02*
X32330000Y-19755000D01*
X32330000Y-19725000D02*
X32300000Y-19755000D01*
X32300000Y-20325000D02*
X32330000Y-20355000D01*
X32330000Y-20325000D02*
X32300000Y-20355000D01*
X32300000Y-20925000D02*
X32330000Y-20955000D01*
X32330000Y-20925000D02*
X32300000Y-20955000D01*
X32300000Y-21525000D02*
X32330000Y-21555000D01*
X32330000Y-21525000D02*
X32300000Y-21555000D01*
X32300000Y-22465000D02*
X32330000Y-22495000D01*
X32330000Y-22465000D02*
X32300000Y-22495000D01*
X32300000Y-23065000D02*
X32330000Y-23095000D01*
X32330000Y-23065000D02*
X32300000Y-23095000D01*
X32300000Y-23665000D02*
X32330000Y-23695000D01*
X32330000Y-23665000D02*
X32300000Y-23695000D01*
X32300000Y-24265000D02*
X32330000Y-24295000D01*
X32330000Y-24265000D02*
X32300000Y-24295000D01*
X32546494Y-11277130D02*
X32576494Y-11307130D01*
X32576494Y-11277130D02*
X32546494Y-11307130D01*
X32550269Y-32733376D02*
X32580269Y-32763376D01*
X32580269Y-32733376D02*
X32550269Y-32763376D01*
X32790000Y-19725000D02*
X32820000Y-19755000D01*
X32820000Y-19725000D02*
X32790000Y-19755000D01*
X32790000Y-20325000D02*
X32820000Y-20355000D01*
X32820000Y-20325000D02*
X32790000Y-20355000D01*
X32790000Y-20925000D02*
X32820000Y-20955000D01*
X32820000Y-20925000D02*
X32790000Y-20955000D01*
X32790000Y-21525000D02*
X32820000Y-21555000D01*
X32820000Y-21525000D02*
X32790000Y-21555000D01*
X32790000Y-22465000D02*
X32820000Y-22495000D01*
X32820000Y-22465000D02*
X32790000Y-22495000D01*
X32790000Y-23065000D02*
X32820000Y-23095000D01*
X32820000Y-23065000D02*
X32790000Y-23095000D01*
X32790000Y-23665000D02*
X32820000Y-23695000D01*
X32820000Y-23665000D02*
X32790000Y-23695000D01*
X32790000Y-24265000D02*
X32820000Y-24295000D01*
X32820000Y-24265000D02*
X32790000Y-24295000D01*
X33033718Y-11225043D02*
X33063718Y-11255043D01*
X33063718Y-11225043D02*
X33033718Y-11255043D01*
X33209447Y-32799022D02*
X33239447Y-32829022D01*
X33239447Y-32799022D02*
X33209447Y-32829022D01*
X33625000Y-21065000D02*
X33655000Y-21095000D01*
X33655000Y-21065000D02*
X33625000Y-21095000D01*
X33645000Y-22920000D02*
X33675000Y-22950000D01*
X33675000Y-22920000D02*
X33645000Y-22950000D01*
X33695000Y-11025000D02*
X33725000Y-11055000D01*
X33725000Y-11025000D02*
X33695000Y-11055000D01*
X33695000Y-11185000D02*
X33725000Y-11215000D01*
X33725000Y-11185000D02*
X33695000Y-11215000D01*
X33698753Y-32825100D02*
X33728753Y-32855100D01*
X33728753Y-32825100D02*
X33698753Y-32855100D01*
X33735000Y-21225000D02*
X33765000Y-21255000D01*
X33765000Y-21225000D02*
X33735000Y-21255000D01*
X33735000Y-22760000D02*
X33765000Y-22790000D01*
X33765000Y-22760000D02*
X33735000Y-22790000D01*
X34185000Y-11185000D02*
X34215000Y-11215000D01*
X34215000Y-11185000D02*
X34185000Y-11215000D01*
X34225000Y-21225000D02*
X34255000Y-21255000D01*
X34255000Y-21225000D02*
X34225000Y-21255000D01*
X34225000Y-22760000D02*
X34255000Y-22790000D01*
X34255000Y-22760000D02*
X34225000Y-22790000D01*
X34361174Y-32820308D02*
X34391174Y-32850308D01*
X34391174Y-32820308D02*
X34361174Y-32850308D01*
X34846738Y-11215472D02*
X34876738Y-11245472D01*
X34876738Y-11215472D02*
X34846738Y-11245472D01*
X34850480Y-32794228D02*
X34880480Y-32824228D01*
X34880480Y-32794228D02*
X34850480Y-32824228D01*
X35160000Y-19725000D02*
X35190000Y-19755000D01*
X35190000Y-19725000D02*
X35160000Y-19755000D01*
X35160000Y-20325000D02*
X35190000Y-20355000D01*
X35190000Y-20325000D02*
X35160000Y-20355000D01*
X35160000Y-20925000D02*
X35190000Y-20955000D01*
X35190000Y-20925000D02*
X35160000Y-20955000D01*
X35160000Y-21525000D02*
X35190000Y-21555000D01*
X35190000Y-21525000D02*
X35160000Y-21555000D01*
X35160000Y-22465000D02*
X35190000Y-22495000D01*
X35190000Y-22465000D02*
X35160000Y-22495000D01*
X35160000Y-23065000D02*
X35190000Y-23095000D01*
X35190000Y-23065000D02*
X35160000Y-23095000D01*
X35160000Y-23665000D02*
X35190000Y-23695000D01*
X35190000Y-23665000D02*
X35160000Y-23695000D01*
X35160000Y-24265000D02*
X35190000Y-24295000D01*
X35190000Y-24265000D02*
X35160000Y-24295000D01*
X35333962Y-11267556D02*
X35363962Y-11297556D01*
X35363962Y-11267556D02*
X35333962Y-11297556D01*
X35508639Y-32719053D02*
X35538639Y-32749053D01*
X35538639Y-32719053D02*
X35508639Y-32749053D01*
X35650000Y-19725000D02*
X35680000Y-19755000D01*
X35680000Y-19725000D02*
X35650000Y-19755000D01*
X35650000Y-20325000D02*
X35680000Y-20355000D01*
X35680000Y-20325000D02*
X35650000Y-20355000D01*
X35650000Y-20925000D02*
X35680000Y-20955000D01*
X35680000Y-20925000D02*
X35650000Y-20955000D01*
X35650000Y-21525000D02*
X35680000Y-21555000D01*
X35680000Y-21525000D02*
X35650000Y-21555000D01*
X35650000Y-22465000D02*
X35680000Y-22495000D01*
X35680000Y-22465000D02*
X35650000Y-22495000D01*
X35650000Y-23065000D02*
X35680000Y-23095000D01*
X35680000Y-23065000D02*
X35650000Y-23095000D01*
X35650000Y-23665000D02*
X35680000Y-23695000D01*
X35680000Y-23665000D02*
X35650000Y-23695000D01*
X35650000Y-24265000D02*
X35680000Y-24295000D01*
X35680000Y-24265000D02*
X35650000Y-24295000D01*
X35935000Y-19355000D02*
X35965000Y-19385000D01*
X35965000Y-19355000D02*
X35935000Y-19385000D01*
X35988711Y-11368194D02*
X36018711Y-11398194D01*
X36018711Y-11368194D02*
X35988711Y-11398194D01*
X35992400Y-32641110D02*
X36022400Y-32671110D01*
X36022400Y-32641110D02*
X35992400Y-32671110D01*
X36065000Y-19200000D02*
X36095000Y-19230000D01*
X36095000Y-19200000D02*
X36065000Y-19230000D01*
X36065000Y-19690000D02*
X36095000Y-19720000D01*
X36095000Y-19690000D02*
X36065000Y-19720000D01*
X36065000Y-21760000D02*
X36095000Y-21790000D01*
X36095000Y-21760000D02*
X36065000Y-21790000D01*
X36065000Y-22250000D02*
X36095000Y-22280000D01*
X36095000Y-22250000D02*
X36065000Y-22280000D01*
X36065000Y-24280000D02*
X36095000Y-24310000D01*
X36095000Y-24280000D02*
X36065000Y-24310000D01*
X36065000Y-24770000D02*
X36095000Y-24800000D01*
X36095000Y-24770000D02*
X36065000Y-24800000D01*
X36467639Y-11471771D02*
X36497639Y-11501771D01*
X36497639Y-11471771D02*
X36467639Y-11501771D01*
X36638841Y-32496403D02*
X36668841Y-32526403D01*
X36668841Y-32496403D02*
X36638841Y-32526403D01*
X36665000Y-21760000D02*
X36695000Y-21790000D01*
X36695000Y-21760000D02*
X36665000Y-21790000D01*
X36665000Y-22250000D02*
X36695000Y-22280000D01*
X36695000Y-22250000D02*
X36665000Y-22280000D01*
X36665000Y-24280000D02*
X36695000Y-24310000D01*
X36695000Y-24280000D02*
X36665000Y-24310000D01*
X36665000Y-24770000D02*
X36695000Y-24800000D01*
X36695000Y-24770000D02*
X36665000Y-24800000D01*
X36685000Y-19200000D02*
X36715000Y-19230000D01*
X36715000Y-19200000D02*
X36685000Y-19230000D01*
X36685000Y-19690000D02*
X36715000Y-19720000D01*
X36715000Y-19690000D02*
X36685000Y-19720000D01*
X37107982Y-11641435D02*
X37137982Y-11671435D01*
X37137982Y-11641435D02*
X37107982Y-11671435D01*
X37111577Y-32367481D02*
X37141577Y-32397481D01*
X37141577Y-32367481D02*
X37111577Y-32397481D01*
X37265000Y-19200000D02*
X37295000Y-19230000D01*
X37295000Y-19200000D02*
X37265000Y-19230000D01*
X37265000Y-19690000D02*
X37295000Y-19720000D01*
X37295000Y-19690000D02*
X37265000Y-19720000D01*
X37265000Y-21760000D02*
X37295000Y-21790000D01*
X37295000Y-21760000D02*
X37265000Y-21790000D01*
X37265000Y-22250000D02*
X37295000Y-22280000D01*
X37295000Y-22250000D02*
X37265000Y-22280000D01*
X37265000Y-24280000D02*
X37295000Y-24310000D01*
X37295000Y-24280000D02*
X37265000Y-24310000D01*
X37265000Y-24770000D02*
X37295000Y-24800000D01*
X37295000Y-24770000D02*
X37265000Y-24800000D01*
X37573187Y-11795332D02*
X37603187Y-11825332D01*
X37603187Y-11795332D02*
X37573187Y-11825332D01*
X37705000Y-21845000D02*
X37735000Y-21875000D01*
X37735000Y-21845000D02*
X37705000Y-21875000D01*
X37738973Y-32154881D02*
X37768973Y-32184881D01*
X37768973Y-32154881D02*
X37738973Y-32184881D01*
X37865000Y-19200000D02*
X37895000Y-19230000D01*
X37895000Y-19200000D02*
X37865000Y-19230000D01*
X37865000Y-19690000D02*
X37895000Y-19720000D01*
X37895000Y-19690000D02*
X37865000Y-19720000D01*
X37865000Y-21760000D02*
X37895000Y-21790000D01*
X37895000Y-21760000D02*
X37865000Y-21790000D01*
X37865000Y-22250000D02*
X37895000Y-22280000D01*
X37895000Y-22250000D02*
X37865000Y-22280000D01*
X37865000Y-24280000D02*
X37895000Y-24310000D01*
X37895000Y-24280000D02*
X37865000Y-24310000D01*
X37865000Y-24770000D02*
X37895000Y-24800000D01*
X37895000Y-24770000D02*
X37865000Y-24800000D01*
X38191868Y-12032099D02*
X38221868Y-12062099D01*
X38221868Y-12032099D02*
X38191868Y-12062099D01*
X38195327Y-31976441D02*
X38225327Y-32006441D01*
X38225327Y-31976441D02*
X38195327Y-32006441D01*
X38300000Y-19725000D02*
X38330000Y-19755000D01*
X38330000Y-19725000D02*
X38300000Y-19755000D01*
X38300000Y-20325000D02*
X38330000Y-20355000D01*
X38330000Y-20325000D02*
X38300000Y-20355000D01*
X38300000Y-20925000D02*
X38330000Y-20955000D01*
X38330000Y-20925000D02*
X38300000Y-20955000D01*
X38300000Y-21525000D02*
X38330000Y-21555000D01*
X38330000Y-21525000D02*
X38300000Y-21555000D01*
X38300000Y-22465000D02*
X38330000Y-22495000D01*
X38330000Y-22465000D02*
X38300000Y-22495000D01*
X38300000Y-23065000D02*
X38330000Y-23095000D01*
X38330000Y-23065000D02*
X38300000Y-23095000D01*
X38300000Y-23665000D02*
X38330000Y-23695000D01*
X38330000Y-23665000D02*
X38300000Y-23695000D01*
X38300000Y-24265000D02*
X38330000Y-24295000D01*
X38330000Y-24265000D02*
X38300000Y-24295000D01*
X38638080Y-12234573D02*
X38668080Y-12264573D01*
X38668080Y-12234573D02*
X38638080Y-12264573D01*
X38790000Y-19725000D02*
X38820000Y-19755000D01*
X38820000Y-19725000D02*
X38790000Y-19755000D01*
X38790000Y-20325000D02*
X38820000Y-20355000D01*
X38820000Y-20325000D02*
X38790000Y-20355000D01*
X38790000Y-20925000D02*
X38820000Y-20955000D01*
X38820000Y-20925000D02*
X38790000Y-20955000D01*
X38790000Y-21525000D02*
X38820000Y-21555000D01*
X38820000Y-21525000D02*
X38790000Y-21555000D01*
X38790000Y-22465000D02*
X38820000Y-22495000D01*
X38820000Y-22465000D02*
X38790000Y-22495000D01*
X38790000Y-23065000D02*
X38820000Y-23095000D01*
X38820000Y-23065000D02*
X38790000Y-23095000D01*
X38790000Y-23665000D02*
X38820000Y-23695000D01*
X38820000Y-23665000D02*
X38790000Y-23695000D01*
X38790000Y-24265000D02*
X38820000Y-24295000D01*
X38820000Y-24265000D02*
X38790000Y-24295000D01*
X38796571Y-31698358D02*
X38826571Y-31728358D01*
X38826571Y-31698358D02*
X38796571Y-31728358D01*
X39228089Y-12535759D02*
X39258089Y-12565759D01*
X39258089Y-12535759D02*
X39228089Y-12565759D01*
X39231373Y-31472421D02*
X39261373Y-31502421D01*
X39261373Y-31472421D02*
X39231373Y-31502421D01*
X39380000Y-19725000D02*
X39410000Y-19755000D01*
X39410000Y-19725000D02*
X39380000Y-19755000D01*
X39380000Y-20325000D02*
X39410000Y-20355000D01*
X39410000Y-20325000D02*
X39380000Y-20355000D01*
X39380000Y-20925000D02*
X39410000Y-20955000D01*
X39410000Y-20925000D02*
X39380000Y-20955000D01*
X39380000Y-21525000D02*
X39410000Y-21555000D01*
X39410000Y-21525000D02*
X39380000Y-21555000D01*
X39380000Y-22465000D02*
X39410000Y-22495000D01*
X39410000Y-22465000D02*
X39380000Y-22495000D01*
X39380000Y-23065000D02*
X39410000Y-23095000D01*
X39410000Y-23065000D02*
X39380000Y-23095000D01*
X39380000Y-23665000D02*
X39410000Y-23695000D01*
X39410000Y-23665000D02*
X39380000Y-23695000D01*
X39380000Y-24265000D02*
X39410000Y-24295000D01*
X39410000Y-24265000D02*
X39380000Y-24295000D01*
X39650251Y-12784515D02*
X39680251Y-12814515D01*
X39680251Y-12784515D02*
X39650251Y-12814515D01*
X39799653Y-31132005D02*
X39829653Y-31162005D01*
X39829653Y-31132005D02*
X39799653Y-31162005D01*
X39870000Y-19725000D02*
X39900000Y-19755000D01*
X39900000Y-19725000D02*
X39870000Y-19755000D01*
X39870000Y-20325000D02*
X39900000Y-20355000D01*
X39900000Y-20325000D02*
X39870000Y-20355000D01*
X39870000Y-20925000D02*
X39900000Y-20955000D01*
X39900000Y-20925000D02*
X39870000Y-20955000D01*
X39870000Y-21525000D02*
X39900000Y-21555000D01*
X39900000Y-21525000D02*
X39870000Y-21555000D01*
X39870000Y-22465000D02*
X39900000Y-22495000D01*
X39900000Y-22465000D02*
X39870000Y-22495000D01*
X39870000Y-23065000D02*
X39900000Y-23095000D01*
X39900000Y-23065000D02*
X39870000Y-23095000D01*
X39870000Y-23665000D02*
X39900000Y-23695000D01*
X39900000Y-23665000D02*
X39870000Y-23695000D01*
X39870000Y-24265000D02*
X39900000Y-24295000D01*
X39900000Y-24265000D02*
X39870000Y-24295000D01*
X40125000Y-19305000D02*
X40155000Y-19335000D01*
X40155000Y-19305000D02*
X40125000Y-19335000D01*
X40204904Y-13146710D02*
X40234904Y-13176710D01*
X40234904Y-13146710D02*
X40204904Y-13176710D01*
X40207976Y-30861132D02*
X40237976Y-30891132D01*
X40237976Y-30861132D02*
X40207976Y-30891132D01*
X40285000Y-19200000D02*
X40315000Y-19230000D01*
X40315000Y-19200000D02*
X40285000Y-19230000D01*
X40285000Y-19690000D02*
X40315000Y-19720000D01*
X40315000Y-19690000D02*
X40285000Y-19720000D01*
X40285000Y-21760000D02*
X40315000Y-21790000D01*
X40315000Y-21760000D02*
X40285000Y-21790000D01*
X40285000Y-22250000D02*
X40315000Y-22280000D01*
X40315000Y-22250000D02*
X40285000Y-22280000D01*
X40285000Y-24280000D02*
X40315000Y-24310000D01*
X40315000Y-24280000D02*
X40285000Y-24310000D01*
X40285000Y-24770000D02*
X40315000Y-24800000D01*
X40315000Y-24770000D02*
X40285000Y-24800000D01*
X40598233Y-13438930D02*
X40628233Y-13468930D01*
X40628233Y-13438930D02*
X40598233Y-13468930D01*
X40736852Y-30462239D02*
X40766852Y-30492239D01*
X40766852Y-30462239D02*
X40736852Y-30492239D01*
X40885000Y-21760000D02*
X40915000Y-21790000D01*
X40915000Y-21760000D02*
X40885000Y-21790000D01*
X40885000Y-22250000D02*
X40915000Y-22280000D01*
X40915000Y-22250000D02*
X40885000Y-22280000D01*
X40885000Y-24280000D02*
X40915000Y-24310000D01*
X40915000Y-24280000D02*
X40885000Y-24310000D01*
X40885000Y-24770000D02*
X40915000Y-24800000D01*
X40915000Y-24770000D02*
X40885000Y-24800000D01*
X40905000Y-19200000D02*
X40935000Y-19230000D01*
X40935000Y-19200000D02*
X40905000Y-19230000D01*
X41111245Y-13858029D02*
X41141245Y-13888029D01*
X41141245Y-13858029D02*
X41111245Y-13888029D01*
X41114070Y-30149499D02*
X41144070Y-30179499D01*
X41144070Y-30149499D02*
X41114070Y-30179499D01*
X41471284Y-14190402D02*
X41501284Y-14220402D01*
X41501284Y-14190402D02*
X41471284Y-14220402D01*
X41485000Y-19200000D02*
X41515000Y-19230000D01*
X41515000Y-19200000D02*
X41485000Y-19230000D01*
X41485000Y-19690000D02*
X41515000Y-19720000D01*
X41515000Y-19690000D02*
X41485000Y-19720000D01*
X41485000Y-21760000D02*
X41515000Y-21790000D01*
X41515000Y-21760000D02*
X41485000Y-21790000D01*
X41485000Y-22250000D02*
X41515000Y-22280000D01*
X41515000Y-22250000D02*
X41485000Y-22280000D01*
X41485000Y-24280000D02*
X41515000Y-24310000D01*
X41515000Y-24280000D02*
X41485000Y-24310000D01*
X41485000Y-24770000D02*
X41515000Y-24800000D01*
X41515000Y-24770000D02*
X41485000Y-24800000D01*
X41597550Y-29696650D02*
X41627550Y-29726650D01*
X41627550Y-29696650D02*
X41597550Y-29726650D01*
X41936842Y-14661656D02*
X41966842Y-14691656D01*
X41966842Y-14661656D02*
X41936842Y-14691656D01*
X41939389Y-29345586D02*
X41969389Y-29375586D01*
X41969389Y-29345586D02*
X41939389Y-29375586D01*
X42085000Y-19200000D02*
X42115000Y-19230000D01*
X42115000Y-19200000D02*
X42085000Y-19230000D01*
X42085000Y-19690000D02*
X42115000Y-19720000D01*
X42115000Y-19690000D02*
X42085000Y-19720000D01*
X42085000Y-21760000D02*
X42115000Y-21790000D01*
X42115000Y-21760000D02*
X42085000Y-21790000D01*
X42085000Y-22250000D02*
X42115000Y-22280000D01*
X42115000Y-22250000D02*
X42085000Y-22280000D01*
X42085000Y-24280000D02*
X42115000Y-24310000D01*
X42115000Y-24280000D02*
X42085000Y-24310000D01*
X42085000Y-24770000D02*
X42115000Y-24800000D01*
X42115000Y-24770000D02*
X42085000Y-24800000D01*
X42259513Y-15030415D02*
X42289513Y-15060415D01*
X42289513Y-15030415D02*
X42259513Y-15060415D01*
X42371995Y-28843911D02*
X42401995Y-28873911D01*
X42401995Y-28843911D02*
X42371995Y-28873911D01*
X42520000Y-19725000D02*
X42550000Y-19755000D01*
X42550000Y-19725000D02*
X42520000Y-19755000D01*
X42520000Y-20325000D02*
X42550000Y-20355000D01*
X42550000Y-20325000D02*
X42520000Y-20355000D01*
X42520000Y-20925000D02*
X42550000Y-20955000D01*
X42550000Y-20925000D02*
X42520000Y-20955000D01*
X42520000Y-21525000D02*
X42550000Y-21555000D01*
X42550000Y-21525000D02*
X42520000Y-21555000D01*
X42520000Y-22465000D02*
X42550000Y-22495000D01*
X42550000Y-22465000D02*
X42520000Y-22495000D01*
X42520000Y-23065000D02*
X42550000Y-23095000D01*
X42550000Y-23065000D02*
X42520000Y-23095000D01*
X42520000Y-23665000D02*
X42550000Y-23695000D01*
X42550000Y-23665000D02*
X42520000Y-23695000D01*
X42520000Y-24265000D02*
X42550000Y-24295000D01*
X42550000Y-24265000D02*
X42520000Y-24295000D01*
X42672343Y-15548486D02*
X42702343Y-15578486D01*
X42702343Y-15548486D02*
X42672343Y-15578486D01*
X42674582Y-28458501D02*
X42704582Y-28488501D01*
X42704582Y-28458501D02*
X42674582Y-28488501D01*
X42953989Y-15949454D02*
X42983989Y-15979454D01*
X42983989Y-15949454D02*
X42953989Y-15979454D01*
X43010000Y-19725000D02*
X43040000Y-19755000D01*
X43040000Y-19725000D02*
X43010000Y-19755000D01*
X43010000Y-20325000D02*
X43040000Y-20355000D01*
X43040000Y-20325000D02*
X43010000Y-20355000D01*
X43010000Y-20925000D02*
X43040000Y-20955000D01*
X43040000Y-20925000D02*
X43010000Y-20955000D01*
X43010000Y-21525000D02*
X43040000Y-21555000D01*
X43040000Y-21525000D02*
X43010000Y-21555000D01*
X43010000Y-22465000D02*
X43040000Y-22495000D01*
X43040000Y-22465000D02*
X43010000Y-22495000D01*
X43010000Y-23065000D02*
X43040000Y-23095000D01*
X43040000Y-23065000D02*
X43010000Y-23095000D01*
X43010000Y-23665000D02*
X43040000Y-23695000D01*
X43040000Y-23665000D02*
X43010000Y-23695000D01*
X43010000Y-24265000D02*
X43040000Y-24295000D01*
X43040000Y-24265000D02*
X43010000Y-24295000D01*
X43051412Y-27913686D02*
X43081412Y-27943686D01*
X43081412Y-27913686D02*
X43051412Y-27943686D01*
X43309412Y-16508470D02*
X43339412Y-16538470D01*
X43339412Y-16508470D02*
X43309412Y-16538470D01*
X43311318Y-27498295D02*
X43341318Y-27528295D01*
X43341318Y-27498295D02*
X43311318Y-27528295D01*
X43546842Y-16937104D02*
X43576842Y-16967104D01*
X43576842Y-16937104D02*
X43546842Y-16967104D01*
X43628104Y-26916512D02*
X43658104Y-26946512D01*
X43658104Y-26916512D02*
X43628104Y-26946512D01*
X43840832Y-17530733D02*
X43870832Y-17560733D01*
X43870832Y-17530733D02*
X43840832Y-17560733D01*
X43842384Y-26475849D02*
X43872384Y-26505849D01*
X43872384Y-26475849D02*
X43842384Y-26505849D01*
X44031357Y-17982175D02*
X44061357Y-18012175D01*
X44061357Y-17982175D02*
X44031357Y-18012175D01*
X44095535Y-25863689D02*
X44125535Y-25893689D01*
X44125535Y-25863689D02*
X44095535Y-25893689D01*
X44260582Y-18603690D02*
X44290582Y-18633690D01*
X44290582Y-18603690D02*
X44260582Y-18633690D01*
X44261761Y-25402746D02*
X44291761Y-25432746D01*
X44291761Y-25402746D02*
X44261761Y-25432746D01*
X44402042Y-19072827D02*
X44432042Y-19102827D01*
X44432042Y-19072827D02*
X44402042Y-19102827D01*
X44448410Y-24767146D02*
X44478410Y-24797146D01*
X44478410Y-24767146D02*
X44448410Y-24797146D01*
X44563906Y-19715186D02*
X44593906Y-19745186D01*
X44593906Y-19715186D02*
X44563906Y-19745186D01*
X44564700Y-24291145D02*
X44594700Y-24321145D01*
X44594700Y-24291145D02*
X44564700Y-24321145D01*
X44654698Y-20196701D02*
X44684698Y-20226701D01*
X44684698Y-20196701D02*
X44654698Y-20226701D01*
X44682731Y-23639306D02*
X44712731Y-23669306D01*
X44712731Y-23639306D02*
X44682731Y-23669306D01*
X44747367Y-20852626D02*
X44777367Y-20882626D01*
X44777367Y-20852626D02*
X44747367Y-20882626D01*
X44747766Y-23153641D02*
X44777766Y-23183641D01*
X44777766Y-23153641D02*
X44747766Y-23183641D01*
X44786462Y-21341064D02*
X44816462Y-21371064D01*
X44816462Y-21341064D02*
X44786462Y-21371064D01*
X44795842Y-22492949D02*
X44825842Y-22522949D01*
X44825842Y-22492949D02*
X44795842Y-22522949D01*
X44808885Y-22003123D02*
X44838885Y-22033123D01*
X44838885Y-22003123D02*
X44808885Y-22033123D01*
X25104440Y-32841274D02*
G75*
G02*
X25044440Y-32841274I-30000J0D01*
G01*
X25044440Y-32841274D02*
G75*
G02*
X25104440Y-32841274I30000J0D01*
G01*
X25104440Y-32881274D02*
X25104440Y-32801274D01*
X25044440Y-32801274D02*
G75*
G02*
X25104440Y-32801274I30000J0D01*
G01*
X25044440Y-32801274D02*
X25044440Y-32881274D01*
X25044440Y-32881274D02*
G75*
G03*
X25104440Y-32881274I30000J0D01*
G01*
X25104440Y-33259274D02*
G75*
G02*
X25044440Y-33259274I-30000J0D01*
G01*
X25044440Y-33259274D02*
G75*
G02*
X25104440Y-33259274I30000J0D01*
G01*
X25104440Y-33319274D02*
X25104440Y-33199274D01*
X25044440Y-33199274D02*
G75*
G02*
X25104440Y-33199274I30000J0D01*
G01*
X25044440Y-33199274D02*
X25044440Y-33319274D01*
X25044440Y-33319274D02*
G75*
G03*
X25104440Y-33319274I30000J0D01*
G01*
X25968440Y-32841274D02*
G75*
G02*
X25908440Y-32841274I-30000J0D01*
G01*
X25908440Y-32841274D02*
G75*
G02*
X25968440Y-32841274I30000J0D01*
G01*
X25968440Y-32881274D02*
X25968440Y-32801274D01*
X25908440Y-32801274D02*
G75*
G02*
X25968440Y-32801274I30000J0D01*
G01*
X25908440Y-32801274D02*
X25908440Y-32881274D01*
X25908440Y-32881274D02*
G75*
G03*
X25968440Y-32881274I30000J0D01*
G01*
X25968440Y-33259274D02*
G75*
G02*
X25908440Y-33259274I-30000J0D01*
G01*
X25908440Y-33259274D02*
G75*
G02*
X25968440Y-33259274I30000J0D01*
G01*
X25968440Y-33319274D02*
X25968440Y-33199274D01*
X25908440Y-33199274D02*
G75*
G02*
X25968440Y-33199274I30000J0D01*
G01*
X25908440Y-33199274D02*
X25908440Y-33319274D01*
X25908440Y-33319274D02*
G75*
G03*
X25968440Y-33319274I30000J0D01*
G01*
D12*
X22703717Y-33856644D02*
X22703717Y-33656644D01*
X22703717Y-33656644D02*
X22751336Y-33656644D01*
X22751336Y-33656644D02*
X22779907Y-33666168D01*
X22779907Y-33666168D02*
X22798955Y-33685215D01*
X22798955Y-33685215D02*
X22808479Y-33704263D01*
X22808479Y-33704263D02*
X22818002Y-33742358D01*
X22818002Y-33742358D02*
X22818002Y-33770930D01*
X22818002Y-33770930D02*
X22808479Y-33809025D01*
X22808479Y-33809025D02*
X22798955Y-33828072D01*
X22798955Y-33828072D02*
X22779907Y-33847120D01*
X22779907Y-33847120D02*
X22751336Y-33856644D01*
X22751336Y-33856644D02*
X22703717Y-33856644D01*
X22903717Y-33856644D02*
X22903717Y-33723310D01*
X22903717Y-33761406D02*
X22913241Y-33742358D01*
X22913241Y-33742358D02*
X22922764Y-33732834D01*
X22922764Y-33732834D02*
X22941812Y-33723310D01*
X22941812Y-33723310D02*
X22960860Y-33723310D01*
X23027526Y-33856644D02*
X23027526Y-33723310D01*
X23027526Y-33656644D02*
X23018002Y-33666168D01*
X23018002Y-33666168D02*
X23027526Y-33675691D01*
X23027526Y-33675691D02*
X23037050Y-33666168D01*
X23037050Y-33666168D02*
X23027526Y-33656644D01*
X23027526Y-33656644D02*
X23027526Y-33675691D01*
X23151336Y-33856644D02*
X23132288Y-33847120D01*
X23132288Y-33847120D02*
X23122764Y-33828072D01*
X23122764Y-33828072D02*
X23122764Y-33656644D01*
X23256098Y-33856644D02*
X23237050Y-33847120D01*
X23237050Y-33847120D02*
X23227526Y-33828072D01*
X23227526Y-33828072D02*
X23227526Y-33656644D01*
X23484669Y-33856644D02*
X23484669Y-33656644D01*
X23484669Y-33656644D02*
X23551336Y-33799501D01*
X23551336Y-33799501D02*
X23618002Y-33656644D01*
X23618002Y-33656644D02*
X23618002Y-33856644D01*
X23798955Y-33856644D02*
X23798955Y-33751882D01*
X23798955Y-33751882D02*
X23789431Y-33732834D01*
X23789431Y-33732834D02*
X23770383Y-33723310D01*
X23770383Y-33723310D02*
X23732288Y-33723310D01*
X23732288Y-33723310D02*
X23713241Y-33732834D01*
X23798955Y-33847120D02*
X23779907Y-33856644D01*
X23779907Y-33856644D02*
X23732288Y-33856644D01*
X23732288Y-33856644D02*
X23713241Y-33847120D01*
X23713241Y-33847120D02*
X23703717Y-33828072D01*
X23703717Y-33828072D02*
X23703717Y-33809025D01*
X23703717Y-33809025D02*
X23713241Y-33789977D01*
X23713241Y-33789977D02*
X23732288Y-33780453D01*
X23732288Y-33780453D02*
X23779907Y-33780453D01*
X23779907Y-33780453D02*
X23798955Y-33770930D01*
X23894193Y-33723310D02*
X23894193Y-33923310D01*
X23894193Y-33732834D02*
X23913241Y-33723310D01*
X23913241Y-33723310D02*
X23951336Y-33723310D01*
X23951336Y-33723310D02*
X23970383Y-33732834D01*
X23970383Y-33732834D02*
X23979907Y-33742358D01*
X23979907Y-33742358D02*
X23989431Y-33761406D01*
X23989431Y-33761406D02*
X23989431Y-33818549D01*
X23989431Y-33818549D02*
X23979907Y-33837596D01*
X23979907Y-33837596D02*
X23970383Y-33847120D01*
X23970383Y-33847120D02*
X23951336Y-33856644D01*
X23951336Y-33856644D02*
X23913241Y-33856644D01*
X23913241Y-33856644D02*
X23894193Y-33847120D01*
X24075145Y-33837596D02*
X24084669Y-33847120D01*
X24084669Y-33847120D02*
X24075145Y-33856644D01*
X24075145Y-33856644D02*
X24065622Y-33847120D01*
X24065622Y-33847120D02*
X24075145Y-33837596D01*
X24075145Y-33837596D02*
X24075145Y-33856644D01*
X24075145Y-33732834D02*
X24084669Y-33742358D01*
X24084669Y-33742358D02*
X24075145Y-33751882D01*
X24075145Y-33751882D02*
X24065622Y-33742358D01*
X24065622Y-33742358D02*
X24075145Y-33732834D01*
X24075145Y-33732834D02*
X24075145Y-33751882D01*
D11*
X22412940Y-34170160D02*
X22442940Y-34200160D01*
X22442940Y-34170160D02*
X22412940Y-34200160D01*
D12*
X22741812Y-34076644D02*
X22760860Y-34076644D01*
X22760860Y-34076644D02*
X22779907Y-34086168D01*
X22779907Y-34086168D02*
X22789431Y-34095691D01*
X22789431Y-34095691D02*
X22798955Y-34114739D01*
X22798955Y-34114739D02*
X22808479Y-34152834D01*
X22808479Y-34152834D02*
X22808479Y-34200453D01*
X22808479Y-34200453D02*
X22798955Y-34238549D01*
X22798955Y-34238549D02*
X22789431Y-34257596D01*
X22789431Y-34257596D02*
X22779907Y-34267120D01*
X22779907Y-34267120D02*
X22760860Y-34276644D01*
X22760860Y-34276644D02*
X22741812Y-34276644D01*
X22741812Y-34276644D02*
X22722764Y-34267120D01*
X22722764Y-34267120D02*
X22713241Y-34257596D01*
X22713241Y-34257596D02*
X22703717Y-34238549D01*
X22703717Y-34238549D02*
X22694193Y-34200453D01*
X22694193Y-34200453D02*
X22694193Y-34152834D01*
X22694193Y-34152834D02*
X22703717Y-34114739D01*
X22703717Y-34114739D02*
X22713241Y-34095691D01*
X22713241Y-34095691D02*
X22722764Y-34086168D01*
X22722764Y-34086168D02*
X22741812Y-34076644D01*
X22894193Y-34257596D02*
X22903717Y-34267120D01*
X22903717Y-34267120D02*
X22894193Y-34276644D01*
X22894193Y-34276644D02*
X22884669Y-34267120D01*
X22884669Y-34267120D02*
X22894193Y-34257596D01*
X22894193Y-34257596D02*
X22894193Y-34276644D01*
X22970383Y-34076644D02*
X23094193Y-34076644D01*
X23094193Y-34076644D02*
X23027526Y-34152834D01*
X23027526Y-34152834D02*
X23056098Y-34152834D01*
X23056098Y-34152834D02*
X23075145Y-34162358D01*
X23075145Y-34162358D02*
X23084669Y-34171882D01*
X23084669Y-34171882D02*
X23094193Y-34190930D01*
X23094193Y-34190930D02*
X23094193Y-34238549D01*
X23094193Y-34238549D02*
X23084669Y-34257596D01*
X23084669Y-34257596D02*
X23075145Y-34267120D01*
X23075145Y-34267120D02*
X23056098Y-34276644D01*
X23056098Y-34276644D02*
X22998955Y-34276644D01*
X22998955Y-34276644D02*
X22979907Y-34267120D01*
X22979907Y-34267120D02*
X22970383Y-34257596D01*
X23218002Y-34076644D02*
X23237050Y-34076644D01*
X23237050Y-34076644D02*
X23256098Y-34086168D01*
X23256098Y-34086168D02*
X23265622Y-34095691D01*
X23265622Y-34095691D02*
X23275145Y-34114739D01*
X23275145Y-34114739D02*
X23284669Y-34152834D01*
X23284669Y-34152834D02*
X23284669Y-34200453D01*
X23284669Y-34200453D02*
X23275145Y-34238549D01*
X23275145Y-34238549D02*
X23265622Y-34257596D01*
X23265622Y-34257596D02*
X23256098Y-34267120D01*
X23256098Y-34267120D02*
X23237050Y-34276644D01*
X23237050Y-34276644D02*
X23218002Y-34276644D01*
X23218002Y-34276644D02*
X23198955Y-34267120D01*
X23198955Y-34267120D02*
X23189431Y-34257596D01*
X23189431Y-34257596D02*
X23179907Y-34238549D01*
X23179907Y-34238549D02*
X23170383Y-34200453D01*
X23170383Y-34200453D02*
X23170383Y-34152834D01*
X23170383Y-34152834D02*
X23179907Y-34114739D01*
X23179907Y-34114739D02*
X23189431Y-34095691D01*
X23189431Y-34095691D02*
X23198955Y-34086168D01*
X23198955Y-34086168D02*
X23218002Y-34076644D01*
X23408479Y-34076644D02*
X23427526Y-34076644D01*
X23427526Y-34076644D02*
X23446574Y-34086168D01*
X23446574Y-34086168D02*
X23456098Y-34095691D01*
X23456098Y-34095691D02*
X23465622Y-34114739D01*
X23465622Y-34114739D02*
X23475145Y-34152834D01*
X23475145Y-34152834D02*
X23475145Y-34200453D01*
X23475145Y-34200453D02*
X23465622Y-34238549D01*
X23465622Y-34238549D02*
X23456098Y-34257596D01*
X23456098Y-34257596D02*
X23446574Y-34267120D01*
X23446574Y-34267120D02*
X23427526Y-34276644D01*
X23427526Y-34276644D02*
X23408479Y-34276644D01*
X23408479Y-34276644D02*
X23389431Y-34267120D01*
X23389431Y-34267120D02*
X23379907Y-34257596D01*
X23379907Y-34257596D02*
X23370383Y-34238549D01*
X23370383Y-34238549D02*
X23360860Y-34200453D01*
X23360860Y-34200453D02*
X23360860Y-34152834D01*
X23360860Y-34152834D02*
X23370383Y-34114739D01*
X23370383Y-34114739D02*
X23379907Y-34095691D01*
X23379907Y-34095691D02*
X23389431Y-34086168D01*
X23389431Y-34086168D02*
X23408479Y-34076644D01*
X23560860Y-34276644D02*
X23560860Y-34143310D01*
X23560860Y-34162358D02*
X23570383Y-34152834D01*
X23570383Y-34152834D02*
X23589431Y-34143310D01*
X23589431Y-34143310D02*
X23618003Y-34143310D01*
X23618003Y-34143310D02*
X23637050Y-34152834D01*
X23637050Y-34152834D02*
X23646574Y-34171882D01*
X23646574Y-34171882D02*
X23646574Y-34276644D01*
X23646574Y-34171882D02*
X23656098Y-34152834D01*
X23656098Y-34152834D02*
X23675145Y-34143310D01*
X23675145Y-34143310D02*
X23703717Y-34143310D01*
X23703717Y-34143310D02*
X23722764Y-34152834D01*
X23722764Y-34152834D02*
X23732288Y-34171882D01*
X23732288Y-34171882D02*
X23732288Y-34276644D01*
X23827526Y-34276644D02*
X23827526Y-34143310D01*
X23827526Y-34162358D02*
X23837050Y-34152834D01*
X23837050Y-34152834D02*
X23856098Y-34143310D01*
X23856098Y-34143310D02*
X23884669Y-34143310D01*
X23884669Y-34143310D02*
X23903717Y-34152834D01*
X23903717Y-34152834D02*
X23913241Y-34171882D01*
X23913241Y-34171882D02*
X23913241Y-34276644D01*
X23913241Y-34171882D02*
X23922764Y-34152834D01*
X23922764Y-34152834D02*
X23941812Y-34143310D01*
X23941812Y-34143310D02*
X23970383Y-34143310D01*
X23970383Y-34143310D02*
X23989431Y-34152834D01*
X23989431Y-34152834D02*
X23998955Y-34171882D01*
X23998955Y-34171882D02*
X23998955Y-34276644D01*
X24389431Y-34067120D02*
X24218003Y-34324263D01*
X24646574Y-34076644D02*
X24665622Y-34076644D01*
X24665622Y-34076644D02*
X24684669Y-34086168D01*
X24684669Y-34086168D02*
X24694193Y-34095691D01*
X24694193Y-34095691D02*
X24703717Y-34114739D01*
X24703717Y-34114739D02*
X24713241Y-34152834D01*
X24713241Y-34152834D02*
X24713241Y-34200453D01*
X24713241Y-34200453D02*
X24703717Y-34238549D01*
X24703717Y-34238549D02*
X24694193Y-34257596D01*
X24694193Y-34257596D02*
X24684669Y-34267120D01*
X24684669Y-34267120D02*
X24665622Y-34276644D01*
X24665622Y-34276644D02*
X24646574Y-34276644D01*
X24646574Y-34276644D02*
X24627526Y-34267120D01*
X24627526Y-34267120D02*
X24618003Y-34257596D01*
X24618003Y-34257596D02*
X24608479Y-34238549D01*
X24608479Y-34238549D02*
X24598955Y-34200453D01*
X24598955Y-34200453D02*
X24598955Y-34152834D01*
X24598955Y-34152834D02*
X24608479Y-34114739D01*
X24608479Y-34114739D02*
X24618003Y-34095691D01*
X24618003Y-34095691D02*
X24627526Y-34086168D01*
X24627526Y-34086168D02*
X24646574Y-34076644D01*
X24798955Y-34257596D02*
X24808479Y-34267120D01*
X24808479Y-34267120D02*
X24798955Y-34276644D01*
X24798955Y-34276644D02*
X24789431Y-34267120D01*
X24789431Y-34267120D02*
X24798955Y-34257596D01*
X24798955Y-34257596D02*
X24798955Y-34276644D01*
X24932288Y-34076644D02*
X24951336Y-34076644D01*
X24951336Y-34076644D02*
X24970384Y-34086168D01*
X24970384Y-34086168D02*
X24979907Y-34095691D01*
X24979907Y-34095691D02*
X24989431Y-34114739D01*
X24989431Y-34114739D02*
X24998955Y-34152834D01*
X24998955Y-34152834D02*
X24998955Y-34200453D01*
X24998955Y-34200453D02*
X24989431Y-34238549D01*
X24989431Y-34238549D02*
X24979907Y-34257596D01*
X24979907Y-34257596D02*
X24970384Y-34267120D01*
X24970384Y-34267120D02*
X24951336Y-34276644D01*
X24951336Y-34276644D02*
X24932288Y-34276644D01*
X24932288Y-34276644D02*
X24913241Y-34267120D01*
X24913241Y-34267120D02*
X24903717Y-34257596D01*
X24903717Y-34257596D02*
X24894193Y-34238549D01*
X24894193Y-34238549D02*
X24884669Y-34200453D01*
X24884669Y-34200453D02*
X24884669Y-34152834D01*
X24884669Y-34152834D02*
X24894193Y-34114739D01*
X24894193Y-34114739D02*
X24903717Y-34095691D01*
X24903717Y-34095691D02*
X24913241Y-34086168D01*
X24913241Y-34086168D02*
X24932288Y-34076644D01*
X25189431Y-34276644D02*
X25075146Y-34276644D01*
X25132288Y-34276644D02*
X25132288Y-34076644D01*
X25132288Y-34076644D02*
X25113241Y-34105215D01*
X25113241Y-34105215D02*
X25094193Y-34124263D01*
X25094193Y-34124263D02*
X25075146Y-34133787D01*
X25379907Y-34276644D02*
X25265622Y-34276644D01*
X25322765Y-34276644D02*
X25322765Y-34076644D01*
X25322765Y-34076644D02*
X25303717Y-34105215D01*
X25303717Y-34105215D02*
X25284669Y-34124263D01*
X25284669Y-34124263D02*
X25265622Y-34133787D01*
X25494193Y-34162358D02*
X25475146Y-34152834D01*
X25475146Y-34152834D02*
X25465622Y-34143310D01*
X25465622Y-34143310D02*
X25456098Y-34124263D01*
X25456098Y-34124263D02*
X25456098Y-34114739D01*
X25456098Y-34114739D02*
X25465622Y-34095691D01*
X25465622Y-34095691D02*
X25475146Y-34086168D01*
X25475146Y-34086168D02*
X25494193Y-34076644D01*
X25494193Y-34076644D02*
X25532288Y-34076644D01*
X25532288Y-34076644D02*
X25551336Y-34086168D01*
X25551336Y-34086168D02*
X25560860Y-34095691D01*
X25560860Y-34095691D02*
X25570384Y-34114739D01*
X25570384Y-34114739D02*
X25570384Y-34124263D01*
X25570384Y-34124263D02*
X25560860Y-34143310D01*
X25560860Y-34143310D02*
X25551336Y-34152834D01*
X25551336Y-34152834D02*
X25532288Y-34162358D01*
X25532288Y-34162358D02*
X25494193Y-34162358D01*
X25494193Y-34162358D02*
X25475146Y-34171882D01*
X25475146Y-34171882D02*
X25465622Y-34181406D01*
X25465622Y-34181406D02*
X25456098Y-34200453D01*
X25456098Y-34200453D02*
X25456098Y-34238549D01*
X25456098Y-34238549D02*
X25465622Y-34257596D01*
X25465622Y-34257596D02*
X25475146Y-34267120D01*
X25475146Y-34267120D02*
X25494193Y-34276644D01*
X25494193Y-34276644D02*
X25532288Y-34276644D01*
X25532288Y-34276644D02*
X25551336Y-34267120D01*
X25551336Y-34267120D02*
X25560860Y-34257596D01*
X25560860Y-34257596D02*
X25570384Y-34238549D01*
X25570384Y-34238549D02*
X25570384Y-34200453D01*
X25570384Y-34200453D02*
X25560860Y-34181406D01*
X25560860Y-34181406D02*
X25551336Y-34171882D01*
X25551336Y-34171882D02*
X25532288Y-34162358D01*
X25646574Y-34076644D02*
X25646574Y-34114739D01*
X25722765Y-34076644D02*
X25722765Y-34114739D01*
X26018003Y-34352834D02*
X26008479Y-34343310D01*
X26008479Y-34343310D02*
X25989431Y-34314739D01*
X25989431Y-34314739D02*
X25979908Y-34295691D01*
X25979908Y-34295691D02*
X25970384Y-34267120D01*
X25970384Y-34267120D02*
X25960860Y-34219501D01*
X25960860Y-34219501D02*
X25960860Y-34181406D01*
X25960860Y-34181406D02*
X25970384Y-34133787D01*
X25970384Y-34133787D02*
X25979908Y-34105215D01*
X25979908Y-34105215D02*
X25989431Y-34086168D01*
X25989431Y-34086168D02*
X26008479Y-34057596D01*
X26008479Y-34057596D02*
X26018003Y-34048072D01*
X26075146Y-34076644D02*
X26198955Y-34076644D01*
X26198955Y-34076644D02*
X26132288Y-34152834D01*
X26132288Y-34152834D02*
X26160860Y-34152834D01*
X26160860Y-34152834D02*
X26179908Y-34162358D01*
X26179908Y-34162358D02*
X26189431Y-34171882D01*
X26189431Y-34171882D02*
X26198955Y-34190930D01*
X26198955Y-34190930D02*
X26198955Y-34238549D01*
X26198955Y-34238549D02*
X26189431Y-34257596D01*
X26189431Y-34257596D02*
X26179908Y-34267120D01*
X26179908Y-34267120D02*
X26160860Y-34276644D01*
X26160860Y-34276644D02*
X26103717Y-34276644D01*
X26103717Y-34276644D02*
X26084669Y-34267120D01*
X26084669Y-34267120D02*
X26075146Y-34257596D01*
X26313241Y-34162358D02*
X26294193Y-34152834D01*
X26294193Y-34152834D02*
X26284669Y-34143310D01*
X26284669Y-34143310D02*
X26275146Y-34124263D01*
X26275146Y-34124263D02*
X26275146Y-34114739D01*
X26275146Y-34114739D02*
X26284669Y-34095691D01*
X26284669Y-34095691D02*
X26294193Y-34086168D01*
X26294193Y-34086168D02*
X26313241Y-34076644D01*
X26313241Y-34076644D02*
X26351336Y-34076644D01*
X26351336Y-34076644D02*
X26370384Y-34086168D01*
X26370384Y-34086168D02*
X26379908Y-34095691D01*
X26379908Y-34095691D02*
X26389431Y-34114739D01*
X26389431Y-34114739D02*
X26389431Y-34124263D01*
X26389431Y-34124263D02*
X26379908Y-34143310D01*
X26379908Y-34143310D02*
X26370384Y-34152834D01*
X26370384Y-34152834D02*
X26351336Y-34162358D01*
X26351336Y-34162358D02*
X26313241Y-34162358D01*
X26313241Y-34162358D02*
X26294193Y-34171882D01*
X26294193Y-34171882D02*
X26284669Y-34181406D01*
X26284669Y-34181406D02*
X26275146Y-34200453D01*
X26275146Y-34200453D02*
X26275146Y-34238549D01*
X26275146Y-34238549D02*
X26284669Y-34257596D01*
X26284669Y-34257596D02*
X26294193Y-34267120D01*
X26294193Y-34267120D02*
X26313241Y-34276644D01*
X26313241Y-34276644D02*
X26351336Y-34276644D01*
X26351336Y-34276644D02*
X26370384Y-34267120D01*
X26370384Y-34267120D02*
X26379908Y-34257596D01*
X26379908Y-34257596D02*
X26389431Y-34238549D01*
X26389431Y-34238549D02*
X26389431Y-34200453D01*
X26389431Y-34200453D02*
X26379908Y-34181406D01*
X26379908Y-34181406D02*
X26370384Y-34171882D01*
X26370384Y-34171882D02*
X26351336Y-34162358D01*
X26570384Y-34076644D02*
X26475146Y-34076644D01*
X26475146Y-34076644D02*
X26465622Y-34171882D01*
X26465622Y-34171882D02*
X26475146Y-34162358D01*
X26475146Y-34162358D02*
X26494193Y-34152834D01*
X26494193Y-34152834D02*
X26541812Y-34152834D01*
X26541812Y-34152834D02*
X26560860Y-34162358D01*
X26560860Y-34162358D02*
X26570384Y-34171882D01*
X26570384Y-34171882D02*
X26579908Y-34190930D01*
X26579908Y-34190930D02*
X26579908Y-34238549D01*
X26579908Y-34238549D02*
X26570384Y-34257596D01*
X26570384Y-34257596D02*
X26560860Y-34267120D01*
X26560860Y-34267120D02*
X26541812Y-34276644D01*
X26541812Y-34276644D02*
X26494193Y-34276644D01*
X26494193Y-34276644D02*
X26475146Y-34267120D01*
X26475146Y-34267120D02*
X26465622Y-34257596D01*
X26818003Y-34276644D02*
X26818003Y-34076644D01*
X26903717Y-34276644D02*
X26903717Y-34171882D01*
X26903717Y-34171882D02*
X26894193Y-34152834D01*
X26894193Y-34152834D02*
X26875146Y-34143310D01*
X26875146Y-34143310D02*
X26846574Y-34143310D01*
X26846574Y-34143310D02*
X26827527Y-34152834D01*
X26827527Y-34152834D02*
X26818003Y-34162358D01*
X27027527Y-34276644D02*
X27008479Y-34267120D01*
X27008479Y-34267120D02*
X26998955Y-34257596D01*
X26998955Y-34257596D02*
X26989431Y-34238549D01*
X26989431Y-34238549D02*
X26989431Y-34181406D01*
X26989431Y-34181406D02*
X26998955Y-34162358D01*
X26998955Y-34162358D02*
X27008479Y-34152834D01*
X27008479Y-34152834D02*
X27027527Y-34143310D01*
X27027527Y-34143310D02*
X27056098Y-34143310D01*
X27056098Y-34143310D02*
X27075146Y-34152834D01*
X27075146Y-34152834D02*
X27084670Y-34162358D01*
X27084670Y-34162358D02*
X27094193Y-34181406D01*
X27094193Y-34181406D02*
X27094193Y-34238549D01*
X27094193Y-34238549D02*
X27084670Y-34257596D01*
X27084670Y-34257596D02*
X27075146Y-34267120D01*
X27075146Y-34267120D02*
X27056098Y-34276644D01*
X27056098Y-34276644D02*
X27027527Y-34276644D01*
X27208479Y-34276644D02*
X27189431Y-34267120D01*
X27189431Y-34267120D02*
X27179908Y-34248072D01*
X27179908Y-34248072D02*
X27179908Y-34076644D01*
X27360860Y-34267120D02*
X27341812Y-34276644D01*
X27341812Y-34276644D02*
X27303717Y-34276644D01*
X27303717Y-34276644D02*
X27284670Y-34267120D01*
X27284670Y-34267120D02*
X27275146Y-34248072D01*
X27275146Y-34248072D02*
X27275146Y-34171882D01*
X27275146Y-34171882D02*
X27284670Y-34152834D01*
X27284670Y-34152834D02*
X27303717Y-34143310D01*
X27303717Y-34143310D02*
X27341812Y-34143310D01*
X27341812Y-34143310D02*
X27360860Y-34152834D01*
X27360860Y-34152834D02*
X27370384Y-34171882D01*
X27370384Y-34171882D02*
X27370384Y-34190930D01*
X27370384Y-34190930D02*
X27275146Y-34209977D01*
X27446574Y-34267120D02*
X27465622Y-34276644D01*
X27465622Y-34276644D02*
X27503717Y-34276644D01*
X27503717Y-34276644D02*
X27522765Y-34267120D01*
X27522765Y-34267120D02*
X27532289Y-34248072D01*
X27532289Y-34248072D02*
X27532289Y-34238549D01*
X27532289Y-34238549D02*
X27522765Y-34219501D01*
X27522765Y-34219501D02*
X27503717Y-34209977D01*
X27503717Y-34209977D02*
X27475146Y-34209977D01*
X27475146Y-34209977D02*
X27456098Y-34200453D01*
X27456098Y-34200453D02*
X27446574Y-34181406D01*
X27446574Y-34181406D02*
X27446574Y-34171882D01*
X27446574Y-34171882D02*
X27456098Y-34152834D01*
X27456098Y-34152834D02*
X27475146Y-34143310D01*
X27475146Y-34143310D02*
X27503717Y-34143310D01*
X27503717Y-34143310D02*
X27522765Y-34152834D01*
X27598955Y-34352834D02*
X27608479Y-34343310D01*
X27608479Y-34343310D02*
X27627527Y-34314739D01*
X27627527Y-34314739D02*
X27637051Y-34295691D01*
X27637051Y-34295691D02*
X27646574Y-34267120D01*
X27646574Y-34267120D02*
X27656098Y-34219501D01*
X27656098Y-34219501D02*
X27656098Y-34181406D01*
X27656098Y-34181406D02*
X27646574Y-34133787D01*
X27646574Y-34133787D02*
X27637051Y-34105215D01*
X27637051Y-34105215D02*
X27627527Y-34086168D01*
X27627527Y-34086168D02*
X27608479Y-34057596D01*
X27608479Y-34057596D02*
X27598955Y-34048072D01*
D11*
X22442940Y-34449160D02*
G75*
G02*
X22382940Y-34449160I-30000J0D01*
G01*
X22382940Y-34449160D02*
G75*
G02*
X22442940Y-34449160I30000J0D01*
G01*
D12*
X22741812Y-34340644D02*
X22760860Y-34340644D01*
X22760860Y-34340644D02*
X22779907Y-34350168D01*
X22779907Y-34350168D02*
X22789431Y-34359691D01*
X22789431Y-34359691D02*
X22798955Y-34378739D01*
X22798955Y-34378739D02*
X22808479Y-34416834D01*
X22808479Y-34416834D02*
X22808479Y-34464453D01*
X22808479Y-34464453D02*
X22798955Y-34502549D01*
X22798955Y-34502549D02*
X22789431Y-34521596D01*
X22789431Y-34521596D02*
X22779907Y-34531120D01*
X22779907Y-34531120D02*
X22760860Y-34540644D01*
X22760860Y-34540644D02*
X22741812Y-34540644D01*
X22741812Y-34540644D02*
X22722764Y-34531120D01*
X22722764Y-34531120D02*
X22713241Y-34521596D01*
X22713241Y-34521596D02*
X22703717Y-34502549D01*
X22703717Y-34502549D02*
X22694193Y-34464453D01*
X22694193Y-34464453D02*
X22694193Y-34416834D01*
X22694193Y-34416834D02*
X22703717Y-34378739D01*
X22703717Y-34378739D02*
X22713241Y-34359691D01*
X22713241Y-34359691D02*
X22722764Y-34350168D01*
X22722764Y-34350168D02*
X22741812Y-34340644D01*
X22894193Y-34521596D02*
X22903717Y-34531120D01*
X22903717Y-34531120D02*
X22894193Y-34540644D01*
X22894193Y-34540644D02*
X22884669Y-34531120D01*
X22884669Y-34531120D02*
X22894193Y-34521596D01*
X22894193Y-34521596D02*
X22894193Y-34540644D01*
X23075145Y-34340644D02*
X23037050Y-34340644D01*
X23037050Y-34340644D02*
X23018002Y-34350168D01*
X23018002Y-34350168D02*
X23008479Y-34359691D01*
X23008479Y-34359691D02*
X22989431Y-34388263D01*
X22989431Y-34388263D02*
X22979907Y-34426358D01*
X22979907Y-34426358D02*
X22979907Y-34502549D01*
X22979907Y-34502549D02*
X22989431Y-34521596D01*
X22989431Y-34521596D02*
X22998955Y-34531120D01*
X22998955Y-34531120D02*
X23018002Y-34540644D01*
X23018002Y-34540644D02*
X23056098Y-34540644D01*
X23056098Y-34540644D02*
X23075145Y-34531120D01*
X23075145Y-34531120D02*
X23084669Y-34521596D01*
X23084669Y-34521596D02*
X23094193Y-34502549D01*
X23094193Y-34502549D02*
X23094193Y-34454930D01*
X23094193Y-34454930D02*
X23084669Y-34435882D01*
X23084669Y-34435882D02*
X23075145Y-34426358D01*
X23075145Y-34426358D02*
X23056098Y-34416834D01*
X23056098Y-34416834D02*
X23018002Y-34416834D01*
X23018002Y-34416834D02*
X22998955Y-34426358D01*
X22998955Y-34426358D02*
X22989431Y-34435882D01*
X22989431Y-34435882D02*
X22979907Y-34454930D01*
X23218002Y-34340644D02*
X23237050Y-34340644D01*
X23237050Y-34340644D02*
X23256098Y-34350168D01*
X23256098Y-34350168D02*
X23265622Y-34359691D01*
X23265622Y-34359691D02*
X23275145Y-34378739D01*
X23275145Y-34378739D02*
X23284669Y-34416834D01*
X23284669Y-34416834D02*
X23284669Y-34464453D01*
X23284669Y-34464453D02*
X23275145Y-34502549D01*
X23275145Y-34502549D02*
X23265622Y-34521596D01*
X23265622Y-34521596D02*
X23256098Y-34531120D01*
X23256098Y-34531120D02*
X23237050Y-34540644D01*
X23237050Y-34540644D02*
X23218002Y-34540644D01*
X23218002Y-34540644D02*
X23198955Y-34531120D01*
X23198955Y-34531120D02*
X23189431Y-34521596D01*
X23189431Y-34521596D02*
X23179907Y-34502549D01*
X23179907Y-34502549D02*
X23170383Y-34464453D01*
X23170383Y-34464453D02*
X23170383Y-34416834D01*
X23170383Y-34416834D02*
X23179907Y-34378739D01*
X23179907Y-34378739D02*
X23189431Y-34359691D01*
X23189431Y-34359691D02*
X23198955Y-34350168D01*
X23198955Y-34350168D02*
X23218002Y-34340644D01*
X23408479Y-34340644D02*
X23427526Y-34340644D01*
X23427526Y-34340644D02*
X23446574Y-34350168D01*
X23446574Y-34350168D02*
X23456098Y-34359691D01*
X23456098Y-34359691D02*
X23465622Y-34378739D01*
X23465622Y-34378739D02*
X23475145Y-34416834D01*
X23475145Y-34416834D02*
X23475145Y-34464453D01*
X23475145Y-34464453D02*
X23465622Y-34502549D01*
X23465622Y-34502549D02*
X23456098Y-34521596D01*
X23456098Y-34521596D02*
X23446574Y-34531120D01*
X23446574Y-34531120D02*
X23427526Y-34540644D01*
X23427526Y-34540644D02*
X23408479Y-34540644D01*
X23408479Y-34540644D02*
X23389431Y-34531120D01*
X23389431Y-34531120D02*
X23379907Y-34521596D01*
X23379907Y-34521596D02*
X23370383Y-34502549D01*
X23370383Y-34502549D02*
X23360860Y-34464453D01*
X23360860Y-34464453D02*
X23360860Y-34416834D01*
X23360860Y-34416834D02*
X23370383Y-34378739D01*
X23370383Y-34378739D02*
X23379907Y-34359691D01*
X23379907Y-34359691D02*
X23389431Y-34350168D01*
X23389431Y-34350168D02*
X23408479Y-34340644D01*
X23560860Y-34540644D02*
X23560860Y-34407310D01*
X23560860Y-34426358D02*
X23570383Y-34416834D01*
X23570383Y-34416834D02*
X23589431Y-34407310D01*
X23589431Y-34407310D02*
X23618003Y-34407310D01*
X23618003Y-34407310D02*
X23637050Y-34416834D01*
X23637050Y-34416834D02*
X23646574Y-34435882D01*
X23646574Y-34435882D02*
X23646574Y-34540644D01*
X23646574Y-34435882D02*
X23656098Y-34416834D01*
X23656098Y-34416834D02*
X23675145Y-34407310D01*
X23675145Y-34407310D02*
X23703717Y-34407310D01*
X23703717Y-34407310D02*
X23722764Y-34416834D01*
X23722764Y-34416834D02*
X23732288Y-34435882D01*
X23732288Y-34435882D02*
X23732288Y-34540644D01*
X23827526Y-34540644D02*
X23827526Y-34407310D01*
X23827526Y-34426358D02*
X23837050Y-34416834D01*
X23837050Y-34416834D02*
X23856098Y-34407310D01*
X23856098Y-34407310D02*
X23884669Y-34407310D01*
X23884669Y-34407310D02*
X23903717Y-34416834D01*
X23903717Y-34416834D02*
X23913241Y-34435882D01*
X23913241Y-34435882D02*
X23913241Y-34540644D01*
X23913241Y-34435882D02*
X23922764Y-34416834D01*
X23922764Y-34416834D02*
X23941812Y-34407310D01*
X23941812Y-34407310D02*
X23970383Y-34407310D01*
X23970383Y-34407310D02*
X23989431Y-34416834D01*
X23989431Y-34416834D02*
X23998955Y-34435882D01*
X23998955Y-34435882D02*
X23998955Y-34540644D01*
X24389431Y-34331120D02*
X24218003Y-34588263D01*
X24646574Y-34340644D02*
X24665622Y-34340644D01*
X24665622Y-34340644D02*
X24684669Y-34350168D01*
X24684669Y-34350168D02*
X24694193Y-34359691D01*
X24694193Y-34359691D02*
X24703717Y-34378739D01*
X24703717Y-34378739D02*
X24713241Y-34416834D01*
X24713241Y-34416834D02*
X24713241Y-34464453D01*
X24713241Y-34464453D02*
X24703717Y-34502549D01*
X24703717Y-34502549D02*
X24694193Y-34521596D01*
X24694193Y-34521596D02*
X24684669Y-34531120D01*
X24684669Y-34531120D02*
X24665622Y-34540644D01*
X24665622Y-34540644D02*
X24646574Y-34540644D01*
X24646574Y-34540644D02*
X24627526Y-34531120D01*
X24627526Y-34531120D02*
X24618003Y-34521596D01*
X24618003Y-34521596D02*
X24608479Y-34502549D01*
X24608479Y-34502549D02*
X24598955Y-34464453D01*
X24598955Y-34464453D02*
X24598955Y-34416834D01*
X24598955Y-34416834D02*
X24608479Y-34378739D01*
X24608479Y-34378739D02*
X24618003Y-34359691D01*
X24618003Y-34359691D02*
X24627526Y-34350168D01*
X24627526Y-34350168D02*
X24646574Y-34340644D01*
X24798955Y-34521596D02*
X24808479Y-34531120D01*
X24808479Y-34531120D02*
X24798955Y-34540644D01*
X24798955Y-34540644D02*
X24789431Y-34531120D01*
X24789431Y-34531120D02*
X24798955Y-34521596D01*
X24798955Y-34521596D02*
X24798955Y-34540644D01*
X24932288Y-34340644D02*
X24951336Y-34340644D01*
X24951336Y-34340644D02*
X24970384Y-34350168D01*
X24970384Y-34350168D02*
X24979907Y-34359691D01*
X24979907Y-34359691D02*
X24989431Y-34378739D01*
X24989431Y-34378739D02*
X24998955Y-34416834D01*
X24998955Y-34416834D02*
X24998955Y-34464453D01*
X24998955Y-34464453D02*
X24989431Y-34502549D01*
X24989431Y-34502549D02*
X24979907Y-34521596D01*
X24979907Y-34521596D02*
X24970384Y-34531120D01*
X24970384Y-34531120D02*
X24951336Y-34540644D01*
X24951336Y-34540644D02*
X24932288Y-34540644D01*
X24932288Y-34540644D02*
X24913241Y-34531120D01*
X24913241Y-34531120D02*
X24903717Y-34521596D01*
X24903717Y-34521596D02*
X24894193Y-34502549D01*
X24894193Y-34502549D02*
X24884669Y-34464453D01*
X24884669Y-34464453D02*
X24884669Y-34416834D01*
X24884669Y-34416834D02*
X24894193Y-34378739D01*
X24894193Y-34378739D02*
X24903717Y-34359691D01*
X24903717Y-34359691D02*
X24913241Y-34350168D01*
X24913241Y-34350168D02*
X24932288Y-34340644D01*
X25075146Y-34359691D02*
X25084669Y-34350168D01*
X25084669Y-34350168D02*
X25103717Y-34340644D01*
X25103717Y-34340644D02*
X25151336Y-34340644D01*
X25151336Y-34340644D02*
X25170384Y-34350168D01*
X25170384Y-34350168D02*
X25179907Y-34359691D01*
X25179907Y-34359691D02*
X25189431Y-34378739D01*
X25189431Y-34378739D02*
X25189431Y-34397787D01*
X25189431Y-34397787D02*
X25179907Y-34426358D01*
X25179907Y-34426358D02*
X25065622Y-34540644D01*
X25065622Y-34540644D02*
X25189431Y-34540644D01*
X25256098Y-34340644D02*
X25379907Y-34340644D01*
X25379907Y-34340644D02*
X25313241Y-34416834D01*
X25313241Y-34416834D02*
X25341812Y-34416834D01*
X25341812Y-34416834D02*
X25360860Y-34426358D01*
X25360860Y-34426358D02*
X25370384Y-34435882D01*
X25370384Y-34435882D02*
X25379907Y-34454930D01*
X25379907Y-34454930D02*
X25379907Y-34502549D01*
X25379907Y-34502549D02*
X25370384Y-34521596D01*
X25370384Y-34521596D02*
X25360860Y-34531120D01*
X25360860Y-34531120D02*
X25341812Y-34540644D01*
X25341812Y-34540644D02*
X25284669Y-34540644D01*
X25284669Y-34540644D02*
X25265622Y-34531120D01*
X25265622Y-34531120D02*
X25256098Y-34521596D01*
X25551336Y-34340644D02*
X25513241Y-34340644D01*
X25513241Y-34340644D02*
X25494193Y-34350168D01*
X25494193Y-34350168D02*
X25484669Y-34359691D01*
X25484669Y-34359691D02*
X25465622Y-34388263D01*
X25465622Y-34388263D02*
X25456098Y-34426358D01*
X25456098Y-34426358D02*
X25456098Y-34502549D01*
X25456098Y-34502549D02*
X25465622Y-34521596D01*
X25465622Y-34521596D02*
X25475146Y-34531120D01*
X25475146Y-34531120D02*
X25494193Y-34540644D01*
X25494193Y-34540644D02*
X25532288Y-34540644D01*
X25532288Y-34540644D02*
X25551336Y-34531120D01*
X25551336Y-34531120D02*
X25560860Y-34521596D01*
X25560860Y-34521596D02*
X25570384Y-34502549D01*
X25570384Y-34502549D02*
X25570384Y-34454930D01*
X25570384Y-34454930D02*
X25560860Y-34435882D01*
X25560860Y-34435882D02*
X25551336Y-34426358D01*
X25551336Y-34426358D02*
X25532288Y-34416834D01*
X25532288Y-34416834D02*
X25494193Y-34416834D01*
X25494193Y-34416834D02*
X25475146Y-34426358D01*
X25475146Y-34426358D02*
X25465622Y-34435882D01*
X25465622Y-34435882D02*
X25456098Y-34454930D01*
X25646574Y-34340644D02*
X25646574Y-34378739D01*
X25722765Y-34340644D02*
X25722765Y-34378739D01*
X26018003Y-34616834D02*
X26008479Y-34607310D01*
X26008479Y-34607310D02*
X25989431Y-34578739D01*
X25989431Y-34578739D02*
X25979908Y-34559691D01*
X25979908Y-34559691D02*
X25970384Y-34531120D01*
X25970384Y-34531120D02*
X25960860Y-34483501D01*
X25960860Y-34483501D02*
X25960860Y-34445406D01*
X25960860Y-34445406D02*
X25970384Y-34397787D01*
X25970384Y-34397787D02*
X25979908Y-34369215D01*
X25979908Y-34369215D02*
X25989431Y-34350168D01*
X25989431Y-34350168D02*
X26008479Y-34321596D01*
X26008479Y-34321596D02*
X26018003Y-34312072D01*
X26132288Y-34340644D02*
X26151336Y-34340644D01*
X26151336Y-34340644D02*
X26170384Y-34350168D01*
X26170384Y-34350168D02*
X26179908Y-34359691D01*
X26179908Y-34359691D02*
X26189431Y-34378739D01*
X26189431Y-34378739D02*
X26198955Y-34416834D01*
X26198955Y-34416834D02*
X26198955Y-34464453D01*
X26198955Y-34464453D02*
X26189431Y-34502549D01*
X26189431Y-34502549D02*
X26179908Y-34521596D01*
X26179908Y-34521596D02*
X26170384Y-34531120D01*
X26170384Y-34531120D02*
X26151336Y-34540644D01*
X26151336Y-34540644D02*
X26132288Y-34540644D01*
X26132288Y-34540644D02*
X26113241Y-34531120D01*
X26113241Y-34531120D02*
X26103717Y-34521596D01*
X26103717Y-34521596D02*
X26094193Y-34502549D01*
X26094193Y-34502549D02*
X26084669Y-34464453D01*
X26084669Y-34464453D02*
X26084669Y-34416834D01*
X26084669Y-34416834D02*
X26094193Y-34378739D01*
X26094193Y-34378739D02*
X26103717Y-34359691D01*
X26103717Y-34359691D02*
X26113241Y-34350168D01*
X26113241Y-34350168D02*
X26132288Y-34340644D01*
X26437050Y-34540644D02*
X26437050Y-34340644D01*
X26522765Y-34540644D02*
X26522765Y-34435882D01*
X26522765Y-34435882D02*
X26513241Y-34416834D01*
X26513241Y-34416834D02*
X26494193Y-34407310D01*
X26494193Y-34407310D02*
X26465622Y-34407310D01*
X26465622Y-34407310D02*
X26446574Y-34416834D01*
X26446574Y-34416834D02*
X26437050Y-34426358D01*
X26646574Y-34540644D02*
X26627527Y-34531120D01*
X26627527Y-34531120D02*
X26618003Y-34521596D01*
X26618003Y-34521596D02*
X26608479Y-34502549D01*
X26608479Y-34502549D02*
X26608479Y-34445406D01*
X26608479Y-34445406D02*
X26618003Y-34426358D01*
X26618003Y-34426358D02*
X26627527Y-34416834D01*
X26627527Y-34416834D02*
X26646574Y-34407310D01*
X26646574Y-34407310D02*
X26675146Y-34407310D01*
X26675146Y-34407310D02*
X26694193Y-34416834D01*
X26694193Y-34416834D02*
X26703717Y-34426358D01*
X26703717Y-34426358D02*
X26713241Y-34445406D01*
X26713241Y-34445406D02*
X26713241Y-34502549D01*
X26713241Y-34502549D02*
X26703717Y-34521596D01*
X26703717Y-34521596D02*
X26694193Y-34531120D01*
X26694193Y-34531120D02*
X26675146Y-34540644D01*
X26675146Y-34540644D02*
X26646574Y-34540644D01*
X26827527Y-34540644D02*
X26808479Y-34531120D01*
X26808479Y-34531120D02*
X26798955Y-34512072D01*
X26798955Y-34512072D02*
X26798955Y-34340644D01*
X26979908Y-34531120D02*
X26960860Y-34540644D01*
X26960860Y-34540644D02*
X26922765Y-34540644D01*
X26922765Y-34540644D02*
X26903717Y-34531120D01*
X26903717Y-34531120D02*
X26894193Y-34512072D01*
X26894193Y-34512072D02*
X26894193Y-34435882D01*
X26894193Y-34435882D02*
X26903717Y-34416834D01*
X26903717Y-34416834D02*
X26922765Y-34407310D01*
X26922765Y-34407310D02*
X26960860Y-34407310D01*
X26960860Y-34407310D02*
X26979908Y-34416834D01*
X26979908Y-34416834D02*
X26989431Y-34435882D01*
X26989431Y-34435882D02*
X26989431Y-34454930D01*
X26989431Y-34454930D02*
X26894193Y-34473977D01*
X27065622Y-34531120D02*
X27084670Y-34540644D01*
X27084670Y-34540644D02*
X27122765Y-34540644D01*
X27122765Y-34540644D02*
X27141812Y-34531120D01*
X27141812Y-34531120D02*
X27151336Y-34512072D01*
X27151336Y-34512072D02*
X27151336Y-34502549D01*
X27151336Y-34502549D02*
X27141812Y-34483501D01*
X27141812Y-34483501D02*
X27122765Y-34473977D01*
X27122765Y-34473977D02*
X27094193Y-34473977D01*
X27094193Y-34473977D02*
X27075146Y-34464453D01*
X27075146Y-34464453D02*
X27065622Y-34445406D01*
X27065622Y-34445406D02*
X27065622Y-34435882D01*
X27065622Y-34435882D02*
X27075146Y-34416834D01*
X27075146Y-34416834D02*
X27094193Y-34407310D01*
X27094193Y-34407310D02*
X27122765Y-34407310D01*
X27122765Y-34407310D02*
X27141812Y-34416834D01*
X27389432Y-34464453D02*
X27541813Y-34464453D01*
X27465622Y-34540644D02*
X27465622Y-34388263D01*
X27875146Y-34407310D02*
X27875146Y-34540644D01*
X27827527Y-34331120D02*
X27779908Y-34473977D01*
X27779908Y-34473977D02*
X27903717Y-34473977D01*
X28122765Y-34531120D02*
X28141813Y-34540644D01*
X28141813Y-34540644D02*
X28179908Y-34540644D01*
X28179908Y-34540644D02*
X28198955Y-34531120D01*
X28198955Y-34531120D02*
X28208479Y-34512072D01*
X28208479Y-34512072D02*
X28208479Y-34502549D01*
X28208479Y-34502549D02*
X28198955Y-34483501D01*
X28198955Y-34483501D02*
X28179908Y-34473977D01*
X28179908Y-34473977D02*
X28151336Y-34473977D01*
X28151336Y-34473977D02*
X28132289Y-34464453D01*
X28132289Y-34464453D02*
X28122765Y-34445406D01*
X28122765Y-34445406D02*
X28122765Y-34435882D01*
X28122765Y-34435882D02*
X28132289Y-34416834D01*
X28132289Y-34416834D02*
X28151336Y-34407310D01*
X28151336Y-34407310D02*
X28179908Y-34407310D01*
X28179908Y-34407310D02*
X28198955Y-34416834D01*
X28322765Y-34540644D02*
X28303717Y-34531120D01*
X28303717Y-34531120D02*
X28294194Y-34512072D01*
X28294194Y-34512072D02*
X28294194Y-34340644D01*
X28427527Y-34540644D02*
X28408479Y-34531120D01*
X28408479Y-34531120D02*
X28398955Y-34521596D01*
X28398955Y-34521596D02*
X28389432Y-34502549D01*
X28389432Y-34502549D02*
X28389432Y-34445406D01*
X28389432Y-34445406D02*
X28398955Y-34426358D01*
X28398955Y-34426358D02*
X28408479Y-34416834D01*
X28408479Y-34416834D02*
X28427527Y-34407310D01*
X28427527Y-34407310D02*
X28456098Y-34407310D01*
X28456098Y-34407310D02*
X28475146Y-34416834D01*
X28475146Y-34416834D02*
X28484670Y-34426358D01*
X28484670Y-34426358D02*
X28494194Y-34445406D01*
X28494194Y-34445406D02*
X28494194Y-34502549D01*
X28494194Y-34502549D02*
X28484670Y-34521596D01*
X28484670Y-34521596D02*
X28475146Y-34531120D01*
X28475146Y-34531120D02*
X28456098Y-34540644D01*
X28456098Y-34540644D02*
X28427527Y-34540644D01*
X28551336Y-34407310D02*
X28627527Y-34407310D01*
X28579908Y-34340644D02*
X28579908Y-34512072D01*
X28579908Y-34512072D02*
X28589432Y-34531120D01*
X28589432Y-34531120D02*
X28608479Y-34540644D01*
X28608479Y-34540644D02*
X28627527Y-34540644D01*
X28684670Y-34531120D02*
X28703717Y-34540644D01*
X28703717Y-34540644D02*
X28741813Y-34540644D01*
X28741813Y-34540644D02*
X28760860Y-34531120D01*
X28760860Y-34531120D02*
X28770384Y-34512072D01*
X28770384Y-34512072D02*
X28770384Y-34502549D01*
X28770384Y-34502549D02*
X28760860Y-34483501D01*
X28760860Y-34483501D02*
X28741813Y-34473977D01*
X28741813Y-34473977D02*
X28713241Y-34473977D01*
X28713241Y-34473977D02*
X28694194Y-34464453D01*
X28694194Y-34464453D02*
X28684670Y-34445406D01*
X28684670Y-34445406D02*
X28684670Y-34435882D01*
X28684670Y-34435882D02*
X28694194Y-34416834D01*
X28694194Y-34416834D02*
X28713241Y-34407310D01*
X28713241Y-34407310D02*
X28741813Y-34407310D01*
X28741813Y-34407310D02*
X28760860Y-34416834D01*
X28837051Y-34616834D02*
X28846575Y-34607310D01*
X28846575Y-34607310D02*
X28865622Y-34578739D01*
X28865622Y-34578739D02*
X28875146Y-34559691D01*
X28875146Y-34559691D02*
X28884670Y-34531120D01*
X28884670Y-34531120D02*
X28894194Y-34483501D01*
X28894194Y-34483501D02*
X28894194Y-34445406D01*
X28894194Y-34445406D02*
X28884670Y-34397787D01*
X28884670Y-34397787D02*
X28875146Y-34369215D01*
X28875146Y-34369215D02*
X28865622Y-34350168D01*
X28865622Y-34350168D02*
X28846575Y-34321596D01*
X28846575Y-34321596D02*
X28837051Y-34312072D01*
M02*
