%TF.GenerationSoftware,KiCad,Pcbnew,8.0.9*%
%TF.CreationDate,2025-07-03T09:04:01+02:00*%
%TF.ProjectId,Project,50726f6a-6563-4742-9e6b-696361645f70,rev?*%
%TF.SameCoordinates,Original*%
%TF.FileFunction,Drillmap*%
%TF.FilePolarity,Positive*%
%FSLAX45Y45*%
G04 Gerber Fmt 4.5, Leading zero omitted, Abs format (unit mm)*
G04 Created by KiCad (PCBNEW 8.0.9) date 2025-07-03 09:04:01*
%MOMM*%
%LPD*%
G01*
G04 APERTURE LIST*
%ADD10C,0.300000*%
%ADD11C,0.100000*%
%ADD12C,0.200000*%
%ADD13C,0.320000*%
G04 APERTURE END LIST*
D10*
X22457940Y-10530160D02*
X45457940Y-10530160D01*
X45457940Y-33530160D01*
X22457940Y-33530160D01*
X22457940Y-10530160D01*
D11*
X25249940Y-32906714D02*
G75*
G02*
X25184940Y-32906714I-32500J0D01*
G01*
X25184940Y-32906714D02*
G75*
G02*
X25249940Y-32906714I32500J0D01*
G01*
X25827940Y-32906714D02*
G75*
G02*
X25762940Y-32906714I-32500J0D01*
G01*
X25762940Y-32906714D02*
G75*
G02*
X25827940Y-32906714I32500J0D01*
G01*
D12*
D13*
X23340000Y-11360000D02*
X23660000Y-11680000D01*
X23660000Y-11360000D02*
X23340000Y-11680000D01*
X23340000Y-32360000D02*
X23660000Y-32680000D01*
X23660000Y-32360000D02*
X23340000Y-32680000D01*
X44340000Y-11360000D02*
X44660000Y-11680000D01*
X44660000Y-11360000D02*
X44340000Y-11680000D01*
X44340000Y-32360000D02*
X44660000Y-32680000D01*
X44660000Y-32360000D02*
X44340000Y-32680000D01*
D12*
X22703717Y-33856644D02*
X22703717Y-33656644D01*
X22703717Y-33656644D02*
X22751336Y-33656644D01*
X22751336Y-33656644D02*
X22779907Y-33666168D01*
X22779907Y-33666168D02*
X22798955Y-33685215D01*
X22798955Y-33685215D02*
X22808479Y-33704263D01*
X22808479Y-33704263D02*
X22818002Y-33742358D01*
X22818002Y-33742358D02*
X22818002Y-33770930D01*
X22818002Y-33770930D02*
X22808479Y-33809025D01*
X22808479Y-33809025D02*
X22798955Y-33828072D01*
X22798955Y-33828072D02*
X22779907Y-33847120D01*
X22779907Y-33847120D02*
X22751336Y-33856644D01*
X22751336Y-33856644D02*
X22703717Y-33856644D01*
X22903717Y-33856644D02*
X22903717Y-33723310D01*
X22903717Y-33761406D02*
X22913241Y-33742358D01*
X22913241Y-33742358D02*
X22922764Y-33732834D01*
X22922764Y-33732834D02*
X22941812Y-33723310D01*
X22941812Y-33723310D02*
X22960860Y-33723310D01*
X23027526Y-33856644D02*
X23027526Y-33723310D01*
X23027526Y-33656644D02*
X23018002Y-33666168D01*
X23018002Y-33666168D02*
X23027526Y-33675691D01*
X23027526Y-33675691D02*
X23037050Y-33666168D01*
X23037050Y-33666168D02*
X23027526Y-33656644D01*
X23027526Y-33656644D02*
X23027526Y-33675691D01*
X23151336Y-33856644D02*
X23132288Y-33847120D01*
X23132288Y-33847120D02*
X23122764Y-33828072D01*
X23122764Y-33828072D02*
X23122764Y-33656644D01*
X23256098Y-33856644D02*
X23237050Y-33847120D01*
X23237050Y-33847120D02*
X23227526Y-33828072D01*
X23227526Y-33828072D02*
X23227526Y-33656644D01*
X23484669Y-33856644D02*
X23484669Y-33656644D01*
X23484669Y-33656644D02*
X23551336Y-33799501D01*
X23551336Y-33799501D02*
X23618002Y-33656644D01*
X23618002Y-33656644D02*
X23618002Y-33856644D01*
X23798955Y-33856644D02*
X23798955Y-33751882D01*
X23798955Y-33751882D02*
X23789431Y-33732834D01*
X23789431Y-33732834D02*
X23770383Y-33723310D01*
X23770383Y-33723310D02*
X23732288Y-33723310D01*
X23732288Y-33723310D02*
X23713241Y-33732834D01*
X23798955Y-33847120D02*
X23779907Y-33856644D01*
X23779907Y-33856644D02*
X23732288Y-33856644D01*
X23732288Y-33856644D02*
X23713241Y-33847120D01*
X23713241Y-33847120D02*
X23703717Y-33828072D01*
X23703717Y-33828072D02*
X23703717Y-33809025D01*
X23703717Y-33809025D02*
X23713241Y-33789977D01*
X23713241Y-33789977D02*
X23732288Y-33780453D01*
X23732288Y-33780453D02*
X23779907Y-33780453D01*
X23779907Y-33780453D02*
X23798955Y-33770930D01*
X23894193Y-33723310D02*
X23894193Y-33923310D01*
X23894193Y-33732834D02*
X23913241Y-33723310D01*
X23913241Y-33723310D02*
X23951336Y-33723310D01*
X23951336Y-33723310D02*
X23970383Y-33732834D01*
X23970383Y-33732834D02*
X23979907Y-33742358D01*
X23979907Y-33742358D02*
X23989431Y-33761406D01*
X23989431Y-33761406D02*
X23989431Y-33818549D01*
X23989431Y-33818549D02*
X23979907Y-33837596D01*
X23979907Y-33837596D02*
X23970383Y-33847120D01*
X23970383Y-33847120D02*
X23951336Y-33856644D01*
X23951336Y-33856644D02*
X23913241Y-33856644D01*
X23913241Y-33856644D02*
X23894193Y-33847120D01*
X24075145Y-33837596D02*
X24084669Y-33847120D01*
X24084669Y-33847120D02*
X24075145Y-33856644D01*
X24075145Y-33856644D02*
X24065622Y-33847120D01*
X24065622Y-33847120D02*
X24075145Y-33837596D01*
X24075145Y-33837596D02*
X24075145Y-33856644D01*
X24075145Y-33732834D02*
X24084669Y-33742358D01*
X24084669Y-33742358D02*
X24075145Y-33751882D01*
X24075145Y-33751882D02*
X24065622Y-33742358D01*
X24065622Y-33742358D02*
X24075145Y-33732834D01*
X24075145Y-33732834D02*
X24075145Y-33751882D01*
X22242940Y-34085160D02*
X22442940Y-34285160D01*
X22442940Y-34085160D02*
X22242940Y-34285160D01*
X22684669Y-34076644D02*
X22808479Y-34076644D01*
X22808479Y-34076644D02*
X22741812Y-34152834D01*
X22741812Y-34152834D02*
X22770383Y-34152834D01*
X22770383Y-34152834D02*
X22789431Y-34162358D01*
X22789431Y-34162358D02*
X22798955Y-34171882D01*
X22798955Y-34171882D02*
X22808479Y-34190930D01*
X22808479Y-34190930D02*
X22808479Y-34238549D01*
X22808479Y-34238549D02*
X22798955Y-34257596D01*
X22798955Y-34257596D02*
X22789431Y-34267120D01*
X22789431Y-34267120D02*
X22770383Y-34276644D01*
X22770383Y-34276644D02*
X22713241Y-34276644D01*
X22713241Y-34276644D02*
X22694193Y-34267120D01*
X22694193Y-34267120D02*
X22684669Y-34257596D01*
X22894193Y-34257596D02*
X22903717Y-34267120D01*
X22903717Y-34267120D02*
X22894193Y-34276644D01*
X22894193Y-34276644D02*
X22884669Y-34267120D01*
X22884669Y-34267120D02*
X22894193Y-34257596D01*
X22894193Y-34257596D02*
X22894193Y-34276644D01*
X22979907Y-34095691D02*
X22989431Y-34086168D01*
X22989431Y-34086168D02*
X23008479Y-34076644D01*
X23008479Y-34076644D02*
X23056098Y-34076644D01*
X23056098Y-34076644D02*
X23075145Y-34086168D01*
X23075145Y-34086168D02*
X23084669Y-34095691D01*
X23084669Y-34095691D02*
X23094193Y-34114739D01*
X23094193Y-34114739D02*
X23094193Y-34133787D01*
X23094193Y-34133787D02*
X23084669Y-34162358D01*
X23084669Y-34162358D02*
X22970383Y-34276644D01*
X22970383Y-34276644D02*
X23094193Y-34276644D01*
X23218002Y-34076644D02*
X23237050Y-34076644D01*
X23237050Y-34076644D02*
X23256098Y-34086168D01*
X23256098Y-34086168D02*
X23265622Y-34095691D01*
X23265622Y-34095691D02*
X23275145Y-34114739D01*
X23275145Y-34114739D02*
X23284669Y-34152834D01*
X23284669Y-34152834D02*
X23284669Y-34200453D01*
X23284669Y-34200453D02*
X23275145Y-34238549D01*
X23275145Y-34238549D02*
X23265622Y-34257596D01*
X23265622Y-34257596D02*
X23256098Y-34267120D01*
X23256098Y-34267120D02*
X23237050Y-34276644D01*
X23237050Y-34276644D02*
X23218002Y-34276644D01*
X23218002Y-34276644D02*
X23198955Y-34267120D01*
X23198955Y-34267120D02*
X23189431Y-34257596D01*
X23189431Y-34257596D02*
X23179907Y-34238549D01*
X23179907Y-34238549D02*
X23170383Y-34200453D01*
X23170383Y-34200453D02*
X23170383Y-34152834D01*
X23170383Y-34152834D02*
X23179907Y-34114739D01*
X23179907Y-34114739D02*
X23189431Y-34095691D01*
X23189431Y-34095691D02*
X23198955Y-34086168D01*
X23198955Y-34086168D02*
X23218002Y-34076644D01*
X23408479Y-34076644D02*
X23427526Y-34076644D01*
X23427526Y-34076644D02*
X23446574Y-34086168D01*
X23446574Y-34086168D02*
X23456098Y-34095691D01*
X23456098Y-34095691D02*
X23465622Y-34114739D01*
X23465622Y-34114739D02*
X23475145Y-34152834D01*
X23475145Y-34152834D02*
X23475145Y-34200453D01*
X23475145Y-34200453D02*
X23465622Y-34238549D01*
X23465622Y-34238549D02*
X23456098Y-34257596D01*
X23456098Y-34257596D02*
X23446574Y-34267120D01*
X23446574Y-34267120D02*
X23427526Y-34276644D01*
X23427526Y-34276644D02*
X23408479Y-34276644D01*
X23408479Y-34276644D02*
X23389431Y-34267120D01*
X23389431Y-34267120D02*
X23379907Y-34257596D01*
X23379907Y-34257596D02*
X23370383Y-34238549D01*
X23370383Y-34238549D02*
X23360860Y-34200453D01*
X23360860Y-34200453D02*
X23360860Y-34152834D01*
X23360860Y-34152834D02*
X23370383Y-34114739D01*
X23370383Y-34114739D02*
X23379907Y-34095691D01*
X23379907Y-34095691D02*
X23389431Y-34086168D01*
X23389431Y-34086168D02*
X23408479Y-34076644D01*
X23560860Y-34276644D02*
X23560860Y-34143310D01*
X23560860Y-34162358D02*
X23570383Y-34152834D01*
X23570383Y-34152834D02*
X23589431Y-34143310D01*
X23589431Y-34143310D02*
X23618003Y-34143310D01*
X23618003Y-34143310D02*
X23637050Y-34152834D01*
X23637050Y-34152834D02*
X23646574Y-34171882D01*
X23646574Y-34171882D02*
X23646574Y-34276644D01*
X23646574Y-34171882D02*
X23656098Y-34152834D01*
X23656098Y-34152834D02*
X23675145Y-34143310D01*
X23675145Y-34143310D02*
X23703717Y-34143310D01*
X23703717Y-34143310D02*
X23722764Y-34152834D01*
X23722764Y-34152834D02*
X23732288Y-34171882D01*
X23732288Y-34171882D02*
X23732288Y-34276644D01*
X23827526Y-34276644D02*
X23827526Y-34143310D01*
X23827526Y-34162358D02*
X23837050Y-34152834D01*
X23837050Y-34152834D02*
X23856098Y-34143310D01*
X23856098Y-34143310D02*
X23884669Y-34143310D01*
X23884669Y-34143310D02*
X23903717Y-34152834D01*
X23903717Y-34152834D02*
X23913241Y-34171882D01*
X23913241Y-34171882D02*
X23913241Y-34276644D01*
X23913241Y-34171882D02*
X23922764Y-34152834D01*
X23922764Y-34152834D02*
X23941812Y-34143310D01*
X23941812Y-34143310D02*
X23970383Y-34143310D01*
X23970383Y-34143310D02*
X23989431Y-34152834D01*
X23989431Y-34152834D02*
X23998955Y-34171882D01*
X23998955Y-34171882D02*
X23998955Y-34276644D01*
X24389431Y-34067120D02*
X24218003Y-34324263D01*
X24646574Y-34076644D02*
X24665622Y-34076644D01*
X24665622Y-34076644D02*
X24684669Y-34086168D01*
X24684669Y-34086168D02*
X24694193Y-34095691D01*
X24694193Y-34095691D02*
X24703717Y-34114739D01*
X24703717Y-34114739D02*
X24713241Y-34152834D01*
X24713241Y-34152834D02*
X24713241Y-34200453D01*
X24713241Y-34200453D02*
X24703717Y-34238549D01*
X24703717Y-34238549D02*
X24694193Y-34257596D01*
X24694193Y-34257596D02*
X24684669Y-34267120D01*
X24684669Y-34267120D02*
X24665622Y-34276644D01*
X24665622Y-34276644D02*
X24646574Y-34276644D01*
X24646574Y-34276644D02*
X24627526Y-34267120D01*
X24627526Y-34267120D02*
X24618003Y-34257596D01*
X24618003Y-34257596D02*
X24608479Y-34238549D01*
X24608479Y-34238549D02*
X24598955Y-34200453D01*
X24598955Y-34200453D02*
X24598955Y-34152834D01*
X24598955Y-34152834D02*
X24608479Y-34114739D01*
X24608479Y-34114739D02*
X24618003Y-34095691D01*
X24618003Y-34095691D02*
X24627526Y-34086168D01*
X24627526Y-34086168D02*
X24646574Y-34076644D01*
X24798955Y-34257596D02*
X24808479Y-34267120D01*
X24808479Y-34267120D02*
X24798955Y-34276644D01*
X24798955Y-34276644D02*
X24789431Y-34267120D01*
X24789431Y-34267120D02*
X24798955Y-34257596D01*
X24798955Y-34257596D02*
X24798955Y-34276644D01*
X24998955Y-34276644D02*
X24884669Y-34276644D01*
X24941812Y-34276644D02*
X24941812Y-34076644D01*
X24941812Y-34076644D02*
X24922765Y-34105215D01*
X24922765Y-34105215D02*
X24903717Y-34124263D01*
X24903717Y-34124263D02*
X24884669Y-34133787D01*
X25075146Y-34095691D02*
X25084669Y-34086168D01*
X25084669Y-34086168D02*
X25103717Y-34076644D01*
X25103717Y-34076644D02*
X25151336Y-34076644D01*
X25151336Y-34076644D02*
X25170384Y-34086168D01*
X25170384Y-34086168D02*
X25179907Y-34095691D01*
X25179907Y-34095691D02*
X25189431Y-34114739D01*
X25189431Y-34114739D02*
X25189431Y-34133787D01*
X25189431Y-34133787D02*
X25179907Y-34162358D01*
X25179907Y-34162358D02*
X25065622Y-34276644D01*
X25065622Y-34276644D02*
X25189431Y-34276644D01*
X25360860Y-34076644D02*
X25322765Y-34076644D01*
X25322765Y-34076644D02*
X25303717Y-34086168D01*
X25303717Y-34086168D02*
X25294193Y-34095691D01*
X25294193Y-34095691D02*
X25275146Y-34124263D01*
X25275146Y-34124263D02*
X25265622Y-34162358D01*
X25265622Y-34162358D02*
X25265622Y-34238549D01*
X25265622Y-34238549D02*
X25275146Y-34257596D01*
X25275146Y-34257596D02*
X25284669Y-34267120D01*
X25284669Y-34267120D02*
X25303717Y-34276644D01*
X25303717Y-34276644D02*
X25341812Y-34276644D01*
X25341812Y-34276644D02*
X25360860Y-34267120D01*
X25360860Y-34267120D02*
X25370384Y-34257596D01*
X25370384Y-34257596D02*
X25379907Y-34238549D01*
X25379907Y-34238549D02*
X25379907Y-34190930D01*
X25379907Y-34190930D02*
X25370384Y-34171882D01*
X25370384Y-34171882D02*
X25360860Y-34162358D01*
X25360860Y-34162358D02*
X25341812Y-34152834D01*
X25341812Y-34152834D02*
X25303717Y-34152834D01*
X25303717Y-34152834D02*
X25284669Y-34162358D01*
X25284669Y-34162358D02*
X25275146Y-34171882D01*
X25275146Y-34171882D02*
X25265622Y-34190930D01*
X25503717Y-34076644D02*
X25522765Y-34076644D01*
X25522765Y-34076644D02*
X25541812Y-34086168D01*
X25541812Y-34086168D02*
X25551336Y-34095691D01*
X25551336Y-34095691D02*
X25560860Y-34114739D01*
X25560860Y-34114739D02*
X25570384Y-34152834D01*
X25570384Y-34152834D02*
X25570384Y-34200453D01*
X25570384Y-34200453D02*
X25560860Y-34238549D01*
X25560860Y-34238549D02*
X25551336Y-34257596D01*
X25551336Y-34257596D02*
X25541812Y-34267120D01*
X25541812Y-34267120D02*
X25522765Y-34276644D01*
X25522765Y-34276644D02*
X25503717Y-34276644D01*
X25503717Y-34276644D02*
X25484669Y-34267120D01*
X25484669Y-34267120D02*
X25475146Y-34257596D01*
X25475146Y-34257596D02*
X25465622Y-34238549D01*
X25465622Y-34238549D02*
X25456098Y-34200453D01*
X25456098Y-34200453D02*
X25456098Y-34152834D01*
X25456098Y-34152834D02*
X25465622Y-34114739D01*
X25465622Y-34114739D02*
X25475146Y-34095691D01*
X25475146Y-34095691D02*
X25484669Y-34086168D01*
X25484669Y-34086168D02*
X25503717Y-34076644D01*
X25646574Y-34076644D02*
X25646574Y-34114739D01*
X25722765Y-34076644D02*
X25722765Y-34114739D01*
X26018003Y-34352834D02*
X26008479Y-34343310D01*
X26008479Y-34343310D02*
X25989431Y-34314739D01*
X25989431Y-34314739D02*
X25979908Y-34295691D01*
X25979908Y-34295691D02*
X25970384Y-34267120D01*
X25970384Y-34267120D02*
X25960860Y-34219501D01*
X25960860Y-34219501D02*
X25960860Y-34181406D01*
X25960860Y-34181406D02*
X25970384Y-34133787D01*
X25970384Y-34133787D02*
X25979908Y-34105215D01*
X25979908Y-34105215D02*
X25989431Y-34086168D01*
X25989431Y-34086168D02*
X26008479Y-34057596D01*
X26008479Y-34057596D02*
X26018003Y-34048072D01*
X26179908Y-34143310D02*
X26179908Y-34276644D01*
X26132288Y-34067120D02*
X26084669Y-34209977D01*
X26084669Y-34209977D02*
X26208479Y-34209977D01*
X26437050Y-34276644D02*
X26437050Y-34076644D01*
X26522765Y-34276644D02*
X26522765Y-34171882D01*
X26522765Y-34171882D02*
X26513241Y-34152834D01*
X26513241Y-34152834D02*
X26494193Y-34143310D01*
X26494193Y-34143310D02*
X26465622Y-34143310D01*
X26465622Y-34143310D02*
X26446574Y-34152834D01*
X26446574Y-34152834D02*
X26437050Y-34162358D01*
X26646574Y-34276644D02*
X26627527Y-34267120D01*
X26627527Y-34267120D02*
X26618003Y-34257596D01*
X26618003Y-34257596D02*
X26608479Y-34238549D01*
X26608479Y-34238549D02*
X26608479Y-34181406D01*
X26608479Y-34181406D02*
X26618003Y-34162358D01*
X26618003Y-34162358D02*
X26627527Y-34152834D01*
X26627527Y-34152834D02*
X26646574Y-34143310D01*
X26646574Y-34143310D02*
X26675146Y-34143310D01*
X26675146Y-34143310D02*
X26694193Y-34152834D01*
X26694193Y-34152834D02*
X26703717Y-34162358D01*
X26703717Y-34162358D02*
X26713241Y-34181406D01*
X26713241Y-34181406D02*
X26713241Y-34238549D01*
X26713241Y-34238549D02*
X26703717Y-34257596D01*
X26703717Y-34257596D02*
X26694193Y-34267120D01*
X26694193Y-34267120D02*
X26675146Y-34276644D01*
X26675146Y-34276644D02*
X26646574Y-34276644D01*
X26827527Y-34276644D02*
X26808479Y-34267120D01*
X26808479Y-34267120D02*
X26798955Y-34248072D01*
X26798955Y-34248072D02*
X26798955Y-34076644D01*
X26979908Y-34267120D02*
X26960860Y-34276644D01*
X26960860Y-34276644D02*
X26922765Y-34276644D01*
X26922765Y-34276644D02*
X26903717Y-34267120D01*
X26903717Y-34267120D02*
X26894193Y-34248072D01*
X26894193Y-34248072D02*
X26894193Y-34171882D01*
X26894193Y-34171882D02*
X26903717Y-34152834D01*
X26903717Y-34152834D02*
X26922765Y-34143310D01*
X26922765Y-34143310D02*
X26960860Y-34143310D01*
X26960860Y-34143310D02*
X26979908Y-34152834D01*
X26979908Y-34152834D02*
X26989431Y-34171882D01*
X26989431Y-34171882D02*
X26989431Y-34190930D01*
X26989431Y-34190930D02*
X26894193Y-34209977D01*
X27065622Y-34267120D02*
X27084670Y-34276644D01*
X27084670Y-34276644D02*
X27122765Y-34276644D01*
X27122765Y-34276644D02*
X27141812Y-34267120D01*
X27141812Y-34267120D02*
X27151336Y-34248072D01*
X27151336Y-34248072D02*
X27151336Y-34238549D01*
X27151336Y-34238549D02*
X27141812Y-34219501D01*
X27141812Y-34219501D02*
X27122765Y-34209977D01*
X27122765Y-34209977D02*
X27094193Y-34209977D01*
X27094193Y-34209977D02*
X27075146Y-34200453D01*
X27075146Y-34200453D02*
X27065622Y-34181406D01*
X27065622Y-34181406D02*
X27065622Y-34171882D01*
X27065622Y-34171882D02*
X27075146Y-34152834D01*
X27075146Y-34152834D02*
X27094193Y-34143310D01*
X27094193Y-34143310D02*
X27122765Y-34143310D01*
X27122765Y-34143310D02*
X27141812Y-34152834D01*
X27218003Y-34352834D02*
X27227527Y-34343310D01*
X27227527Y-34343310D02*
X27246574Y-34314739D01*
X27246574Y-34314739D02*
X27256098Y-34295691D01*
X27256098Y-34295691D02*
X27265622Y-34267120D01*
X27265622Y-34267120D02*
X27275146Y-34219501D01*
X27275146Y-34219501D02*
X27275146Y-34181406D01*
X27275146Y-34181406D02*
X27265622Y-34133787D01*
X27265622Y-34133787D02*
X27256098Y-34105215D01*
X27256098Y-34105215D02*
X27246574Y-34086168D01*
X27246574Y-34086168D02*
X27227527Y-34057596D01*
X27227527Y-34057596D02*
X27218003Y-34048072D01*
X27579908Y-34352834D02*
X27570384Y-34343310D01*
X27570384Y-34343310D02*
X27551336Y-34314739D01*
X27551336Y-34314739D02*
X27541812Y-34295691D01*
X27541812Y-34295691D02*
X27532289Y-34267120D01*
X27532289Y-34267120D02*
X27522765Y-34219501D01*
X27522765Y-34219501D02*
X27522765Y-34181406D01*
X27522765Y-34181406D02*
X27532289Y-34133787D01*
X27532289Y-34133787D02*
X27541812Y-34105215D01*
X27541812Y-34105215D02*
X27551336Y-34086168D01*
X27551336Y-34086168D02*
X27570384Y-34057596D01*
X27570384Y-34057596D02*
X27579908Y-34048072D01*
X27656098Y-34143310D02*
X27656098Y-34276644D01*
X27656098Y-34162358D02*
X27665622Y-34152834D01*
X27665622Y-34152834D02*
X27684670Y-34143310D01*
X27684670Y-34143310D02*
X27713241Y-34143310D01*
X27713241Y-34143310D02*
X27732289Y-34152834D01*
X27732289Y-34152834D02*
X27741812Y-34171882D01*
X27741812Y-34171882D02*
X27741812Y-34276644D01*
X27865622Y-34276644D02*
X27846574Y-34267120D01*
X27846574Y-34267120D02*
X27837051Y-34257596D01*
X27837051Y-34257596D02*
X27827527Y-34238549D01*
X27827527Y-34238549D02*
X27827527Y-34181406D01*
X27827527Y-34181406D02*
X27837051Y-34162358D01*
X27837051Y-34162358D02*
X27846574Y-34152834D01*
X27846574Y-34152834D02*
X27865622Y-34143310D01*
X27865622Y-34143310D02*
X27894193Y-34143310D01*
X27894193Y-34143310D02*
X27913241Y-34152834D01*
X27913241Y-34152834D02*
X27922765Y-34162358D01*
X27922765Y-34162358D02*
X27932289Y-34181406D01*
X27932289Y-34181406D02*
X27932289Y-34238549D01*
X27932289Y-34238549D02*
X27922765Y-34257596D01*
X27922765Y-34257596D02*
X27913241Y-34267120D01*
X27913241Y-34267120D02*
X27894193Y-34276644D01*
X27894193Y-34276644D02*
X27865622Y-34276644D01*
X27989432Y-34143310D02*
X28065622Y-34143310D01*
X28018003Y-34076644D02*
X28018003Y-34248072D01*
X28018003Y-34248072D02*
X28027527Y-34267120D01*
X28027527Y-34267120D02*
X28046574Y-34276644D01*
X28046574Y-34276644D02*
X28065622Y-34276644D01*
X28284670Y-34143310D02*
X28284670Y-34343310D01*
X28284670Y-34152834D02*
X28303717Y-34143310D01*
X28303717Y-34143310D02*
X28341813Y-34143310D01*
X28341813Y-34143310D02*
X28360860Y-34152834D01*
X28360860Y-34152834D02*
X28370384Y-34162358D01*
X28370384Y-34162358D02*
X28379908Y-34181406D01*
X28379908Y-34181406D02*
X28379908Y-34238549D01*
X28379908Y-34238549D02*
X28370384Y-34257596D01*
X28370384Y-34257596D02*
X28360860Y-34267120D01*
X28360860Y-34267120D02*
X28341813Y-34276644D01*
X28341813Y-34276644D02*
X28303717Y-34276644D01*
X28303717Y-34276644D02*
X28284670Y-34267120D01*
X28494193Y-34276644D02*
X28475146Y-34267120D01*
X28475146Y-34267120D02*
X28465622Y-34248072D01*
X28465622Y-34248072D02*
X28465622Y-34076644D01*
X28656098Y-34276644D02*
X28656098Y-34171882D01*
X28656098Y-34171882D02*
X28646574Y-34152834D01*
X28646574Y-34152834D02*
X28627527Y-34143310D01*
X28627527Y-34143310D02*
X28589432Y-34143310D01*
X28589432Y-34143310D02*
X28570384Y-34152834D01*
X28656098Y-34267120D02*
X28637051Y-34276644D01*
X28637051Y-34276644D02*
X28589432Y-34276644D01*
X28589432Y-34276644D02*
X28570384Y-34267120D01*
X28570384Y-34267120D02*
X28560860Y-34248072D01*
X28560860Y-34248072D02*
X28560860Y-34229025D01*
X28560860Y-34229025D02*
X28570384Y-34209977D01*
X28570384Y-34209977D02*
X28589432Y-34200453D01*
X28589432Y-34200453D02*
X28637051Y-34200453D01*
X28637051Y-34200453D02*
X28656098Y-34190930D01*
X28722765Y-34143310D02*
X28798955Y-34143310D01*
X28751336Y-34076644D02*
X28751336Y-34248072D01*
X28751336Y-34248072D02*
X28760860Y-34267120D01*
X28760860Y-34267120D02*
X28779908Y-34276644D01*
X28779908Y-34276644D02*
X28798955Y-34276644D01*
X28941813Y-34267120D02*
X28922765Y-34276644D01*
X28922765Y-34276644D02*
X28884670Y-34276644D01*
X28884670Y-34276644D02*
X28865622Y-34267120D01*
X28865622Y-34267120D02*
X28856098Y-34248072D01*
X28856098Y-34248072D02*
X28856098Y-34171882D01*
X28856098Y-34171882D02*
X28865622Y-34152834D01*
X28865622Y-34152834D02*
X28884670Y-34143310D01*
X28884670Y-34143310D02*
X28922765Y-34143310D01*
X28922765Y-34143310D02*
X28941813Y-34152834D01*
X28941813Y-34152834D02*
X28951336Y-34171882D01*
X28951336Y-34171882D02*
X28951336Y-34190930D01*
X28951336Y-34190930D02*
X28856098Y-34209977D01*
X29122765Y-34276644D02*
X29122765Y-34076644D01*
X29122765Y-34267120D02*
X29103717Y-34276644D01*
X29103717Y-34276644D02*
X29065622Y-34276644D01*
X29065622Y-34276644D02*
X29046574Y-34267120D01*
X29046574Y-34267120D02*
X29037051Y-34257596D01*
X29037051Y-34257596D02*
X29027527Y-34238549D01*
X29027527Y-34238549D02*
X29027527Y-34181406D01*
X29027527Y-34181406D02*
X29037051Y-34162358D01*
X29037051Y-34162358D02*
X29046574Y-34152834D01*
X29046574Y-34152834D02*
X29065622Y-34143310D01*
X29065622Y-34143310D02*
X29103717Y-34143310D01*
X29103717Y-34143310D02*
X29122765Y-34152834D01*
X29198955Y-34352834D02*
X29208479Y-34343310D01*
X29208479Y-34343310D02*
X29227527Y-34314739D01*
X29227527Y-34314739D02*
X29237051Y-34295691D01*
X29237051Y-34295691D02*
X29246574Y-34267120D01*
X29246574Y-34267120D02*
X29256098Y-34219501D01*
X29256098Y-34219501D02*
X29256098Y-34181406D01*
X29256098Y-34181406D02*
X29246574Y-34133787D01*
X29246574Y-34133787D02*
X29237051Y-34105215D01*
X29237051Y-34105215D02*
X29227527Y-34086168D01*
X29227527Y-34086168D02*
X29208479Y-34057596D01*
X29208479Y-34057596D02*
X29198955Y-34048072D01*
M02*
