M48
; DRILL file {KiCad 8.0.9} date 2025-07-03T09:04:01+0200
; FORMAT={-:-/ absolute / inch / decimal}
; #@! TF.CreationDate,2025-07-03T09:04:01+02:00
; #@! TF.GenerationSoftware,Kicad,Pcbnew,8.0.9
; #@! TF.FileFunction,Plated,1,4,PTH
FMAT,2
INCH
; #@! TA.AperFunction,Plated,PTH,ViaDrill
T1C0.0118
; #@! TA.AperFunction,Plated,PTH,ComponentDrill
T2C0.0236
%
G90
G05
T1
X9.1254Y-8.704
X9.1305Y-8.4432
X9.1305Y-8.8968
X9.1458Y-8.2509
X9.1532Y-9.1567
X9.1786Y-7.9922
X9.1788Y-9.3479
X9.2143Y-7.8026
X9.2166Y-11.5528
X9.2166Y-12.2418
X9.229Y-9.6038
X9.2668Y-11.3923
X9.2744Y-7.5488
X9.2748Y-9.7912
X9.3166Y-11.5528
X9.3301Y-7.3641
X9.3519Y-10.0403
X9.4168Y-7.1182
X9.4173Y-10.2218
X9.4654Y-11.7831
X9.4654Y-11.8382
X9.4654Y-11.8934
X9.4918Y-6.9404
X9.5205Y-10.4614
X9.5206Y-11.7831
X9.5206Y-11.8382
X9.5206Y-11.8934
X9.5757Y-11.7831
X9.5757Y-11.8382
X9.5757Y-11.8934
X9.5898Y-12.5863
X9.6041Y-6.7051
X9.6048Y-10.6348
X9.6228Y-12.7642
X9.6423Y-12.8458
X9.6976Y-6.5363
X9.7329Y-10.8621
X9.7419Y-13.0053
X9.7508Y-12.9322
X9.8248Y-7.7717
X9.8248Y-8.0079
X9.8248Y-8.2441
X9.8248Y-8.4803
X9.8248Y-8.8504
X9.8248Y-9.0866
X9.8248Y-9.3228
X9.8248Y-9.5591
X9.8344Y-6.3142
X9.8352Y-11.0256
X9.8378Y-12.6769
X9.8583Y-12.8382
X9.8666Y-12.2418
X9.8728Y-12.7542
X9.9452Y-6.1564
X9.9468Y-12.7792
X9.9866Y-11.2379
X9.9883Y-12.8407
X10.0177Y-7.7717
X10.0177Y-8.0079
X10.0177Y-8.2441
X10.0177Y-8.4803
X10.0177Y-8.8504
X10.0177Y-9.0866
X10.0177Y-9.3228
X10.0177Y-9.5591
X10.0522Y-12.8275
X10.0522Y-12.8609
X10.1048Y-5.9501
X10.1058Y-11.3897
X10.1143Y-12.8427
X10.1181Y-7.565
X10.1428Y-12.7802
X10.1811Y-7.5603
X10.1811Y-7.7579
X10.1811Y-8.5728
X10.1811Y-8.7657
X10.1811Y-9.565
X10.1811Y-9.7579
X10.2124Y-12.7556
X10.2253Y-12.8392
X10.2318Y-5.8049
X10.2789Y-11.5847
X10.3438Y-13.0033
X10.4124Y-5.6167
X10.4135Y-11.7229
X10.4173Y-8.5728
X10.4173Y-8.7657
X10.4173Y-9.565
X10.4173Y-9.7579
X10.4252Y-7.565
X10.4252Y-7.7603
X10.5542Y-5.4859
X10.6064Y-11.8984
X10.6535Y-7.565
X10.6535Y-7.7579
X10.6535Y-8.5728
X10.6535Y-8.7657
X10.6535Y-9.565
X10.6535Y-9.7579
X10.7537Y-5.318
X10.7549Y-12.0215
X10.8898Y-7.565
X10.8898Y-7.7579
X10.8898Y-8.5728
X10.8898Y-8.7657
X10.8898Y-9.565
X10.8898Y-9.7579
X10.9086Y-5.2029
X10.9654Y-12.1756
X11.061Y-7.7717
X11.061Y-8.0079
X11.061Y-8.2441
X11.061Y-8.4803
X11.061Y-8.8504
X11.061Y-9.0866
X11.061Y-9.3228
X11.061Y-9.5591
X11.1024Y-8.6772
X11.1249Y-5.0572
X11.1261Y-12.2822
X11.2539Y-7.7717
X11.2539Y-8.0079
X11.2539Y-8.2441
X11.2539Y-8.4803
X11.2539Y-8.8504
X11.2539Y-9.0866
X11.2539Y-9.3228
X11.2539Y-9.5591
X11.2911Y-4.9592
X11.3518Y-12.413
X11.4862Y-7.7717
X11.4862Y-8.0079
X11.4862Y-8.2441
X11.4862Y-8.4803
X11.4862Y-8.8504
X11.4862Y-9.0866
X11.4862Y-9.3228
X11.4862Y-9.5591
X11.5216Y-4.8373
X11.523Y-12.5019
X11.6791Y-7.7717
X11.6791Y-8.0079
X11.6791Y-8.2441
X11.6791Y-8.4803
X11.6791Y-8.8504
X11.6791Y-9.0866
X11.6791Y-9.3228
X11.6791Y-9.5591
X11.6973Y-4.7576
X11.7612Y-12.608
X11.7795Y-7.6063
X11.8425Y-7.565
X11.8425Y-7.7579
X11.8425Y-8.5728
X11.8425Y-8.7657
X11.8425Y-9.565
X11.8425Y-9.7579
X11.9395Y-4.6609
X11.9409Y-12.6782
X12.0787Y-8.5728
X12.0787Y-8.7657
X12.0787Y-9.565
X12.0787Y-9.7579
X12.0866Y-7.565
X12.0866Y-7.7579
X12.1226Y-4.6003
X12.1891Y-12.7583
X12.315Y-7.7579
X12.315Y-8.5728
X12.315Y-8.7657
X12.315Y-9.565
X12.315Y-9.7579
X12.3738Y-4.5298
X12.3752Y-12.8091
X12.4882Y-8.6063
X12.5512Y-7.565
X12.5512Y-7.7579
X12.5512Y-8.5728
X12.5512Y-8.7657
X12.5512Y-9.565
X12.5512Y-9.7579
X12.5623Y-4.4891
X12.6305Y-12.8624
X12.7224Y-7.7717
X12.7224Y-8.0079
X12.7224Y-8.2441
X12.7224Y-8.4803
X12.7224Y-8.8504
X12.7224Y-9.0866
X12.7224Y-9.3228
X12.7224Y-9.5591
X12.8195Y-4.4457
X12.821Y-12.8931
X12.9154Y-7.7717
X12.9154Y-8.0079
X12.9154Y-8.2441
X12.9154Y-8.4803
X12.9154Y-8.8504
X12.9154Y-9.0866
X12.9154Y-9.3228
X12.9154Y-9.5591
X13.0113Y-4.4252
X13.0805Y-12.9189
X13.2441Y-8.2992
X13.252Y-9.0295
X13.2717Y-4.3465
X13.2717Y-4.4094
X13.2731Y-12.9292
X13.2874Y-8.3622
X13.2874Y-8.9665
X13.4646Y-4.4094
X13.4803Y-8.3622
X13.4803Y-8.9665
X13.5339Y-12.9273
X13.7251Y-4.4214
X13.7266Y-12.917
X13.8484Y-7.7717
X13.8484Y-8.0079
X13.8484Y-8.2441
X13.8484Y-8.4803
X13.8484Y-8.8504
X13.8484Y-9.0866
X13.8484Y-9.3228
X13.8484Y-9.5591
X13.9169Y-4.442
X13.9857Y-12.8874
X14.0413Y-7.7717
X14.0413Y-8.0079
X14.0413Y-8.2441
X14.0413Y-8.4803
X14.0413Y-8.8504
X14.0413Y-9.0866
X14.0413Y-9.3228
X14.0413Y-9.5591
X14.1535Y-7.626
X14.1747Y-4.4816
X14.1761Y-12.8567
X14.2047Y-7.565
X14.2047Y-7.7579
X14.2047Y-8.5728
X14.2047Y-8.7657
X14.2047Y-9.565
X14.2047Y-9.7579
X14.3632Y-4.5224
X14.4306Y-12.7998
X14.4409Y-8.5728
X14.4409Y-8.7657
X14.4409Y-9.565
X14.4409Y-9.7579
X14.4488Y-7.565
X14.4488Y-7.7579
X14.6153Y-4.5891
X14.6168Y-12.749
X14.6772Y-7.565
X14.6772Y-7.7579
X14.6772Y-8.5728
X14.6772Y-8.7657
X14.6772Y-9.565
X14.6772Y-9.7579
X14.7985Y-4.6497
X14.8504Y-8.6063
X14.8638Y-12.6653
X14.9134Y-7.565
X14.9134Y-7.7579
X14.9134Y-8.5728
X14.9134Y-8.7657
X14.9134Y-9.565
X14.9134Y-9.7579
X15.0421Y-4.743
X15.0434Y-12.5951
X15.0846Y-7.7717
X15.0846Y-8.0079
X15.0846Y-8.2441
X15.0846Y-8.4803
X15.0846Y-8.8504
X15.0846Y-9.0866
X15.0846Y-9.3228
X15.0846Y-9.5591
X15.2177Y-4.8227
X15.2776Y-7.7717
X15.2776Y-8.0079
X15.2776Y-8.2441
X15.2776Y-8.4803
X15.2776Y-8.8504
X15.2776Y-9.0866
X15.2776Y-9.3228
X15.2776Y-9.5591
X15.2801Y-12.4856
X15.45Y-4.9412
X15.4513Y-12.3966
X15.5098Y-7.7717
X15.5098Y-8.0079
X15.5098Y-8.2441
X15.5098Y-8.4803
X15.5098Y-8.8504
X15.5098Y-9.0866
X15.5098Y-9.3228
X15.5098Y-9.5591
X15.6162Y-5.0392
X15.6751Y-12.2626
X15.7028Y-7.7717
X15.7028Y-8.0079
X15.7028Y-8.2441
X15.7028Y-8.4803
X15.7028Y-8.8504
X15.7028Y-9.0866
X15.7028Y-9.3228
X15.7028Y-9.5591
X15.8031Y-7.6063
X15.8346Y-5.1818
X15.8358Y-12.156
X15.8661Y-7.565
X15.8661Y-7.7579
X15.8661Y-8.5728
X15.8661Y-8.7657
X15.8661Y-9.565
X15.8661Y-9.7579
X15.9895Y-5.2968
X16.044Y-11.9989
X16.1024Y-8.5728
X16.1024Y-8.7657
X16.1024Y-9.565
X16.1024Y-9.7579
X16.1102Y-7.565
X16.1914Y-5.4618
X16.1925Y-11.8758
X16.3332Y-5.5927
X16.3386Y-7.565
X16.3386Y-7.7579
X16.3386Y-8.5728
X16.3386Y-8.7657
X16.3386Y-9.565
X16.3386Y-9.7579
X16.3829Y-11.6975
X16.5165Y-5.7782
X16.5175Y-11.5593
X16.5748Y-7.565
X16.5748Y-7.7579
X16.5748Y-8.5728
X16.5748Y-8.7657
X16.5748Y-9.565
X16.5748Y-9.7579
X16.6435Y-5.9234
X16.6878Y-11.3618
X16.7461Y-7.7717
X16.7461Y-8.0079
X16.7461Y-8.2441
X16.7461Y-8.4803
X16.7461Y-8.8504
X16.7461Y-9.0866
X16.7461Y-9.3228
X16.7461Y-9.5591
X16.806Y-6.1274
X16.8069Y-11.21
X16.9169Y-6.2852
X16.939Y-7.7717
X16.939Y-8.0079
X16.939Y-8.2441
X16.939Y-8.4803
X16.939Y-8.8504
X16.939Y-9.0866
X16.939Y-9.3228
X16.939Y-9.5591
X16.9553Y-10.9955
X17.0569Y-6.5053
X17.0576Y-10.832
X17.1503Y-6.6741
X17.1823Y-10.603
X17.2661Y-6.9078
X17.2667Y-10.4295
X17.3411Y-7.0855
X17.3664Y-10.1885
X17.4313Y-7.3302
X17.4318Y-10.007
X17.487Y-7.5149
X17.5053Y-9.7568
X17.5508Y-7.7678
X17.5511Y-9.5693
X17.5865Y-7.9574
X17.5975Y-9.3127
X17.623Y-8.2156
X17.6231Y-9.1215
X17.6384Y-8.4079
X17.6421Y-8.8614
X17.6472Y-8.6686
T2
G00X9.8718Y-12.9454
M15
G01X9.8718Y-12.9139
M16
G05
G00X9.8718Y-13.1178
M15
G01X9.8718Y-13.0706
M16
G05
G00X10.212Y-12.9454
M15
G01X10.212Y-12.9139
M16
G05
G00X10.212Y-13.1178
M15
G01X10.212Y-13.0706
M16
G05
M30
